<svg width="759" height="700" viewBox="0 0 759 700" fill="none" xmlns="http://www.w3.org/2000/svg">
<path d="M379.253 0C447.823 0 511.244 13.3331 569.514 39.9994C627.784 66.6655 673.852 102.926 707.713 148.781C741.575 194.636 758.506 244.652 758.506 298.831C758.506 353.009 741.575 403.097 707.713 449.094C673.852 495.089 627.855 531.42 569.727 558.086C511.597 584.751 448.105 598.086 379.253 598.086C357.525 598.086 335.091 596.533 311.953 593.43C211.495 663.128 158.022 698.402 151.531 699.247C148.428 700.377 145.466 700.236 142.644 698.825C141.514 697.978 140.667 696.848 140.103 695.437C139.539 694.027 139.256 692.758 139.256 691.628V689.936C140.95 678.93 153.789 633.077 177.775 552.372C123.314 525.283 80.0692 489.375 48.0416 444.648C16.0139 399.923 0 351.317 0 298.831C0 244.652 16.9309 194.636 50.7928 148.781C84.6547 102.926 130.721 66.6655 188.992 39.9994C247.262 13.3331 310.683 0 379.253 0Z" fill="black"/>
</svg>
