<svg width="120" height="126" viewBox="0 0 120 126" fill="none" xmlns="http://www.w3.org/2000/svg">
<path d="M120 117.646L111.641 126L94.9355 109.28L103.288 100.92L120 117.646ZM53.1653 5.90374C54.7095 5.90742 56.2527 5.97844 57.7907 6.11658C55.7466 9.71999 54.349 13.654 53.6615 17.7401L53.1653 17.7283C30.3219 17.7283 11.8145 36.2515 11.8145 59.1143C11.8145 81.9771 30.3219 100.5 53.1653 100.5C76.0087 100.5 94.5161 81.9771 94.5161 59.1143L94.4984 58.6118C98.5814 57.9218 102.512 56.5211 106.112 54.4732C106.242 56.0104 106.331 57.5476 106.331 59.1143C106.331 88.4865 82.5126 112.325 53.1653 112.325C23.8181 112.325 0 88.4865 0 59.1143C0 29.7421 23.8181 5.90374 53.1653 5.90374ZM85.8324 1.88338C86.0539 1.32754 86.4369 0.850952 86.9318 0.51521C87.4268 0.179467 88.0109 0 88.6088 0C89.2068 0 89.7909 0.179467 90.2859 0.51521C90.7808 0.850952 91.1638 1.32754 91.3852 1.88338L92.8857 5.48988C95.3933 11.6095 100.15 16.5336 106.177 19.2478L110.418 21.1397C110.961 21.3908 111.42 21.7921 111.742 22.296C112.063 22.7999 112.234 23.3855 112.234 23.9835C112.234 24.5816 112.063 25.1671 111.742 25.671C111.42 26.1749 110.961 26.5762 110.418 26.8273L105.929 28.8257C100.053 31.4645 95.3788 36.2106 92.8266 42.1283L91.3675 45.4747C91.1404 46.0196 90.7573 46.4851 90.2664 46.8125C89.7755 47.1399 89.1988 47.3146 88.6088 47.3146C88.0189 47.3146 87.4422 47.1399 86.9513 46.8125C86.4604 46.4851 86.0773 46.0196 85.8502 45.4747L84.397 42.1342C81.8432 36.2122 77.1639 31.4635 71.2829 28.8257L66.7933 26.8273C66.2494 26.5769 65.7886 26.1756 65.4656 25.671C65.1426 25.1665 64.9709 24.5798 64.9709 23.9806C64.9709 23.3813 65.1426 22.7946 65.4656 22.2901C65.7886 21.7855 66.2494 21.3842 66.7933 21.1338L71.0348 19.2419C77.0614 16.5318 81.8205 11.6121 84.332 5.49579L85.8324 1.88338Z" fill="black"/>
</svg>
