<?xml version="1.0" encoding="UTF-8"?>
<svg id="_레이어_1" data-name="레이어_1" xmlns="http://www.w3.org/2000/svg" version="1.1" viewBox="0 0 500 500">
  <!-- Generator: Adobe Illustrator 30.1.0, SVG Export Plug-In . SVG Version: 2.1.1 Build 136)  -->
  <defs>
    <style>
      .st0 {
        fill: #b1b1b1;
      }

      .st1 {
        fill: #fefefe;
      }

      .st2 {
        fill: #b2b2b2;
      }
    </style>
  </defs>
  <g id="SKUQrG">
    <g>
      <path class="st1" d="M64.52,500.15H-.4V.15h500v500h-64.93l-.04-77.79c-1.73-26.94-14.39-49.9-34.5-67.37-40.27-34.97-99.69-44.97-151.92-44.77-52.82.2-114.42,11.08-153.58,48.91-17.66,17.07-29.8,39.5-29.87,64.61l-.23,76.4ZM361.77,176.83c0-61.95-50.22-112.18-112.18-112.18s-112.18,50.22-112.18,112.18,50.22,112.18,112.18,112.18,112.18-50.22,112.18-112.18Z"/>
      <g>
        <path class="st0" d="M434.67,500.15H64.52l.23-76.4c.08-25.11,12.21-47.54,29.87-64.61,39.16-37.84,100.77-48.71,153.58-48.91,52.24-.2,111.66,9.79,151.92,44.77,20.11,17.47,32.77,40.43,34.5,67.37l.04,77.79Z"/>
        <circle class="st2" cx="249.6" cy="176.83" r="112.18"/>
      </g>
    </g>
  </g>
</svg>