<?xml version="1.0" encoding="UTF-8"?>
<svg id="_레이어_1" data-name="레이어_1" xmlns="http://www.w3.org/2000/svg" version="1.1" viewBox="0 0 1007.19 779.52">
  <!-- Generator: Adobe Illustrator 30.1.0, SVG Export Plug-In . SVG Version: 2.1.1 Build 136)  -->
  <defs>
    <style>
      .st0 {
        fill: #381f0d;
      }

      .st1 {
        fill: #341b0a;
      }

      .st2 {
        fill: #e0a365;
      }

      .st3 {
        fill: #39200d;
      }

      .st4 {
        fill: #3a1c0f;
      }

      .st5 {
        fill: #fff;
      }

      .st6 {
        fill: #efd641;
      }

      .st7 {
        fill: #e6a677;
      }

      .st8 {
        fill: #e0a465;
      }

      .st9 {
        fill: #351c0a;
      }

      .st10 {
        fill: #d1a961;
      }

      .st11 {
        fill: #f9f6c7;
      }

      .st12 {
        fill: #e5a477;
      }

      .st13 {
        fill: #7c6860;
      }

      .st14 {
        fill: #f4d47d;
      }

      .st15 {
        fill: #e5a377;
      }
    </style>
  </defs>
  <path class="st13" d="M-15.07,2796.25l-4-10v-39.98l4-11.99-1.73,25.99c-.78,11.69,1.26,23.55,1.73,35.98Z"/>
  <g>
    <g>
      <path class="st14" d="M882.72,358.81c13.56-28.39,14.14-51.85,48.57-61.74,15.72-4.51,29.53-9.47,45.76-15.79l-31.69,68.14c-27.02,58.1-4.51,90.69,3.6,143.4,6.84,44.48-3.91,88.4-27.44,126.52-76.45,123.81-259.84,145.11-392.44,144.97-64.19-.07-126.2-2.92-189.87-9.24-46.31-4.6-90.16-13.04-133.44-28.79-77.49-28.19-146.53-86.17-145.15-175.57l.89-57.85c1.5-97.45-65.41-111.86-40.62-211.51,22.54,38.28,61.75,46.15,104.63,43.59,22.71-3.17,44.27-6.81,66.7-11.29,49.05-9.82,98.24-19.84,133.49,24.79,22.21,28.12,34.2,55.28,58.19,79.26,24.56,24.54,58.64,29.93,90.76,16.35,25.96-10.97,48.09-27.71,69.64-46.4,47.78-41.44,108.95-75.91,171.36-41.63l55.25,30.35c35.5,19.5,90.53,27.03,111.82-17.56ZM93.84,441.11l257.5,28.19c96.38,10.55,191.69,10.07,288.14,2.4,94.63-7.52,186.31-24.84,275.34-56.45,3.58-1.27,6.16-6.12,5.78-8.71-.32-2.17-5.46-6.26-7.64-5.49-265.71,93.63-542.13,60.8-815.57,26.14-4.84-.61-9.19,1.28-9.73,4.49-.59,3.52,1.95,8.97,6.18,9.43ZM930,495.34c0-4.62-3.74-8.36-8.36-8.36s-8.36,3.74-8.36,8.36,3.74,8.36,8.36,8.36,8.36-3.74,8.36-8.36ZM598.92,526.49c1.84.8,7.19-1.47,7.36-3.27,1.08-11.07-29.46-21.45-29.33-11.08.02,1.86,2.37,5.8,4.08,6.55l17.89,7.8ZM468.03,523.21c2.29-.86,5.07-4.68,4.7-6.79-.31-1.76-4.33-5.03-6.26-4.75-11.5,1.66-31.03,11.45-23.24,18.15,4.95,4.25,8.08-.36,24.8-6.61ZM925.95,539.92c0-7.67-6.22-13.9-13.89-13.9s-13.89,6.22-13.89,13.9,6.22,13.9,13.89,13.9,13.89-6.22,13.89-13.9ZM608.31,561.21l-13.13-5.88,8.36-4.59c2.26-1.24,3.98-7.09,2.79-9.74-5.74-12.68-49.35,19.05-32.36,24.07l29.77,8.8c2.86.84,7.94-2,8.55-4.69.49-2.12-1.88-7.03-3.99-7.98ZM450.24,581.4l29.96-16.66c1.97-1.1,4.88-4.64,4.72-6.74-.75-9.75-42.91-22.17-43.19-7.84-.05,2.54,4.02,6.69,6.64,7.16l11.03,1.98-16.13,10.13c-2.16,1.36-3.83,6.93-2.56,9.04,1.48,2.45,7.16,4.24,9.52,2.93ZM128.24,589.11c.41-10.41-8.58-14.08-16.08-14.28-8.33-.23-15.1,3.94-16.42,11.58s.43,16.85,8.97,19.15c10.16,2.73,23.13-6.26,23.53-16.44ZM393.85,616.86l.06-20.74c.01-3.57-4.09-7.65-7.68-7.59-2.74.04-6.84,4.6-6.82,7.61l.12,20.57c.02,2.81,4.25,7.13,6.77,7.22s7.53-4.29,7.53-7.07ZM419.37,589.69c-1.69-1.65-8.75-.43-9.83,1.79-2.14,4.42-2.03,14.04-.19,19.49.84,2.48,7.73,3.97,9.64,2.25,5.31-4.78,4.5-19.51.38-23.54ZM181.22,603.66c0-7.05-5.71-12.76-12.76-12.76s-12.76,5.72-12.76,12.76,5.71,12.76,12.76,12.76,12.76-5.72,12.76-12.76ZM371.1,616.52l-.12-18.47c-.02-2.95-3.91-7.57-6.87-7.59-3.53-.02-7.41,4.19-7.43,7.5l-.1,19.25c-.02,3.96,3.42,8.43,7.63,8.35,3.47-.06,6.92-4.75,6.89-9.03ZM625.64,617.45l4.22-15.28c.86-3.09-2.29-9.12-5.42-9.52-2.4-.31-7.72,2.1-8.36,4.61l-4.13,16.17c-.67,2.62,2.66,7.72,4.96,8.44s8.06-2.01,8.73-4.42ZM654.13,598.59c.42-2.2-4.1-6.24-6.32-6.19s-7,2.74-7.68,4.83l-4.04,12.4c-.78,2.39,2.51,7.39,4.8,8.21,8.97,3.23,12.04-12.92,13.24-19.25ZM682.14,617.62l4.29-15.38c.64-2.3-2.63-7.25-4.91-7.86s-8.11,1.78-8.79,4.15l-4.16,14.54c-.74,2.61,2.91,8.3,5.41,8.82,2.14.45,7.53-2.05,8.15-4.27ZM531.97,640.62c32.17-2.9,48.74-40.72,35.77-41.51-10.62-.65-8.3,27.42-37.69,29.7-30.98,2.4-31.65-27.51-43.23-24.34-10.57,2.89,9.16,39.4,45.15,36.15ZM168,663.34c0-6.49-5.26-11.75-11.75-11.75s-11.75,5.26-11.75,11.75,5.26,11.75,11.75,11.75,11.75-5.26,11.75-11.75Z"/>
      <path class="st10" d="M93.84,441.11c-4.23-.46-6.77-5.91-6.18-9.43.54-3.21,4.89-5.1,9.73-4.49,273.44,34.65,549.86,67.49,815.57-26.14,2.18-.77,7.32,3.32,7.64,5.49.38,2.59-2.2,7.44-5.78,8.71-89.03,31.62-180.71,48.93-275.34,56.45-96.45,7.67-191.76,8.15-288.14-2.4l-257.5-28.19Z"/>
      <path class="st1" d="M531.97,640.62c-35.99,3.25-55.73-33.26-45.15-36.15,11.59-3.17,12.25,26.74,43.23,24.34,29.39-2.28,27.07-30.35,37.69-29.7,12.97.79-3.6,38.61-35.77,41.51Z"/>
      <path class="st9" d="M450.24,581.4c-2.36,1.31-8.04-.48-9.52-2.93-1.27-2.1.39-7.68,2.56-9.04l16.13-10.13-11.03-1.98c-2.62-.47-6.69-4.62-6.64-7.16.27-14.34,42.44-1.91,43.19,7.84.16,2.1-2.75,5.64-4.72,6.74l-29.96,16.66Z"/>
      <path class="st9" d="M608.31,561.21c2.11.95,4.48,5.85,3.99,7.98-.62,2.69-5.7,5.53-8.55,4.69l-29.77-8.8c-16.99-5.02,26.62-36.75,32.36-24.07,1.2,2.64-.53,8.5-2.79,9.74l-8.36,4.59,13.13,5.88Z"/>
      <path class="st2" d="M128.24,589.11c-.4,10.18-13.38,19.17-23.53,16.44-8.54-2.29-10.23-11.84-8.97-19.15s8.09-11.81,16.42-11.58c7.5.21,16.49,3.87,16.08,14.28Z"/>
      <circle class="st2" cx="912.05" cy="539.92" r="13.89"/>
      <circle class="st2" cx="168.45" cy="603.66" r="12.76"/>
      <path class="st15" d="M393.85,616.86c0,2.78-5,7.16-7.53,7.07s-6.76-4.41-6.77-7.22l-.12-20.57c-.02-3.01,4.08-7.57,6.82-7.61,3.59-.06,7.69,4.02,7.68,7.59l-.06,20.74Z"/>
      <path class="st12" d="M371.1,616.52c.03,4.28-3.41,8.97-6.89,9.03-4.21.08-7.65-4.39-7.63-8.35l.1-19.25c.02-3.31,3.9-7.52,7.43-7.5,2.96.02,6.85,4.64,6.87,7.59l.12,18.47Z"/>
      <circle class="st2" cx="156.25" cy="663.34" r="11.75"/>
      <path class="st12" d="M625.64,617.45c-.67,2.41-6.43,5.14-8.73,4.42s-5.63-5.82-4.96-8.44l4.13-16.17c.64-2.51,5.96-4.92,8.36-4.61,3.13.4,6.27,6.43,5.42,9.52l-4.22,15.28Z"/>
      <path class="st0" d="M468.03,523.21c-16.72,6.25-19.86,10.86-24.8,6.61-7.79-6.7,11.74-16.49,23.24-18.15,1.93-.28,5.95,2.99,6.26,4.75.38,2.11-2.4,5.93-4.7,6.79Z"/>
      <path class="st12" d="M682.14,617.62c-.62,2.22-6.01,4.72-8.15,4.27-2.5-.52-6.15-6.22-5.41-8.82l4.16-14.54c.68-2.37,6.51-4.75,8.79-4.15s5.55,5.56,4.91,7.86l-4.29,15.38Z"/>
      <path class="st3" d="M598.92,526.49l-17.89-7.8c-1.71-.74-4.06-4.69-4.08-6.55-.13-10.38,30.41,0,29.33,11.08-.17,1.8-5.52,4.07-7.36,3.27Z"/>
      <path class="st7" d="M419.37,589.69c4.12,4.03,4.93,18.75-.38,23.54-1.91,1.72-8.8.23-9.64-2.25-1.84-5.45-1.95-15.08.19-19.49,1.08-2.22,8.14-3.45,9.83-1.79Z"/>
      <path class="st12" d="M654.13,598.59c-1.2,6.34-4.28,22.49-13.24,19.25-2.29-.82-5.58-5.82-4.8-8.21l4.04-12.4c.68-2.09,5.46-4.77,7.68-4.83s6.74,3.99,6.32,6.19Z"/>
      <circle class="st8" cx="921.64" cy="495.34" r="8.36"/>
    </g>
    <g>
      <path class="st4" d="M594.94,777.53c-93.15,4.65-183.53,1.02-275.18-9.35-46.62-5.27-90.36-15.25-133.17-32.78-76.85-31.47-142.28-93.99-141.17-182.68l.78-61.88c.84-66.53-33.87-88.42-43.7-142.66-6.09-33.6-.67-66.91,12.1-98.44,3.75-51.89,41.22-91.3,83.5-117.81,64.83-38.44,139.01-52.28,213.7-66.84C364.65,8.22,450.18-1.23,525.02.12c61.84,1.89,144.51,8.64,190.64,54.16,73.32,8.71,154.27,17.86,219.1,54.73,50.87,29.87,85.25,78.42,67.86,139.32-5.1,17.86-9.4,35.42-17.38,52.38l-24.64,52.37c-18.89,40.15-14.14,65.63-2.63,107.01,14.7,52.88,9.88,106.97-16.46,155.44-39.66,73-110.69,114.44-188.86,136.74-51.64,14.73-102.63,22.52-157.73,25.27ZM724.78,126.9c4.7-29.31-10.15-56.75-34.27-73.44-59.82-41.4-178.46-42.71-247.94-33.3-56.59,7.66-122.29,34.94-140.46,93.66-6.65,21.49,3.14,44.15,19.63,58.85,39.36,35.1,107.93,42.82,159.52,40.78,56.52-2.24,231.94-14.2,243.53-86.55ZM394.78,406.84c19.63,19.66,46.53,24.28,72.37,13.63,59.62-24.58,81.35-72.29,151.01-96.11,35.71-12.21,71.8-10,104.88,8.2l53.31,29.32c29.07,15.99,77.41,26.88,93.81-12.51l12.15-29.19c24.34-58.46,96.98-24.62,108.75-89.64,8.18-45.2-25.09-85.37-62.62-107.32-56.71-33.16-134.8-44.65-199.36-51.57,24.22,48.23,11.56,86.17-31.27,112.6-52.98,31.66-156.73,42.39-218.57,44.68-55.13,2.04-128.47-7.84-169.27-46.08-28.35-26.58-33.73-65.11-11.21-99.13-62.61,11.36-123.68,24.96-179.04,53.42-24.18,13.5-45.73,29.09-63.18,50.56-25.49,31.36-42.54,81.94-1.83,108.18,79.73,51.39,208.76-60.62,282.91,32.83,21.76,27.42,35.01,55.97,57.16,78.16ZM882.72,358.81c-21.29,44.59-76.32,37.06-111.82,17.56l-55.25-30.35c-62.41-34.28-123.58.19-171.36,41.63-21.55,18.69-43.68,35.43-69.64,46.4-32.12,13.58-66.2,8.19-90.76-16.35-24-23.98-35.98-51.14-58.19-79.26-35.24-44.63-84.43-34.6-133.49-24.79-22.43,4.49-43.99,8.13-66.7,11.29-42.88,2.56-82.09-5.31-104.63-43.59-24.79,99.65,42.12,114.06,40.62,211.51l-.89,57.85c-1.38,89.39,67.66,147.37,145.15,175.57,43.27,15.74,87.12,24.19,133.44,28.79,63.67,6.33,125.68,9.18,189.87,9.24,132.6.14,316-21.16,392.44-144.97,23.54-38.12,34.28-82.04,27.44-126.52-8.1-52.71-30.62-85.3-3.6-143.4l31.69-68.14c-16.23,6.33-30.04,11.28-45.76,15.79-34.44,9.89-35.01,33.34-48.57,61.74Z"/>
      <path class="st11" d="M394.78,406.84c-22.16-22.19-35.41-50.74-57.16-78.16-74.14-93.45-203.17,18.56-282.91-32.83-40.71-26.24-23.66-76.81,1.83-108.18,17.45-21.47,39-37.06,63.18-50.56,55.36-28.46,116.43-42.06,179.04-53.42-22.52,34.03-17.14,72.55,11.21,99.13,40.79,38.24,114.14,48.13,169.27,46.08,61.85-2.29,165.59-13.02,218.57-44.68,42.83-26.42,55.49-64.37,31.27-112.6,64.56,6.92,142.65,18.41,199.36,51.57,37.54,21.95,70.81,62.12,62.62,107.32-11.77,65.03-84.41,31.18-108.75,89.64l-12.15,29.19c-16.4,39.39-64.75,28.5-93.81,12.51l-53.31-29.32c-33.09-18.2-69.17-20.41-104.88-8.2-69.66,23.82-91.39,71.53-151.01,96.11-25.83,10.65-52.73,6.03-72.37-13.63ZM76.44,230.46c34.87-43.83,81.73-73.53,135.22-87.19,6.1-1.56,9.33-8.28,8.57-13.04-.78-4.87-6.84-11.33-13.11-9.83-59.82,14.33-111.99,48.38-149.85,96.41-4.92,6.24-3.2,13.68,2.1,17.35,5.51,3.83,12.03,2.63,17.06-3.69ZM875.52,315.67c30.57-60.52,101.92-36.78,96.55-65.4-.77-4.08-7.35-9.8-12.7-8.76-51.12,9.95-85.73,22.83-108.85,70.6-17.5,36.18-37.26,9.6-44.46,26.75-2.88,6.86,1.04,14.09,8.54,16.34,28.76,8.64,49.26-16.46,60.92-39.54Z"/>
      <path class="st5" d="M875.52,315.67c-11.66,23.08-32.16,48.18-60.92,39.54-7.5-2.25-11.42-9.48-8.54-16.34,7.2-17.16,26.96,9.42,44.46-26.75,23.11-47.77,57.73-60.65,108.85-70.6,5.35-1.04,11.93,4.68,12.7,8.76,5.37,28.62-65.98,4.88-96.55,65.4Z"/>
      <path class="st5" d="M76.44,230.46c-5.03,6.32-11.55,7.52-17.06,3.69-5.3-3.68-7.02-11.11-2.1-17.35,37.85-48.02,90.02-82.07,149.85-96.41,6.26-1.5,12.33,4.96,13.11,9.83.76,4.76-2.47,11.49-8.57,13.04-53.5,13.67-100.35,43.36-135.22,87.19Z"/>
      <g>
        <path class="st6" d="M724.78,126.9c-11.59,72.35-187,84.31-243.53,86.55-51.59,2.04-120.16-5.68-159.52-40.78-16.48-14.7-26.28-37.37-19.63-58.85,18.17-58.72,83.87-85.99,140.46-93.66,69.49-9.41,188.12-8.1,247.94,33.3,24.12,16.69,38.96,44.13,34.27,73.44ZM444.47,61.97c7.62-.72,12.15-7.41,10.85-13.94-1.27-6.33-6.91-10.28-14.12-9.53-34.87,3.62-66.71,16.49-93.2,39.15-4.7,4.02-4.56,12.38-.04,17.13,14.26,15,28.32-26.37,96.51-32.8ZM518.01,189.59c58.5,6.27,115.52-10.49,160.21-47.16,5.17-4.24,4.37-12.33,1.54-15.78-3.55-4.33-11.46-6.29-16.04-2.65-40.95,32.63-91.65,47.95-143.83,41.84-7.56-.88-13.8,4.09-14.28,10.28-.55,7.19,3.63,12.53,12.39,13.47Z"/>
        <path class="st11" d="M518.01,189.59c-8.76-.94-12.95-6.28-12.39-13.47.48-6.2,6.72-11.17,14.28-10.28,52.18,6.11,102.88-9.21,143.83-41.84,4.57-3.65,12.49-1.68,16.04,2.65,2.83,3.45,3.63,11.54-1.54,15.78-44.7,36.67-101.71,53.43-160.21,47.16Z"/>
        <path class="st11" d="M444.47,61.97c-68.19,6.44-82.25,47.81-96.51,32.8-4.52-4.75-4.66-13.12.04-17.13,26.49-22.66,58.33-35.53,93.2-39.15,7.2-.75,12.85,3.2,14.12,9.53,1.31,6.54-3.22,13.22-10.85,13.94Z"/>
      </g>
    </g>
  </g>
</svg>