<?xml version="1.0" encoding="UTF-8"?>
<svg id="_레이어_1" data-name="레이어_1" xmlns="http://www.w3.org/2000/svg" version="1.1" viewBox="0 0 973.52 807.54">
  <!-- Generator: Adobe Illustrator 30.1.0, SVG Export Plug-In . SVG Version: 2.1.1 Build 136)  -->
  <defs>
    <style>
      .st0 {
        fill: #ffe7c5;
      }

      .st1 {
        fill: #341b0a;
      }

      .st2 {
        fill: #e0a365;
      }

      .st3 {
        fill: #714c26;
      }

      .st4 {
        fill: #714c27;
      }

      .st5 {
        fill: #3a1c0f;
      }

      .st6 {
        fill: #724c27;
      }

      .st7 {
        fill: #f5bb7b;
      }

      .st8 {
        fill: #7c6860;
      }

      .st9 {
        fill: #704b26;
      }
    </style>
  </defs>
  <path class="st8" d="M-67.68,3198.77l-4-10v-39.98l4-11.99-1.73,25.99c-.78,11.69,1.26,23.55,1.73,35.98Z"/>
  <g>
    <path class="st5" d="M919.3,674.31c-20.58,14.1-45.61,9.22-63.54-6.28-20.21-17.47-35.11-38.91-50.95-62.36-35.03,59.64-83.94,106-143.39,139.73-110.79,62.86-244.04,78.64-366.95,44.55-99.44-27.58-183.04-96.22-212.6-197.17-17.21.78-32.92-1.92-45.72-12.5-26.1-21.56-13.87-53.06-2.89-77.14,15.61-34.24-16.51-43.36-29.66-75.73-5.92-14.58-4.5-30.57,4.07-42.57,8.65-12.12,23.33-19.2,40.96-17.93,31.37-98.83,97.57-181.97,187.03-234.68,12.54-44.09,40.64-81.2,80.56-101.2,28.02-14.04,58.95-13.21,83.94,4.62,13.8-15.29,29.27-25.72,47.77-31.58,37.54-11.9,75.69,3,96.26,36.55,24.24-16.67,53.29-19.21,77.62-5.33,22.46,12.81,36.33,37.95,35.49,66.03,13.58,3.57,26.01,7.46,37.97,14.34,54.41,31.33,91.73,81.99,110.08,141.7l14.72,47.9c29.03-24.97,67.95-60.07,109.27-52.52,29.64,5.42,48.63,30.91,43.28,60.56-7.52,41.71-34.52,65.07-14.1,116.78s16.88,70.87-19.38,111.05c-8.05,8.92-11.05,19.24-7.02,30.9l10.36,29.97c9,26.04.39,56.17-23.17,72.32ZM908.17,663.04c19.78-11.66,26.98-35.96,19.66-56.61l-9.87-27.87c-15.41-43.51,27.74-52.59,36.31-88.19,9.61-39.94-38.62-73.99-8.67-142.62,4.99-11.44,9.22-23.89,11.7-36.24,4.06-20.2-7.7-38.15-27.56-42.83-14.68-3.46-30.3-.38-43.99,7.06-23.61,12.83-44.66,29.66-62.5,49.69-2.08,2.34-5.07,4.86-7.11,5.51s-7.27-2.38-7.66-4.49c-3.92-21.57-11.02-41.99-17.33-62.96-16.69-55.42-50.11-102.27-99.83-132.39-14.68-8.89-30.22-13.69-47.62-15.91-2.1-3.73-2.08-10.18-1.92-14.65.85-23.78-11.6-44.76-31.58-53.91-20.35-9.33-44.69-5.14-61.18,10.56-3.4,3.24-11.57,6.46-13.84.81-13.85-34.54-50.62-51.31-85.82-38.33-34.14,12.6-43.38,39.38-50.22,34.69l-6.45-4.42c-19.12-16.54-45.69-16.79-68.87-5.46-38.79,18.96-64.4,55.75-75.03,97.93-91.19,51.97-157.91,135.88-187.54,236.24-1.12,3.79-7.81,5.1-11.03,4.41-11.69-2.97-22.64,1.62-28.96,9.36-16.78,20.55,4.92,44.29,18.39,60.39,12.59,15.05,16.58,33.09,9.4,51.63l-11.27,29.08c-3.75,9.69-2.3,21.77,3.85,30.3,4.24,5.88,14.5,12.69,23.88,12.9l28.16.62c24.05,97.92,101.44,166.58,196.38,195.22,125.93,37.98,264.09,20.52,376.26-48.03,55.59-33.97,100.56-80.29,130.83-137.24,1.49-2.8,4.9-5.78,7.09-5.92s6.55,2.89,7.75,4.99c15.12,26.36,31.85,50.82,54.63,70.57,11.48,9.95,27.71,14.26,41.56,6.1Z"/>
    <path class="st7" d="M908.17,663.04c-13.85,8.16-30.08,3.85-41.56-6.1-22.78-19.75-39.51-44.2-54.63-70.57-1.2-2.1-5.56-5.12-7.75-4.99s-5.6,3.12-7.09,5.92c-30.27,56.95-75.23,103.27-130.83,137.24-112.17,68.55-250.33,86.02-376.26,48.03-94.94-28.64-172.33-97.3-196.38-195.22l-28.16-.62c-9.38-.21-19.64-7.01-23.88-12.9-6.16-8.53-7.61-20.61-3.85-30.3l11.27-29.08c7.18-18.55,3.19-36.58-9.4-51.63-13.47-16.1-35.17-39.84-18.39-60.39,6.32-7.74,17.26-12.33,28.96-9.36,3.22.7,9.91-.62,11.03-4.41,29.63-100.35,96.35-184.27,187.54-236.24,10.62-42.18,36.24-78.97,75.03-97.93,23.18-11.33,49.75-11.09,68.87,5.46l6.45,4.42c6.85,4.69,16.08-22.09,50.22-34.69,35.2-12.99,71.97,3.78,85.82,38.33,2.26,5.64,10.43,2.42,13.84-.81,16.5-15.7,40.84-19.88,61.18-10.56,19.98,9.15,32.43,30.13,31.58,53.91-.16,4.46-.17,10.91,1.92,14.65,17.4,2.22,32.94,7.01,47.62,15.91,49.72,30.12,83.14,76.97,99.83,132.39,6.32,20.97,13.42,41.39,17.33,62.96.38,2.11,5.62,5.14,7.66,4.49s5.03-3.17,7.11-5.51c17.84-20.03,38.89-36.86,62.5-49.69,13.69-7.44,29.31-10.52,43.99-7.06,19.86,4.69,31.62,22.63,27.56,42.83-2.48,12.34-6.71,24.8-11.7,36.24-29.95,68.63,18.28,102.68,8.67,142.62-8.57,35.6-51.72,44.68-36.31,88.19l9.87,27.87c7.31,20.65.12,44.95-19.66,56.61ZM343.21,143.82c-21.53,2.06-43.18,5.68-65.66,9.9-2.63.49-5.29,6.26-4.77,8.64s5.65,5.51,8.13,5.08l43.53-7.52c2.9-.5,9.31-.53,11.03,1.58l4.04,4.95c3.89,4.77,12.41-8.29,14.1-10.92l97.45-6.05c4.09,2.33,9.19,2.24,13.05-.36,72.68,1.98,122.82,4.16,195.38,22.04,3.37.83,8.51-2.03,9.11-4.95.52-2.55-2.19-7.87-5.26-8.66-34.43-8.88-67.75-13.98-101.89-17.96,4.63-18.14,32.1-27.64,25.02-38.43-8.23-12.54-35.13,24.3-41.45,36.79l-62.57-2.5c-1.78-.07-5.79-2.02-4.89-2.08,1.6-1.87,26.54-35.12,15.88-39.87-13.05-5.81-12.53,20.07-38.47,42.31l-91.3,3.95,24.36-41.82c1.19-2.04.52-7.67-1.21-9.28-2.02-1.88-8.91-1.09-10.41,1.34l-33.21,53.83ZM248.65,637.33c29.08-33.3,46.52-71.59,54.55-114.38,17.93-95.45-16.64-188.82-70.32-266.81-1.71-2.49-8.4-2.82-10.37-.94-1.85,1.76-2.59,7.1-.82,9.72,53.63,79.08,88.29,173.03,64.63,268.92-8.76,35.52-24.27,66.71-48.36,94.1-2.17,2.47-1.66,8.16.29,9.92,1.67,1.51,8.33,1.83,10.39-.53ZM395.98,626.01c-1.62,2.93,1.55,9.45,4.34,9.48s7.65-1.84,8.93-4.16c13.47-24.46,15.49-50.57,9.43-78.55,17.06,9.89,31.67,20.16,49.57,25.6,17.12,5.21,34.46-5.01,43.86-20.86,30.44-51.3,39.6-114.67,30.9-173.12-8.73-13.07-100.92,29.13-113.3,35.95.87-24.78-15.66-41.41-38.32-47.01,11.12-17.69,19.73-35.33,19.2-55.34-.39-36.71-40.9-54.68-46.81-43.01-.92,1.81-1.14,7.33.62,8.35s5.39,2.2,8.53,3c17.27,4.38,25.72,23.39,22.86,41.27-4.63,28.94-26.26,45.6-23.23,53.67,2.73,7.27,17.89,1.82,33.45,14.93,12.43,10.48,11.86,28.36.71,38.28-1.84,1.63-2.16,7.37-.76,9.05s7.33,2.8,9.25,1.67c36.22-21.46,73.04-37.76,115.1-48.52,5.97,52.73-3.55,107.07-30.03,153-5.91,10.25-15.77,16.74-26.88,15.98-25.35-10.15-46.71-24.05-67.63-41.21-2.45-2.01-7.26-2.49-9.3-1.12-12.92,8.71,32.42,43.18-.48,102.66ZM573.83,642.2c-2.89,1.69-4.79,6.58-3.99,9.52.61,2.23,6.99,4.82,9.25,3.68,27.47-13.83,47.32-44.45,58.06-72.14,11.39-29.35-10.06-50.47-32.54-65.52,28.1-18.05,39.52-51.31,27.63-81.74-8.33-21.32-26.2-35.72-46.17-45.08,12.35-20.52,17.77-44.65,8.29-68.94-13.25-33.91-52.42-52.2-53.64-37.7-1.08,12.8,31.62,9.63,42.39,49.04,12.33,45.08-33.65,62.64-10.87,68.67,35.79,9.48,60.29,43.88,46.71,77.46-13.56,33.53-38.8,26.05-39.53,36.54-.64,9.31,18.06,10.35,37.1,29.84,9.37,9.59,11.96,23.08,6.36,35.3-11.62,25.34-24.57,46.78-49.05,61.07ZM704.42,600.44c8.77,9.46,43.81-21.52,47.71-54.19,2.41-20.26-5.54-37.93-21.75-49.45,17.14-13.33,26.16-30.53,24.52-50.27-1.42-17.13-11.16-33.95-27.79-44.44,16.54-16.77,26.94-39.06,22.52-63.32-10.13-55.54-81.2-65.83-76.61-46.42.54,2.29,4.9,5.52,7.97,5.45,24.87-.58,46.63,15.27,53.32,37.63,6.83,22.85-3.5,48.23-24.46,60.67-2.45,1.46-5.47,5.71-5.27,8.04.2,2.33,4.11,5.89,6.81,6.77,18.6,6.05,31.05,24.1,29.42,43.08-1.51,17.57-15.21,33.51-33.98,37.15-3.53.69-7.47,4.32-7.6,7.07-.17,3.5,4.09,7.62,7.81,7.49,17.6-.6,30.23,13.3,31.13,30.58,2.3,44.06-45.01,52-33.74,64.15ZM853.61,396.89c20.91-12.05,39.28-20.3,60.99-28.3,2.72-1,4.86-7.01,3.65-9.36-1.04-2.02-6.42-4.62-8.79-3.77-21.91,7.85-42.78,17.43-62.97,28.95-2.3,1.31-3.71,7.41-2.74,9.58s6.02,3.28,9.85,2.9ZM158.29,373.15c0-9.18-7.44-16.62-16.61-16.62s-16.61,7.44-16.61,16.62,7.44,16.62,16.61,16.62,16.61-7.44,16.61-16.62ZM807.65,546.33c11.14-60.92,14.09-120.11,9.32-181.07-.31-4-3.95-7.67-6.88-7.84-3.4-.2-7.75,3.74-7.42,7.81,4.98,60.95,1.83,120.14-9.27,180.08-.85,4.57,3.03,8.97,6.77,8.97,3,0,6.6-3.17,7.47-7.94ZM173.99,417.01l4.25-16.21c.75-2.85-2.89-8.8-5.57-9.01-2.31-.18-7.4,2.35-8.08,4.87l-4.19,15.55c-.72,2.68,2.1,7.83,4.56,8.68,2.11.73,8.42-1.54,9.03-3.87ZM197.94,413.66l4.47-13.3c.8-2.38-2.14-7.75-4.56-8.43s-8.21,1.82-9.04,4.16l-3.95,11.26c-.86,2.44.86,7.49,2.9,8.98s9.36-.23,10.18-2.67ZM231.24,415.48l3.54-13.35c.68-2.58-2.34-7.7-4.74-8.31s-8.24,1.69-8.96,4.16l-4,13.83c-.82,2.84,2.53,8.86,5.22,9.17,2.91.33,8.25-2.89,8.94-5.5ZM401.14,447.1c-.51-3.62-5.64-6.98-8.84-6.52-12.23,1.78,4.87,26.22-9.38,73-.84,2.75,2.84,8.3,5.41,8.61,17.65,2.12,14.99-59.64,12.81-75.09ZM437.05,476.04l45.78-15.96c2.69-.94,4.69-7.05,3.8-9.6-.77-2.19-6.65-4.47-9.15-3.6l-44.84,15.64c-2.82.99-5.16,6.56-4.44,8.9s6.13,5.58,8.85,4.63ZM913.7,468.37c2.55-.35,5.91-5.75,5.42-8.03s-5.21-6.13-7.9-5.78l-56.03,7.44c-3.72.49-7.96,4.6-7.54,7.85s5.11,6.92,8.33,6.48l57.73-7.96ZM481.86,521.21c3.28,1.35,9.1-1.92,9.21-4.82.08-2.29-2.03-7.36-4.62-8.47-8.72-3.71-60.06-23.1-58.37-5.88.21,2.16,3.64,6.15,5.89,6.44,16.69,2.1,32.24,6.26,47.9,12.73ZM894.31,569.24l-45.57-25.82c-2.33-1.32-8.74.54-9.53,2.94-.66,2,.11,8.08,2.4,9.38l45.7,25.82c2.28,1.29,8.82-1.26,9.39-3.62.47-1.97-.57-7.66-2.39-8.69Z"/>
    <path class="st9" d="M395.98,626.01c32.9-59.48-12.44-93.95.48-102.66,2.03-1.37,6.84-.9,9.3,1.12,20.93,17.16,42.29,31.06,67.63,41.21,11.11.76,20.97-5.74,26.88-15.98,26.49-45.93,36-100.26,30.03-153-42.06,10.76-78.88,27.05-115.1,48.52-1.92,1.14-7.84.01-9.25-1.67s-1.08-7.42.76-9.05c11.15-9.92,11.72-27.8-.71-38.28-15.55-13.12-30.72-7.66-33.45-14.93-3.03-8.07,18.6-24.73,23.23-53.67,2.86-17.88-5.59-36.89-22.86-41.27-3.14-.8-6.78-1.98-8.53-3s-1.53-6.54-.62-8.35c5.92-11.67,46.43,6.3,46.81,43.01.53,20.02-8.09,37.66-19.2,55.34,22.66,5.6,39.19,22.23,38.32,47.01,12.38-6.82,104.57-49.02,113.3-35.95,8.7,58.45-.46,121.81-30.9,173.12-9.4,15.84-26.74,26.06-43.86,20.86-17.91-5.44-32.51-15.72-49.57-25.6,6.06,27.98,4.04,54.09-9.43,78.55-1.28,2.32-6.17,4.19-8.93,4.16s-5.96-6.56-4.34-9.48Z"/>
    <path class="st9" d="M573.83,642.2c24.48-14.29,37.42-35.74,49.05-61.07,5.61-12.22,3.01-25.72-6.36-35.3-19.03-19.48-37.74-20.53-37.1-29.84.73-10.5,25.97-3.02,39.53-36.54,13.58-33.58-10.91-67.99-46.71-77.46-22.78-6.03,23.2-23.59,10.87-68.67-10.78-39.41-43.47-36.24-42.39-49.04,1.22-14.5,40.4,3.79,53.64,37.7,9.49,24.29,4.07,48.42-8.29,68.94,19.97,9.36,37.84,23.76,46.17,45.08,11.89,30.44.47,63.7-27.63,81.74,22.48,15.05,43.93,36.16,32.54,65.52-10.75,27.69-30.6,58.31-58.06,72.14-2.26,1.14-8.64-1.45-9.25-3.68-.8-2.94,1.1-7.83,3.99-9.52Z"/>
    <path class="st9" d="M704.42,600.44c-11.27-12.16,36.04-20.09,33.74-64.15-.9-17.28-13.54-31.17-31.13-30.58-3.72.13-7.98-3.99-7.81-7.49.13-2.75,4.07-6.39,7.6-7.07,18.77-3.64,32.47-19.58,33.98-37.15,1.64-18.98-10.82-37.02-29.42-43.08-2.7-.88-6.62-4.44-6.81-6.77-.2-2.33,2.82-6.58,5.27-8.04,20.96-12.44,31.29-37.82,24.46-60.67-6.69-22.36-28.45-38.21-53.32-37.63-3.07.07-7.43-3.16-7.97-5.45-4.59-19.41,66.48-9.11,76.61,46.42,4.42,24.25-5.97,46.55-22.52,63.32,16.62,10.48,26.36,27.3,27.79,44.44,1.64,19.74-7.38,36.95-24.52,50.27,16.21,11.53,24.17,29.2,21.75,49.45-3.89,32.66-38.93,63.65-47.71,54.19Z"/>
    <path class="st9" d="M248.65,637.33c-2.05,2.35-8.71,2.04-10.39.53-1.95-1.76-2.46-7.45-.29-9.92,24.09-27.39,39.59-58.58,48.36-94.1,23.66-95.88-11-189.83-64.63-268.92-1.78-2.62-1.03-7.96.82-9.72,1.97-1.88,8.66-1.54,10.37.94,53.67,77.99,88.25,171.36,70.32,266.81-8.04,42.78-25.47,81.08-54.55,114.38Z"/>
    <path class="st2" d="M807.65,546.33c-.87,4.77-4.48,7.94-7.47,7.94-3.74,0-7.62-4.4-6.77-8.97,11.1-59.93,14.25-119.13,9.27-180.08-.33-4.06,4.02-8,7.42-7.81,2.93.17,6.56,3.84,6.88,7.84,4.78,60.97,1.82,120.16-9.32,181.07Z"/>
    <path class="st2" d="M545.04,137.95c-.87,1.72-.27,5.84.29,7.68.67,2.22,7.01,4.41,8.68,2.56l7.46-8.61c34.14,3.98,67.46,9.08,101.89,17.96,3.07.79,5.78,6.12,5.26,8.66-.59,2.91-5.74,5.78-9.11,4.95-72.56-17.88-122.71-20.06-195.38-22.04l13.45-15.75c-.9.06,3.11,2.01,4.89,2.08l62.57,2.5Z"/>
    <path class="st2" d="M454.99,135.81c-3.03,2.6-4.38,10.08-3.92,13.67l-97.45,6.05,10.07-15.77,91.3-3.95Z"/>
    <path class="st3" d="M363.68,139.75l-10.07,15.77c-1.68,2.63-10.21,15.69-14.1,10.92l-4.04-4.95c1-6.15,4.26-12.04,7.73-17.67l33.21-53.83c1.5-2.44,8.39-3.22,10.41-1.34,1.73,1.61,2.4,7.24,1.21,9.28l-24.36,41.82Z"/>
    <path class="st3" d="M853.61,396.89c-3.83.38-8.88-.73-9.85-2.9s.44-8.27,2.74-9.58c20.19-11.52,41.05-21.1,62.97-28.95,2.37-.85,7.75,1.76,8.79,3.77,1.21,2.35-.93,8.36-3.65,9.36-21.71,8.01-40.09,16.25-60.99,28.3Z"/>
    <path class="st2" d="M401.14,447.1c2.18,15.44,4.84,77.21-12.81,75.09-2.57-.31-6.24-5.86-5.41-8.61,14.25-46.78-2.85-71.22,9.38-73,3.2-.47,8.33,2.9,8.84,6.52Z"/>
    <path class="st6" d="M913.7,468.37l-57.73,7.96c-3.22.44-7.9-3.14-8.33-6.48s3.82-7.36,7.54-7.85l56.03-7.44c2.69-.36,7.4,3.49,7.9,5.78s-2.86,7.68-5.42,8.03Z"/>
    <path class="st2" d="M343.21,143.82c-3.47,5.63-6.73,11.52-7.73,17.67-1.72-2.11-8.14-2.08-11.03-1.58l-43.53,7.52c-2.49.43-7.62-2.7-8.13-5.08s2.14-8.15,4.77-8.64c22.48-4.22,44.13-7.84,65.66-9.9Z"/>
    <path class="st3" d="M477.57,133.37l-13.45,15.75c-3.87,2.6-8.96,2.68-13.05.36-.46-3.59.89-11.07,3.92-13.67,25.94-22.23,25.42-48.11,38.47-42.31,10.66,4.74-14.29,38-15.88,39.87Z"/>
    <path class="st4" d="M894.31,569.24c1.82,1.03,2.86,6.72,2.39,8.69-.57,2.36-7.1,4.91-9.39,3.62l-45.7-25.82c-2.29-1.29-3.05-7.38-2.4-9.38.79-2.39,7.19-4.26,9.53-2.94l45.57,25.82Z"/>
    <path class="st4" d="M481.86,521.21c-15.66-6.47-31.2-10.63-47.9-12.73-2.25-.28-5.68-4.28-5.89-6.44-1.69-17.22,49.65,2.17,58.37,5.88,2.59,1.1,4.71,6.17,4.62,8.47-.11,2.9-5.93,6.17-9.21,4.82Z"/>
    <circle class="st1" cx="141.68" cy="373.15" r="16.61"/>
    <path class="st4" d="M437.05,476.04c-2.72.95-8.14-2.29-8.85-4.63s1.62-7.91,4.44-8.9l44.84-15.64c2.5-.87,8.38,1.41,9.15,3.6.89,2.55-1.11,8.66-3.8,9.6l-45.78,15.96Z"/>
    <path class="st4" d="M561.46,139.59l-7.46,8.61c-1.67,1.85-8-.35-8.68-2.56-.56-1.84-1.16-5.96-.29-7.68,6.32-12.5,33.22-49.33,41.45-36.79,7.07,10.79-20.39,20.29-25.02,38.43Z"/>
    <path class="st0" d="M173.99,417.01c-.61,2.33-6.92,4.61-9.03,3.87-2.46-.86-5.28-6-4.56-8.68l4.19-15.55c.68-2.52,5.77-5.05,8.08-4.87,2.69.21,6.32,6.16,5.57,9.01l-4.25,16.21Z"/>
    <path class="st0" d="M231.24,415.48c-.69,2.61-6.03,5.82-8.94,5.5-2.69-.3-6.04-6.33-5.22-9.17l4-13.83c.72-2.47,6.55-4.77,8.96-4.16s5.43,5.73,4.74,8.31l-3.54,13.35Z"/>
    <path class="st0" d="M197.94,413.66c-.82,2.44-8.14,4.16-10.18,2.67s-3.76-6.53-2.9-8.98l3.95-11.26c.82-2.35,6.62-4.84,9.04-4.16s5.36,6.05,4.56,8.43l-4.47,13.3Z"/>
  </g>
</svg>