<?xml version="1.0" encoding="UTF-8"?>
<svg id="_레이어_1" data-name="레이어_1" xmlns="http://www.w3.org/2000/svg" version="1.1" viewBox="0 0 383.49 383.24">
  <!-- Generator: Adobe Illustrator 30.1.0, SVG Export Plug-In . SVG Version: 2.1.1 Build 136)  -->
  <defs>
    <style>
      .st0 {
        fill: #de6275;
      }

      .st1 {
        fill: #bacd65;
      }

      .st2 {
        fill: #43404f;
      }

      .st3 {
        fill: #de6375;
      }

      .st4 {
        fill: #d66d43;
      }

      .st5 {
        fill: #bacc65;
      }

      .st6 {
        fill: #e49a70;
      }

      .st7 {
        fill: #4f4d5e;
      }

      .st8 {
        fill: #f0cb71;
      }

      .st9 {
        fill: #5d5a6e;
      }

      .st10 {
        fill: #504d5e;
      }

      .st11 {
        fill: #5b586d;
      }

      .st12 {
        fill: #e38999;
      }

      .st13 {
        fill: #db7f57;
      }

      .st14 {
        fill: #443f4f;
      }

      .st15 {
        fill: #453f4f;
      }

      .st16 {
        fill: #95caea;
      }
    </style>
  </defs>
  <g>
    <path class="st13" d="M360.02,255.94l.24,50.94c.09,19.86-15.58,34.99-34.86,35.79.02-16.7-10.18-31.72-25.71-37.85-12.52-4.94-26.68-3.36-37.81,4.23-11.12,7.59-17.76,20.19-17.73,33.66l-86.72-.21c-.03-18.23-8.86-35.49-22.67-46.06-15.74-12.04-35.56-15.5-53.83-9.19-9.93,3.43-20.03-1.7-22.18-11.59-2.27-10.45,5.41-19.76,16.47-19.76l284.79.05ZM149.33,275.9l-.04-8.7c-.01-3.51-2.74-5.82-5.72-5.84s-5.83,2.3-5.83,5.83v9.06c-.01,3.54,2.74,5.92,5.83,5.9s5.77-2.37,5.75-6.25ZM246.03,275.91l-.05-8.72c-.02-3.53-2.76-5.85-5.83-5.83s-5.72,2.33-5.72,5.84v9.04c-.01,3.51,2.72,5.91,5.72,5.91s5.9-2.32,5.88-6.24ZM199.85,272.64c-4.62,4.83-11.87,4.49-16.18-.17-2.36-2.55-6.07-2.83-8.46-.59s-2.54,5.78-.13,8.41c9.19,10.03,24.97,9.9,33.92-.42,2.32-2.67,1.49-6.48-.85-8.3-2.55-1.98-5.86-1.48-8.3,1.07Z"/>
    <path class="st4" d="M39.29,237.78l4.55.28,316.43.16-.26,17.72-284.79-.05c-11.06,0-18.73,9.31-16.47,19.76,2.14,9.89,12.24,15.03,22.18,11.59,18.26-6.31,38.09-2.85,53.83,9.19,13.81,10.57,22.64,27.83,22.67,46.06l-17.85.21c.04-16.87-10.35-32.01-26.11-38.04-12.5-4.78-26.55-3.1-37.57,4.49s-17.59,20.13-17.57,33.51c-19.23-.83-34.86-15.91-34.86-35.8v-68.63s15.82-.47,15.82-.47Z"/>
    <path class="st15" d="M199.85,272.64c2.44-2.55,5.75-3.04,8.3-1.07,2.34,1.82,3.17,5.62.85,8.3-8.95,10.32-24.72,10.45-33.92.42-2.41-2.63-2.2-6.22.13-8.41s6.1-1.96,8.46.59c4.31,4.65,11.56,4.99,16.18.17Z"/>
    <path class="st14" d="M149.33,275.9c.02,3.89-2.73,6.24-5.75,6.25s-5.84-2.36-5.84-5.9v-9.06c.01-3.52,2.78-5.85,5.84-5.83s5.7,2.33,5.72,5.84l.04,8.7Z"/>
    <path class="st14" d="M246.03,275.91c.02,3.92-2.75,6.25-5.88,6.24s-5.73-2.4-5.72-5.91v-9.04c.01-3.51,2.76-5.82,5.73-5.84s5.81,2.3,5.83,5.83l.05,8.72Z"/>
    <g>
      <path class="st10" d="M299.69,304.82c-11.93,5.71-21.12,15.6-23.98,28.98l.51.8c-3.49,4.49-4.58,11.64.03,16.49l-.44.57c2.78,13.26,11.86,22.26,23.23,28.99-12.46,4.67-26.41,2.94-37.36-4.63-10.94-7.57-17.49-20.01-17.52-33.32s6.61-26.07,17.73-33.66c11.12-7.59,25.28-9.17,37.81-4.23Z"/>
      <path class="st11" d="M325.4,342.67c-.02,16.92-10.53,32.05-26.38,37.99-11.37-6.73-20.45-15.74-23.23-28.99l.44-.57c4.39,4.62,12.41,4.09,16.66-.11,4.41-4.36,4.7-11.35.28-16.16s-11.69-4.9-16.96-.22l-.51-.8c2.86-13.38,12.05-23.27,23.98-28.98,15.54,6.13,25.74,21.15,25.71,37.85Z"/>
      <path class="st2" d="M276.24,351.1c-4.61-4.85-3.52-12.01-.03-16.49,5.27-4.68,12.66-4.45,16.96.22s4.13,11.8-.28,16.16c-4.25,4.2-12.27,4.74-16.66.11Z"/>
    </g>
    <g>
      <path class="st10" d="M113.48,304.67c-11.71,6.45-21.82,16.49-23.11,30.07-4.2,4.58-4.04,11.67.38,16.05-.15.13-.43.56-.75.99,2.51,11.65,10.61,21.58,20.94,26.91.6.31,1.54,1.41,1.81,2.13-12.44,4.49-26.28,2.64-37.11-4.95-10.83-7.59-17.28-19.98-17.3-33.2-.02-13.38,6.55-25.92,17.57-33.51s25.07-9.27,37.57-4.49Z"/>
      <path class="st11" d="M139.58,342.71c-.04,17.09-10.77,32.32-26.84,38.12-.27-.72-1.21-1.82-1.81-2.13-10.32-5.33-18.43-15.26-20.94-26.91.32-.44.59-.87.75-.99,3.36,3.33,8.4,4.28,12.74,2.41s7.11-6.19,7-10.91-3.08-8.91-7.51-10.57-9.41-.47-12.61,3.02c1.29-13.58,11.4-23.62,23.11-30.07,15.76,6.03,26.15,21.17,26.11,38.04Z"/>
      <circle class="st2" cx="98.9" cy="342.57" r="11.58"/>
    </g>
    <g>
      <path class="st6" d="M81.68,197.3h92.83s51.78.09,51.78.09l58.39.07,58.26-.17h23.21c8.41,0,14.92,5.05,17.34,13.05v14.97c-2.56,7.69-8.54,12.68-17.24,12.82l-5.97.09-316.43-.16-4.55-.28c.13.05-.73-1.2-1.2-1.43-4.65-2.26-9.25-8.54-8.88-14.72.73-12.29-1.9-16.21,11.59-24.22l40.89-.11Z"/>
      <path class="st13" d="M17.59,197.29l23.21.12c-13.48,8.01-10.86,11.93-11.59,24.22-.37,6.18,4.23,12.46,8.88,14.72.47.23,1.33,1.48,1.2,1.43l-15.82.47c-2.66.08-6.06-.1-8.84-.36-10.56-.97-15.25-10.42-14.57-20.04.4-5.67.1-10.68,4.2-15.03,3.29-3.49,8.09-5.55,13.32-5.52Z"/>
    </g>
  </g>
  <g>
    <g>
      <path class="st9" d="M40.71,117.49l.09,79.92-23.21-.12.2-90.97c7.14,4.84,14.4,9.42,22.92,11.17Z"/>
      <path class="st7" d="M18.92,75.04c3.17,10.68,11.01,20.48,21.92,24.39l-.13,18.07c-8.52-1.75-15.78-6.32-22.92-11.17l-.16-31.33,1.29.04Z"/>
      <path class="st9" d="M365.94,106.34l.21,90.96h-23.21l.09-79.8c8.53-1.71,15.77-6.33,22.91-11.16Z"/>
      <path class="st7" d="M366.11,75l-.17,31.33c-7.15,4.83-14.38,9.45-22.91,11.16l-.13-18.07c10.91-3.9,18.76-13.7,21.92-24.39l1.29-.03Z"/>
    </g>
    <g>
      <path class="st3" d="M227.05,0l-.48,70.36c-.12,17.69-18.25,30.83-35.06,30.64-16.47-.18-34.22-13.23-34.34-30.64l-.48-70.36h70.36Z"/>
      <path class="st8" d="M296.66,0l-.21,69.61c-2.4,17.67-16.54,31.22-34.56,31.39-18.09.16-32.16-13.02-35.33-30.64l.48-70.36h69.61Z"/>
      <path class="st8" d="M156.69,0l.48,70.36c-3.19,17.62-17.21,30.83-35.32,30.64s-32.17-13.72-34.56-31.39l-.21-69.61h69.61Z"/>
      <path class="st0" d="M335.59,0c17.93,4.09,30.5,18.34,30.54,37.43l.07,32.93-1.38,4.67c-3.16,10.69-11.01,20.49-21.92,24.39-10.23,3.66-22.29,1.67-31.51-4.73-7.31-5.07-14.97-14.94-14.94-25.08l.21-69.61h38.92Z"/>
      <path class="st0" d="M87.07,0l.21,69.61c.03,10.29-7.85,20.31-15.25,25.31-9.27,6.26-21.14,8.11-31.2,4.5-10.91-3.91-18.75-13.71-21.92-24.39l-1.39-4.68.04-32.17c.02-19.39,12.31-34.02,30.58-38.2h38.92Z"/>
      <polygon class="st9" points="18.92 75.04 17.63 75 17.53 70.36 18.92 75.04"/>
      <polygon class="st9" points="366.11 75 364.82 75.03 366.2 70.36 366.11 75"/>
    </g>
    <g>
      <path class="st16" d="M254.74,168.25l31.44.34c6.06,2.31,10.2,7.21,10.3,14.04.1,7.6-4.72,13.24-11.79,14.83l-58.39-.07c-6.78-1.84-11.43-7.26-11.3-14.78s5.63-14.06,13.53-14.13l26.22-.23Z"/>
      <path class="st1" d="M286.18,168.59l-31.44-.34c-6.56-2.16-10.91-7.47-10.69-14.88s5.79-13.97,13.71-13.98l41.89-.04c8.45,0,14.41,6.52,14.24,14.88-.16,7.59-5.59,13.97-13.48,14.11l-14.22.25Z"/>
      <g>
        <path class="st16" d="M104.88,162.43l9.89.11c6.89.08,11.54,4.19,13.27,10.37l.07,24.39h-46.42l-.16-22.13c-.05-7.42,5.82-12.56,12.99-12.63l10.37-.1Z"/>
        <path class="st5" d="M151.27,162.49l9.94.02c7.37.02,13.19,5.13,13.22,12.66l.09,22.12h-46.42s-.07-24.38-.07-24.38c1.34-6.06,6.3-10.36,12.9-10.38l10.33-.04Z"/>
        <g>
          <path class="st0" d="M151.08,144.61l.19,17.88-10.33.04c-6.6.03-11.56,4.32-12.9,10.38-1.72-6.18-6.37-10.29-13.27-10.37l-9.89-.11.12-17.93c4.91.53,10.54-.28,15.57.89,5.62,1.31,9.65,1.12,15.29-.07,4.92-1.04,10.44-.36,15.22-.71Z"/>
          <path class="st12" d="M151.08,144.61c-4.79.35-10.3-.33-15.22.71-5.64,1.19-9.68,1.39-15.29.07-5.02-1.17-10.66-.36-15.57-.89-1.45-7.23,2.12-15.93,10.55-16.46s16.69-.47,24.52-.05c9.49.51,10.93,9.08,11.01,16.61Z"/>
        </g>
      </g>
    </g>
  </g>
</svg>