<?xml version="1.0" encoding="UTF-8"?>
<svg id="_레이어_1" data-name="레이어_1" xmlns="http://www.w3.org/2000/svg" version="1.1" viewBox="0 0 1005 933.01">
  <!-- Generator: Adobe Illustrator 30.1.0, SVG Export Plug-In . SVG Version: 2.1.1 Build 136)  -->
  <defs>
    <style>
      .st0 {
        fill: #341c0b;
      }

      .st1 {
        fill: #f2df9f;
      }

      .st2 {
        fill: #ffb28a;
      }

      .st3 {
        fill: #372010;
      }

      .st4 {
        fill: #f2de9e;
      }

      .st5 {
        fill: #ffb189;
      }

      .st6 {
        fill: #371f0f;
      }

      .st7 {
        fill: #3a1c0f;
      }

      .st8 {
        fill: #ffb088;
      }

      .st9 {
        fill: #351c0c;
      }

      .st10 {
        fill: #7c6860;
      }

      .st11 {
        fill: #ffb18a;
      }

      .st12 {
        fill: #f2de9f;
      }

      .st13 {
        fill: #382010;
      }

      .st14 {
        fill: #fff8ee;
      }
    </style>
  </defs>
  <path class="st10" d="M-36.14,2688.2l-4-10v-39.98l4-11.99-1.73,25.99c-.78,11.69,1.26,23.55,1.73,35.98Z"/>
  <g>
    <path class="st7" d="M1.9,574.9c-.47-12.43-2.51-24.3-1.73-35.98l1.73-25.99C14.44,324.59,150.21,171.14,327.97,119.8c-2.22-22.23,1.54-43.11,14.02-59.97,16.17-21.85,43.21-27.43,66.5-13.69,11.22,7.14,20.02,16.36,29.18,27.52,7.45-24.9,19.04-46.21,38.33-61.74,19.87-16,45.26-15.89,65.09.3,14.37,11.72,23.57,27.5,30.4,46.1,9.86-12.45,20.04-22.14,33.51-27.45,27.57-10.88,55.68,1.45,66.29,29.09,6.74,17.57,6.28,36.23,3.06,55.14,25.1,9.04,48.96,16.96,73.17,27.95,60.97,27.67,114.93,66.53,158.93,117.2,123.03,141.65,134.41,345.4,14.11,493.65-142.53,175.64-387.27,210.82-596.02,154.23-41.73-11.31-79.49-27.3-116.04-50.08-45.65-28.45-86.64-61.22-124.39-99.33C34.54,708.66,5.03,644.22,1.9,574.9ZM903.29,750.63c120.18-141.81,112.24-340.88-7.92-479.62-44.51-51.39-99.66-90.46-162.05-117.38-23.7-10.23-46.09-17.57-70.56-25.82-14.84-5,7.73-24.86-5.7-61.86-7.52-20.72-28.72-29.21-48.88-19.63-29.17,13.85-28.53,42.39-41.66,41.13-11-1.06-2.07-32.91-33.19-61.6-16-14.75-36.28-13.32-51.85,1.56-35.26,33.7-27.12,72.79-38.97,74.4-11.26,1.53-11.73-20.85-39.06-40.46-17.18-12.33-38.87-8.43-50.33,9.4-22.15,34.45.36,58.13-15.75,62.58-69.22,19.12-132.05,53.69-185.02,102.22C56.91,322.99,6.17,450.17,17.03,579.15c5.44,64.65,31.91,121.59,77.01,167.65,35.44,36.19,74.17,67.14,116.89,94.55,34.21,21.95,69.51,38.09,108.95,49.38,201.97,57.83,441.35,27.54,583.41-140.09Z"/>
    <path class="st14" d="M903.29,750.63c-142.06,167.62-381.45,197.91-583.41,140.09-39.44-11.29-74.74-27.43-108.95-49.38-42.72-27.41-81.45-58.36-116.89-94.55-45.1-46.05-71.57-103-77.01-167.65C6.17,450.17,56.91,322.99,152.35,235.54c52.97-48.53,115.8-83.1,185.02-102.22,16.11-4.45-6.4-28.14,15.75-62.58,11.47-17.83,33.15-21.73,50.33-9.4,27.33,19.61,27.8,41.99,39.06,40.46,11.85-1.61,3.71-40.7,38.97-74.4,15.57-14.88,35.84-16.31,51.85-1.56,31.12,28.69,22.19,60.54,33.19,61.6,13.13,1.26,12.49-27.27,41.66-41.13,20.17-9.58,41.36-1.09,48.88,19.63,13.43,37-9.14,56.86,5.7,61.86,24.47,8.25,46.86,15.59,70.56,25.82,62.39,26.92,117.54,65.99,162.05,117.38,120.16,138.74,128.1,337.81,7.92,479.62ZM394.73,229.27l35.86-67.69c1.33-2.51-.34-8.79-2.75-9.88s-8.53.56-9.83,3.01l-36.4,68.69c-1.69,3.18-.11,8.88,2.58,10.23,3.39,1.7,8.33-.21,10.53-4.36ZM527.03,230.07l5.29-69.49c.24-3.2-4.57-7.6-7.57-7.32-2.61.25-6.56,4.31-6.79,7.44l-5.14,68.85c-.22,3,4.86,7.59,7.53,7.32,2.24-.23,6.47-4.06,6.68-6.8ZM620.09,154.49c-1.95-2.04-9.27-1.39-10.68.92-1.22,1.99-1.04,7.38.95,9.49,14.26,15.13,26.27,33.48,33.55,54.11,1.12,3.17,5.77,6.12,8.39,5.68,19.8-3.28-20.68-58.12-32.2-70.21ZM600.31,378.17c2.09.92,7.09-.28,7.66-2.27,2.61-9.02-12.01-13.5-20.8-16.64-2.49-.89-8.42,2.49-8.27,4.93.12,2.03,2.87,5.82,4.91,6.72l16.5,7.27ZM453.04,382.27l17.24-7.31c2.06-.87,4.9-4.38,4.62-6.4-1.45-10.51-21.81-.72-28.7,4.4-1.76,1.31-2.6,6.73-1.4,8.32,1.2,1.58,6.08,1.91,8.23.99ZM940.51,423.52l-5.03-30.5c-.43-2.58-5.97-5.93-8.35-5.16s-5.67,5.82-5.26,8.55l4.61,30.55c.44,2.92,6.35,6.16,9.03,5.31,2.32-.74,5.44-6.08,5-8.74ZM461.23,428.28l23.49-2.55c2.77-.3,6.78-4.71,6.6-7.56-.16-2.55-4.46-6.89-7.36-6.59l-25.3,2.6c-2.95.3-6.24,6.68-5.24,9.17.85,2.13,5.49,5.19,7.82,4.94ZM593.85,430.13c3.1.63,8.3-3.47,8.28-6.27-.07-9.94-20.38-10.97-30.68-12.41-2.44-.34-7.07,4.36-6.99,6.8s3.99,6.68,6.41,7.17l22.97,4.7ZM959.88,420.47c-.85-2.94-8.32-4.7-10.39-3.03-1.75,1.41-2.86,5.4-2.64,7.93l1.58,18.39c.27,3.15,2.95,6.64,6.11,7.18,11.75,2,7.84-21.84,5.34-30.46ZM396.03,467.52v-19.2c.01-3.53-3.86-7.81-7.36-7.8-3.24.01-7.37,4.42-7.34,7.75l.25,21.42c.03,2.99,6,6.65,9.14,5.78,2.36-.65,5.31-5.29,5.31-7.96ZM424.79,451.39c.36-2.96-2.04-9.53-4.39-10.33-1.97-.67-6.48-.12-7.96,1.33-3.04,2.97-5.01,20.46,2.32,23.18,2.89,1.07,8.36-.36,8.65-2.73l1.39-11.44ZM373.01,471.04l.02-22.38c0-3.04-5.7-6.98-8.46-6.3-2.4.59-5.91,5.52-5.88,8.1l.24,20.94c.03,2.5,5.05,6.52,7.44,6.29,2.4-.23,6.64-4.03,6.64-6.64ZM627.81,469.23c1.79-7.01,8.43-23.5-1.08-24.68-2.44-.3-8.07,2.23-8.76,5.04l-3.93,15.97c-.63,2.56,2.33,7.37,4.67,8.02s8.46-1.87,9.1-4.34ZM651.41,466.58l4.74-13.76c.7-2.04-1.86-7.39-3.92-8.02s-7.8.25-8.68,2.13c-2.71,5.77-8.79,18.06-2.17,22.02,2.09,1.25,9.21.02,10.03-2.37ZM684.89,468.23l3.43-12.76c.72-2.69-1.76-8.04-4.31-8.87-2.92-.95-8.83,1.93-9.59,4.6l-3.75,13.27c-.74,2.61,1.85,8,4.38,8.93,2.84,1.04,9.05-2.29,9.83-5.18ZM502.42,458.45c-2.11-1.52-7.87-.8-9.4,1.01-1.53,1.81-1.38,8.11.83,9.96,28.16,23.57,69.43,3.92,61.9-8.3-7.45-12.08-23,19.19-53.33-2.66ZM106.74,703.23c-9.25-16.54-15.46-29.89-20.89-46.98-1.11-3.48-5.97-6.17-8.83-5.63-15.07,2.82,13.3,52.53,18.2,60.42,1.62,2.6,8.75,2.85,10.5,1.04,1.46-1.51,2.21-6.73,1.03-8.85ZM116.08,658.21c-.99-3.26-5.51-6.12-8.78-5.51-14.65,2.74,9.58,43.97,14.89,52.09,1.59,2.43,8.4,2.63,10.73.42,6.05-5.76-8.4-19.29-16.84-46.99Z"/>
    <path class="st0" d="M394.73,229.27c-2.2,4.15-7.15,6.06-10.53,4.36-2.69-1.35-4.27-7.05-2.58-10.23l36.4-68.69c1.3-2.45,7.34-4.14,9.83-3.01s4.08,7.36,2.75,9.88l-35.86,67.69Z"/>
    <path class="st0" d="M527.03,230.07c-.21,2.75-4.44,6.57-6.68,6.8-2.67.27-7.75-4.31-7.53-7.32l5.14-68.85c.23-3.13,4.18-7.2,6.79-7.44,3-.28,7.81,4.12,7.57,7.32l-5.29,69.49Z"/>
    <path class="st0" d="M620.09,154.49c11.52,12.09,52,66.93,32.2,70.21-2.62.43-7.27-2.51-8.39-5.68-7.27-20.63-19.28-38.98-33.55-54.11-1.99-2.11-2.17-7.5-.95-9.49,1.42-2.32,8.74-2.97,10.68-.92Z"/>
    <path class="st9" d="M502.42,458.45c30.33,21.86,45.88-9.41,53.33,2.66,7.54,12.22-33.74,31.87-61.9,8.3-2.21-1.85-2.36-8.15-.83-9.96,1.53-1.81,7.28-2.53,9.4-1.01Z"/>
    <path class="st4" d="M106.74,703.23c1.18,2.12.43,7.34-1.03,8.85-1.75,1.81-8.88,1.56-10.5-1.04-4.9-7.88-33.27-57.6-18.2-60.42,2.86-.54,7.73,2.16,8.83,5.63,5.43,17.09,11.64,30.44,20.89,46.98Z"/>
    <path class="st4" d="M116.08,658.21c8.44,27.7,22.89,41.23,16.84,46.99-2.32,2.21-9.14,2.01-10.73-.42-5.31-8.12-29.54-49.35-14.89-52.09,3.27-.61,7.78,2.25,8.78,5.51Z"/>
    <path class="st12" d="M940.51,423.52c.44,2.66-2.68,8.01-5,8.74-2.68.85-8.59-2.39-9.03-5.31l-4.61-30.55c-.41-2.73,2.87-7.77,5.26-8.55s7.93,2.57,8.35,5.16l5.03,30.5Z"/>
    <path class="st6" d="M461.23,428.28c-2.33.25-6.96-2.81-7.82-4.94-1-2.49,2.29-8.87,5.24-9.17l25.3-2.6c2.9-.3,7.2,4.04,7.36,6.59.18,2.85-3.83,7.26-6.6,7.56l-23.49,2.55Z"/>
    <path class="st13" d="M593.85,430.13l-22.97-4.7c-2.42-.5-6.33-4.73-6.41-7.17s4.54-7.15,6.99-6.8c10.3,1.44,30.61,2.47,30.68,12.41.02,2.8-5.19,6.9-8.28,6.27Z"/>
    <path class="st1" d="M959.88,420.47c2.5,8.63,6.41,32.47-5.34,30.46-3.16-.54-5.84-4.03-6.11-7.18l-1.58-18.39c-.22-2.54.89-6.53,2.64-7.93,2.07-1.66,9.54.09,10.39,3.03Z"/>
    <path class="st5" d="M396.03,467.52c0,2.66-2.95,7.3-5.31,7.96-3.14.87-9.1-2.79-9.14-5.78l-.25-21.42c-.04-3.33,4.1-7.74,7.34-7.75,3.5-.02,7.37,4.27,7.37,7.8v19.2Z"/>
    <path class="st11" d="M373.01,471.04c0,2.62-4.24,6.42-6.64,6.64-2.4.23-7.42-3.8-7.44-6.29l-.24-20.94c-.03-2.58,3.48-7.51,5.88-8.1,2.76-.68,8.46,3.26,8.46,6.3l-.02,22.38Z"/>
    <path class="st11" d="M627.81,469.23c-.63,2.48-6.75,4.99-9.1,4.34s-5.3-5.46-4.67-8.02l3.93-15.97c.69-2.81,6.33-5.34,8.76-5.04,9.51,1.18,2.87,17.67,1.08,24.68Z"/>
    <path class="st3" d="M453.04,382.27c-2.16.91-7.04.59-8.23-.99-1.2-1.59-.36-7.01,1.4-8.32,6.89-5.13,27.25-14.91,28.7-4.4.28,2.03-2.56,5.53-4.62,6.4l-17.24,7.31Z"/>
    <path class="st13" d="M600.31,378.17l-16.5-7.27c-2.04-.9-4.79-4.68-4.91-6.72-.15-2.44,5.79-5.82,8.27-4.93,8.79,3.15,23.42,7.63,20.8,16.64-.58,1.99-5.57,3.19-7.66,2.27Z"/>
    <path class="st8" d="M684.89,468.23c-.78,2.89-6.99,6.22-9.83,5.18-2.54-.93-5.12-6.32-4.38-8.93l3.75-13.27c.75-2.67,6.66-5.55,9.59-4.6,2.56.83,5.04,6.17,4.31,8.87l-3.43,12.76Z"/>
    <path class="st11" d="M651.41,466.58c-.82,2.39-7.94,3.62-10.03,2.37-6.62-3.95-.54-16.25,2.17-22.02.89-1.88,6.62-2.76,8.68-2.13s4.63,5.98,3.92,8.02l-4.74,13.76Z"/>
    <path class="st2" d="M424.79,451.39l-1.39,11.44c-.29,2.37-5.76,3.8-8.65,2.73-7.32-2.71-5.36-20.21-2.32-23.18,1.48-1.45,5.99-2,7.96-1.33,2.35.81,4.75,7.37,4.39,10.33Z"/>
  </g>
</svg>