<?xml version="1.0" encoding="UTF-8"?>
<svg id="_레이어_1" data-name="레이어_1" xmlns="http://www.w3.org/2000/svg" version="1.1" viewBox="0 0 927.13 967.88">
  <!-- Generator: Adobe Illustrator 30.1.0, SVG Export Plug-In . SVG Version: 2.1.1 Build 136)  -->
  <defs>
    <style>
      .st0 {
        fill: #f7f1c3;
      }

      .st1 {
        fill: #f9f5c5;
      }

      .st2 {
        fill: #f8f3c4;
      }

      .st3 {
        fill: #f9f6c6;
      }

      .st4 {
        fill: #7c685f;
      }

      .st5 {
        fill: #351b0a;
      }

      .st6 {
        fill: #bc7a3f;
      }

      .st7 {
        fill: #c1b8b4;
      }

      .st8 {
        fill: #341a09;
      }

      .st9 {
        fill: #fce1b6;
      }

      .st10 {
        fill: #371d0a;
      }

      .st11 {
        fill: #3a1c0f;
      }

      .st12 {
        fill: #efd641;
      }

      .st13 {
        fill: #361c0a;
      }

      .st14 {
        fill: #f8f4c5;
      }

      .st15 {
        fill: #c5bcb9;
      }

      .st16 {
        fill: #f7f3c4;
      }

      .st17 {
        fill: #7c6860;
      }

      .st18 {
        fill: #996031;
      }

      .st19 {
        fill: #371d0b;
      }
    </style>
  </defs>
  <path class="st17" d="M-36.88,3440.32l-4-10v-39.98l4-11.99-1.73,25.99c-.78,11.69,1.26,23.55,1.73,35.98Z"/>
  <g>
    <rect class="st4" x="444.85" width="37.98" height="2"/>
    <rect class="st15" x="430.86" width="13.99" height="2"/>
    <path class="st7" d="M494.83,0v2c-3.49-.28-8.36,0-11.99,0V0h11.99Z"/>
    <path class="st11" d="M430.86,2h51.97c3.63,0,8.5-.28,11.99,0,32.14,2.55,62.48,7.65,92.48,15.11,18.99,4.72,29.65,20.46,31.41,38.96,1.7,17.93,4.82,35.19,12.23,50.98,9.29,19.83,27.97,31.33,50.04,28.44l59.46-7.8c31.75-4.17,59.7,14.13,66.73,45.69,6.94,31.14,1.27,62.78,15.03,96.74,8.29-11.53,19.38-14.75,31.48-11.33,21.25,6.01,31.99,21.8,36.59,42.19,5.1,6.7,14.18,15.58,16.09,25.28l9.87,50.11c16.53,83.91,14.96,169.33-9.57,251.55-29.49,98.85-88.72,185.21-169.75,247.23-157.67,120.67-375.05,123.97-536.13,7.56-81.3-58.76-142.45-142.02-174.67-238.18C-40.29,446.33,22.14,223.85,188.32,95.43,259.01,40.79,342.97,8.58,430.86,2ZM804.44,427.25c20.88-43.73-19.43-52.32.47-99.55l14.28-33.9c-11.79-15.83-18.48-32.73-20.3-52.36l-5.4-58.17c-2.51-27.03-25.16-43.81-51.69-40.29l-58.48,7.76c-28.49,3.78-53.04-10.36-65.65-35.81-8.89-17.95-12.12-37.36-14.32-57.47-3.02-27.68-25.38-26.49-45.22-30.91C425.8-2.89,288.91,31.39,184.84,118.13c-228.9,190.78-225.08,553.1,7.79,738.92,156.02,124.5,374.11,127.64,533.32,6.87,87.58-66.44,149.12-162.47,173.93-270.97,16.72-73.12,15.39-146.94-.03-220.07-3.88-18.42-4.09-35.92-13.54-52.97-9.09,20.89-14.07,28.3.58,43.33,13.09,13.44,15.13,32.05,4.6,47.41l-15.56,22.7c-10.34,15.09,16.59,41.96-6.44,66.02-8.51,8.88-22.55,13.94-36.93,10.56-33.13-7.78-44.22-48.93-28.11-82.68ZM860.72,429.63c11.25-22.64,34.92-37.08,13.53-57.58-9.75-9.34-15.32-22.16-10.72-35.57l7.62-22.21c6.01-17.53-1.78-33.59-19.57-40.05-3.13-1.14-9.27-1.89-11.73-.25-2.15,1.43-3.96,7.08-4.26,10.3-3.98,41.78-32.53,53.39-15.35,91.82,19.94,44.6-16.15,59.54-6.08,95.85,3.11,11.21,11.25,20.88,22.69,23.24,8.51,1.76,17.24-1.45,22.51-7.6,12.91-15.06-8.77-37.58,1.35-57.95Z"/>
    <path class="st9" d="M804.44,427.25c-16.11,33.75-5.03,74.9,28.11,82.68,14.38,3.38,28.42-1.68,36.93-10.56,23.04-24.05-3.9-50.93,6.44-66.02l15.56-22.7c10.53-15.36,8.49-33.97-4.6-47.41-14.65-15.04-9.67-22.45-.58-43.33,9.45,17.04,9.66,34.55,13.54,52.97,15.42,73.13,16.76,146.94.03,220.07-24.81,108.5-86.35,204.53-173.93,270.97-159.21,120.78-377.3,117.63-533.32-6.87C-40.24,671.24-44.06,308.92,184.84,118.13,288.91,31.39,425.8-2.89,558.12,26.56c19.85,4.42,42.2,3.23,45.22,30.91,2.19,20.11,5.42,39.52,14.32,57.47,12.61,25.45,37.16,39.59,65.65,35.81l58.48-7.76c26.53-3.52,49.19,13.25,51.69,40.29l5.4,58.17c1.82,19.63,8.51,36.53,20.3,52.36l-14.28,33.9c-19.9,47.23,20.41,55.82-.47,99.55ZM670.07,749.29c159.65-136.1,160.95-387.87,4.18-526.17-118.8-104.8-294.57-106.86-415.62-4.66-157.63,133.09-163.32,379.92-12.4,520.93,118.56,110.77,299.69,115.72,423.84,9.89Z"/>
    <g>
      <path class="st12" d="M860.72,429.63c-10.12,20.37,11.56,42.88-1.35,57.95-5.28,6.16-14,9.36-22.51,7.6-11.44-2.36-19.58-12.03-22.69-23.24-10.07-36.31,26.02-51.25,6.08-95.85-17.18-38.43,11.37-50.04,15.35-91.82.31-3.22,2.11-8.87,4.26-10.3,2.46-1.64,8.6-.88,11.73.25,17.79,6.46,25.59,22.52,19.57,40.05l-7.62,22.21c-4.6,13.41.97,26.23,10.72,35.57,21.39,20.49-2.28,34.94-13.53,57.58ZM855.94,284.86c-1.65-1.24-7.48-1.22-8.95.19s-1.97,5.79-1.18,7.73l6.46,15.92c1.17,2.89,8.03,3.89,9.94,1.75,5.71-6.39.75-20.3-6.27-25.59ZM852.67,444.01c-3.19-13.28.85-22.94,9.91-32.05,9.02-9.07,14.55-22.32,8.45-34.14-1.95-3.78-7.19-6.17-10.44-4.65-2.71,1.27-4,6.47-2.73,9.76,8.06,20.91-28.95,23.95-18.78,64.78,5.63,22.62-8.52,33.35,2.83,35.97,13.73,3.17,14.4-24.59,10.77-39.68Z"/>
      <path class="st3" d="M852.67,444.01c3.62,15.08,2.96,42.85-10.77,39.68-11.35-2.62,2.8-13.36-2.83-35.97-10.17-40.83,26.84-43.87,18.78-64.78-1.27-3.29.03-8.49,2.73-9.76,3.25-1.52,8.49.87,10.44,4.65,6.1,11.82.57,25.07-8.45,34.14-9.06,9.11-13.1,18.77-9.91,32.05Z"/>
      <path class="st1" d="M855.94,284.86c7.02,5.28,11.98,19.19,6.27,25.59-1.91,2.14-8.77,1.14-9.94-1.75l-6.46-15.92c-.79-1.95-.29-6.33,1.18-7.73s7.3-1.43,8.95-.19Z"/>
    </g>
    <g>
      <path class="st6" d="M670.07,749.29c-124.15,105.83-305.28,100.87-423.84-9.89-150.92-141.01-145.24-387.84,12.4-520.93,121.05-102.2,296.82-100.14,415.62,4.66,156.77,138.29,155.47,390.07-4.18,526.17ZM261.74,299.72c12.14-17.4,25.73-32.64,40.08-46.43,2.01-1.93.97-8.92-1.16-10.07-1.79-.97-6.93-1.24-8.51.17-15.62,13.94-29.68,30.38-41.58,47.86-1.52,2.24-.63,7.79,1.07,9.43s8.51,1.33,10.1-.95ZM235.02,293.34l30.12-33.55c1.86-2.08,1.1-8.48-.96-10-1.77-1.3-7.74-1.5-9.26.19l-31.07,34.64c-1.55,1.72-.41,8.46,1.58,9.64s7.97.9,9.6-.92ZM558.97,407.37c2.09.89,7.35-.68,7.71-2.68,2.44-13.68-31.86-24.28-32.36-13.68-.13,2.72,2.51,6.97,4.93,8l19.73,8.36ZM392.01,412.72c12.73-9.3,25.89-6.42,25.56-15.9-.42-12.18-23.42-1.8-32.35,4.86-2.13,1.59-2.64,8.17-.8,9.53,1.54,1.13,5.76,1.78,7.58,1.51ZM422.3,454.03c2.36,1.06,8.25-3.03,8.13-5.22-.1-1.82-1.64-6.28-3.31-7.03l-16.57-7.46c-1.98-.89-7.25,1.07-7.87,3.05s.49,8.05,2.48,8.94l17.14,7.72ZM534.15,454.11l14.26-5.23c2.39-.88,5.7-4.93,5.43-7.37-1.15-10.3-19.22-3.21-27.01,1.94-2.1,1.39-2.46,8.17-.69,9.66,1.47,1.24,5.82,1.81,8.01,1ZM353.37,475.65l-.14-18.61c-.02-3.19-5.87-7.42-9.07-6.95-2.57.38-6.93,4.78-6.91,7.42l.09,18.65c.01,2.94,5.38,7.37,8.29,7.19,2.55-.16,7.77-4.9,7.75-7.71ZM590.69,477.67l6.46-15.93c1.25-3.08-.01-8.89-2.65-10.51-10.59-6.49-18.07,14.25-18.91,24.29-.22,2.65,4.12,7.41,6.6,7.7s7.46-2.98,8.51-5.56ZM617.44,478.66l7.91-14.79c1.5-2.8-.58-9.15-3.13-10.49-2.69-1.42-9.37.1-10.75,2.6l-9.16,16.57c-1.68,3.04,2.01,10.18,5.47,10.76,2.69.45,8.33-2.17,9.65-4.64ZM647.55,463.54c.82-2.54-3.65-8.53-6.22-8.97s-8.1,1.72-8.97,4.32l-5.15,15.3c-.83,2.47,2.85,8,5.26,8.82,9.36,3.16,12.42-11.23,15.09-19.47ZM380.74,465.4c.4-2.87-3.02-8.08-5.51-8.76s-8.57,1.77-9.41,4.36c-2.74,8.38-7.27,27.67,4.17,28.64,9.38.79,8.92-11.04,10.75-24.24ZM327.31,469.21l-6.18-10.22c-1.09-1.81-7.85.65-8.65,2.76-2.34,6.19,1.92,17.38,9.34,21,2.39,1.16,8.6-1.85,8.48-4.35-.1-2.14-1.62-6.93-2.99-9.19ZM483.56,535.3c37.07-3.48,54.68-45.7,40.38-46.56-2.17-.13-6.9,2.51-7.62,4.8-4.96,15.81-19.22,27.74-34.64,28.6-36.54,2.03-36.29-33-48.22-27.24-12.35,5.96,12.71,43.91,50.1,40.4ZM616.35,704.87l29.2-22.85c2.15-1.68,2.81-7.58,1.4-9.79-1.22-1.9-7.71-3.19-9.9-1.47l-31.07,24.38c-2.09,1.64-1.66,8.79.59,10.08,1.88,1.08,7.94,1.09,9.78-.35ZM663.21,710.65c1.86-2.29,1.15-8.32-.77-9.84-1.59-1.25-7.69-1.5-9.35.41-10.39,11.92-25.04,26.12-38.95,35.53-3.2,2.16-3.82,8.09-2.08,10.3,8.97,11.42,44.97-28.75,51.15-36.4Z"/>
      <path class="st8" d="M483.56,535.3c-37.4,3.51-62.45-34.45-50.1-40.4,11.93-5.75,11.68,29.27,48.22,27.24,15.43-.86,29.68-12.79,34.64-28.6.72-2.29,5.45-4.93,7.62-4.8,14.3.85-3.31,43.08-40.38,46.56Z"/>
      <path class="st18" d="M261.74,299.72c-1.59,2.28-8.4,2.6-10.1.95s-2.59-7.19-1.07-9.43c11.9-17.48,25.96-33.92,41.58-47.86,1.58-1.41,6.72-1.13,8.51-.17,2.14,1.15,3.17,8.15,1.16,10.07-14.36,13.79-27.94,29.03-40.08,46.43Z"/>
      <path class="st18" d="M663.21,710.65c-6.18,7.65-42.18,47.82-51.15,36.4-1.74-2.21-1.12-8.14,2.08-10.3,13.91-9.41,28.55-23.61,38.95-35.53,1.66-1.91,7.76-1.66,9.35-.41,1.92,1.51,2.63,7.55.77,9.84Z"/>
      <path class="st18" d="M235.02,293.34c-1.63,1.82-7.62,2.1-9.6.92s-3.12-7.92-1.58-9.64l31.07-34.64c1.52-1.69,7.5-1.49,9.26-.19,2.06,1.52,2.83,7.92.96,10l-30.12,33.55Z"/>
      <path class="st18" d="M616.35,704.87c-1.84,1.44-7.9,1.43-9.78.35-2.25-1.29-2.69-8.44-.59-10.08l31.07-24.38c2.19-1.72,8.69-.43,9.9,1.47,1.41,2.21.75,8.11-1.4,9.79l-29.2,22.85Z"/>
      <path class="st2" d="M590.69,477.67c-1.05,2.58-5.96,5.86-8.51,5.56s-6.82-5.05-6.6-7.7c.84-10.04,8.32-30.78,18.91-24.29,2.64,1.62,3.9,7.43,2.65,10.51l-6.46,15.93Z"/>
      <path class="st14" d="M380.74,465.4c-1.83,13.21-1.37,25.03-10.75,24.24-11.44-.96-6.91-20.25-4.17-28.64.84-2.59,6.93-5.04,9.41-4.36s5.91,5.89,5.51,8.76Z"/>
      <path class="st2" d="M353.37,475.65c.02,2.81-5.21,7.55-7.75,7.71-2.91.18-8.27-4.25-8.29-7.19l-.09-18.65c-.01-2.64,4.34-7.04,6.91-7.42,3.2-.47,9.05,3.76,9.07,6.95l.14,18.61Z"/>
      <path class="st16" d="M617.44,478.66c-1.32,2.47-6.97,5.09-9.65,4.64-3.46-.58-7.16-7.71-5.47-10.76l9.16-16.57c1.38-2.5,8.06-4.02,10.75-2.6,2.55,1.34,4.63,7.69,3.13,10.49l-7.91,14.79Z"/>
      <path class="st5" d="M392.01,412.72c-1.83.27-6.05-.38-7.58-1.51-1.85-1.35-1.33-7.94.8-9.53,8.94-6.66,31.93-17.04,32.35-4.86.33,9.47-12.83,6.59-25.56,15.9Z"/>
      <path class="st13" d="M558.97,407.37l-19.73-8.36c-2.42-1.03-5.06-5.28-4.93-8,.51-10.6,34.81,0,32.36,13.68-.36,1.99-5.61,3.56-7.71,2.68Z"/>
      <path class="st16" d="M647.55,463.54c-2.67,8.24-5.72,22.63-15.09,19.47-2.41-.81-6.09-6.35-5.26-8.82l5.15-15.3c.87-2.6,6.41-4.76,8.97-4.32s7.04,6.43,6.22,8.97Z"/>
      <path class="st19" d="M534.15,454.11c-2.19.8-6.54.24-8.01-1-1.77-1.49-1.41-8.27.69-9.66,7.79-5.15,25.87-12.24,27.01-1.94.27,2.45-3.04,6.5-5.43,7.37l-14.26,5.23Z"/>
      <path class="st10" d="M422.3,454.03l-17.14-7.72c-1.99-.9-3.1-6.96-2.48-8.94s5.89-3.94,7.87-3.05l16.57,7.46c1.67.75,3.21,5.21,3.31,7.03.12,2.19-5.77,6.28-8.13,5.22Z"/>
      <path class="st0" d="M327.31,469.21c1.36,2.26,2.88,7.05,2.99,9.19.12,2.5-6.09,5.51-8.48,4.35-7.42-3.62-11.68-14.82-9.34-21,.8-2.11,7.55-4.56,8.65-2.76l6.18,10.22Z"/>
    </g>
  </g>
</svg>