<?xml version="1.0" encoding="UTF-8"?>
<svg id="_레이어_1" data-name="레이어_1" xmlns="http://www.w3.org/2000/svg" version="1.1" viewBox="0 0 709.28 1062.64">
  <!-- Generator: Adobe Illustrator 30.1.0, SVG Export Plug-In . SVG Version: 2.1.1 Build 136)  -->
  <defs>
    <style>
      .st0 {
        fill: #ba883f;
      }

      .st1 {
        fill: #341b0a;
      }

      .st2 {
        fill: #b07f5d;
      }

      .st3 {
        fill: #371e0b;
      }

      .st4 {
        fill: #3a1c0f;
      }

      .st5 {
        fill: #af7e5d;
      }

      .st6 {
        fill: #351c0a;
      }

      .st7 {
        fill: #e2b059;
      }

      .st8 {
        fill: #b1805d;
      }

      .st9 {
        fill: #7c6860;
      }

      .st10 {
        fill: #381f0c;
      }
    </style>
  </defs>
  <path class="st9" d="M-222.13,2749.35l-4-10v-39.98l4-11.99-1.73,25.99c-.78,11.69,1.26,23.55,1.73,35.98Z"/>
  <g>
    <path class="st4" d="M622.77,958.63c-111.97,101.95-302.26,129.95-442.77,79.59C-6.58,971.35-46.37,738.56,52.54,578.88c22.61-36.5-9.67-71.44-14.7-108.18-8.28-60.49-.86-121.73,14.18-180.63,8.24-32.25,20.44-61.05,36.25-89.59,27.58-49.81,67.75-87.62,117.77-114.24,25.83-13.75,50.83-26.74,74.72-43.54,16.25-11.43,30.93-22.96,48.48-31.81,32.86-16.57,69.6-14.29,99.8,7.16,34.78,24.7,54.87,56.69,85.85,83.4,23.72,20.45,46.22,39.45,68.04,61.96,96.83,99.9,101.82,245.8,19.69,357.76,63.17,66.87,104.55,141.96,106.56,235.59,2,78.09-29.04,149.62-86.42,201.86ZM616.99,942.99c93.46-88.69,97.64-223.9,35.44-331.34-16.78-28.98-36.99-53.99-59.62-78.3-6.29-6.76-7.28-14.78-1.84-22.34,17.67-24.54,31.3-50.25,40.97-79.12,29.47-87.96,8.5-183.26-54.23-251.41-39.95-43.4-69.29-59.39-110.54-105.45-35.02-39.11-76.07-80.28-133.32-49.29-16.27,8.81-30.18,19.74-45.52,30.46-23.47,16.4-48.11,29.24-73.47,42.66-44.89,23.76-81.44,56.38-107.75,100.22-19.21,32.01-33.26,65.03-42.17,101.93-13.04,54.03-19.57,109.75-12.3,165.06,4.91,37.35,40.16,76.98,13.44,119.98C10.98,674.72-.4,786.21,39.05,883.23c25.71,63.23,74.18,111.88,137,136.94,136.81,54.58,331.96,26.24,440.93-77.18Z"/>
    <path class="st7" d="M616.99,942.99c-108.98,103.42-304.13,131.76-440.93,77.18-62.83-25.06-111.29-73.71-137-136.94-39.46-97.02-28.08-208.51,27.03-297.17,26.72-42.99-8.52-82.62-13.44-119.98-7.27-55.31-.74-111.03,12.3-165.06,8.9-36.9,22.96-69.92,42.17-101.93,26.31-43.84,62.86-76.46,107.75-100.22,25.36-13.42,50-26.26,73.47-42.66,15.34-10.72,29.24-21.65,45.52-30.46,57.25-30.98,98.3,10.18,133.32,49.29,41.25,46.06,70.59,62.04,110.54,105.45,62.74,68.15,83.7,163.45,54.23,251.41-9.67,28.87-23.3,54.58-40.97,79.12-5.45,7.56-4.46,15.58,1.84,22.34,22.63,24.31,42.84,49.32,59.62,78.3,62.2,107.44,58.02,242.65-35.44,331.34ZM377.89,192.91c16.01-18.11-6.36-37.81-3.31-47.6,2.33-7.47,23.8-6.7,29.11-31.09,2.48-11.4-.23-23.82-9.5-31.87-1.99-1.72-8.82-1.24-10.21.96-6.1,9.62,10.15,12.11,4.84,30.37-3.82,13.12-24.18,12.57-28.39,26.31-2.2,7.18-.46,14.9,2.62,21.47,12.92,27.59-.33,16.17.22,28.91.09,2.1,3.25,5.59,5.3,5.73,2.05.14,7.93-1.62,9.32-3.2ZM261.38,145.59c14.75-3.61,25.74-12.4,29.16-27.18,6.07-26.28,33.26-10.65,35.18-22.04.41-2.45-2.23-8.03-5.34-8.79-19.1-4.69-39.52,6.89-43.89,26.94-4.62,21.2-29.18,14.11-49.55,28.32-13.09,9.13-30.32,38.26-25.93,45.85,1.17,2.02,6.71,3.63,8.8,2.57,1.74-.88,4-3.92,5.14-6.31,13.48-28.14,16.73-32.08,46.43-39.35ZM512.33,199.04c17.08-.54,7.31-51.11-25.5-62.09,2.65-19.63-5.85-37.59-24.38-44.68-4.39-1.68-10.88,0-11.77,3.95s1.91,8.58,5.53,9.79c14.88,4.98,20,20.16,13.37,34.17-1.41,2.99,2.18,8.46,5.37,9.09,41.64,8.2,23.4,50.22,37.38,49.77ZM441.52,342.31c1.79.78,6.88-.49,7.17-2.39,1.44-9.5-11.97-13.96-21.82-16.67-2.13-.58-7.36,3.02-7.28,5.17s3,5.68,4.98,6.54l16.96,7.35ZM294.41,345.84l15.97-6.42c2.12-.85,5.42-4.55,5.26-6.85-.71-10.01-20.85-1.73-29.3,5.14-1.7,1.38-1.38,8.51.72,8.91,1.68.32,5.57-.07,7.34-.78ZM326.34,390.32c0-8.17-6.62-14.79-14.79-14.79s-14.79,6.62-14.79,14.79,6.62,14.79,14.79,14.79,14.79-6.62,14.79-14.79ZM442.2,390.32c0-8.18-6.63-14.81-14.8-14.81s-14.8,6.63-14.8,14.81,6.63,14.81,14.8,14.81,14.8-6.63,14.8-14.81ZM237.01,434.73l-.36-23.7c-.05-3.07-5.48-7.06-8.14-6.55-2.28.44-6.27,4.65-6.27,6.96v21.16c-.01,2.4,3.88,7.28,6.23,7.17s6.52-2.98,8.54-5.04ZM261.92,405.53c-1.98-1.39-8.92-.12-9.84,2.29-1.8,4.74-2.21,15.06.65,19.74,1.61,2.64,8.31,3.29,9.77,1.14,4.03-5.92,3.76-20.14-.58-23.17ZM214.05,433.73l-.28-21.06c-.04-2.68-5.03-6.66-7.43-6.38s-6.92,4.18-6.91,6.6v22.6c.01,2.96,6,6.6,8.89,5.96,2.35-.52,5.77-5.19,5.74-7.72ZM468.86,432.55l3.87-15.96c.62-2.57-2.57-7.48-4.89-7.91s-8.15,1.92-8.81,4.37l-4.35,16.32c-.66,2.49,2.91,8.09,5.44,8.42s8.09-2.53,8.75-5.25ZM491.77,431.08c2.13-5.18,9.58-21.34.35-22.43-1.97-.23-7.61.94-8.28,2.89l-4.84,13.91c-.71,2.03,1.74,6.86,3.55,7.93s8.4-.26,9.23-2.29ZM525.96,431.33l3.18-12.71c.61-2.46-2.48-7.87-4.95-8.28-9.29-1.56-10.45,9.57-12.85,19.59-.75,3.12,4,8.1,6.77,7.91,2.38-.17,7.21-3.92,7.86-6.51ZM375.75,456.44c33.67-4.1,47.09-42.46,34.53-41.47-1.95.15-6.11,2.78-6.82,4.98-4.24,13.23-17.53,24.55-31.35,25.01-30.33,1.01-31.23-26.64-41.55-24.89-12.59,2.13,8.68,40.82,45.18,36.37ZM142.85,900.39c8.95-55.62-22.13-57.38-5.8-95.84l13.72-32.31c6.37-15.01,5.8-30.96-.95-45.54-19.78-42.72,38.94-69.73,23.75-80.84-2.06-1.5-8.43-1.13-10.26.96-65.61,75.06-8.99,78.77-26.18,119.84l-14.71,35.14c-6.34,15.16-6.24,32.72.4,47.69,7.56,17.02,7.98,32.98,5.17,51.27-5.22,34.07,16.19,53.31,24.85,48.46,1.83-1.02,4.06-5.04,3.85-7.13-.81-7.94-19.27-8.04-13.84-41.71ZM614.11,914.14c6.72-33.73-20.69-39.61-6.48-58.66,14.95-20.03,14.59-45.01.89-65.82-6.3-9.57-6.73-21.28,1.15-30.71,30.03-35.98,19.79-90.5-21.73-113.06-3.61-1.96-10.4,1.28-10.53,4.31-.17,4.07,1.66,7.58,4.93,9.49,33.45,19.44,39.07,62.15,15.33,91.16-11.53,14.09-11.04,32.57-1.46,46.76,10.7,15.84,10.63,34.48-.7,49.69-8.23,11.05-8.85,25.21-1.38,36.94,6.89,10.83,7.66,22.74,3.72,35.14-9.31,29.32-14.93,13.4-17.06,26.57-.54,3.32,3.08,8.59,6,9.61,15.61,5.44,25.11-30.29,27.33-41.41ZM294.17,931.67c6.45-13.7,6.12-29.58-5.06-40.57-11.55-11.35-14.77-27.18-7.83-42.81l19.4-43.69c7.94-17.89,6.38-36.83-3.98-53.08-16.87-26.47,5.08-52.5,23.29-72.21,1.75-1.9,2.15-8.09.69-10.16s-8.3-2.81-10.2-.91c-23.41,23.35-47.49,57.02-26.76,89.93,7.86,12.48,9.65,26.7,3.4,40.77l-19.44,43.8c-9.67,21.8-4.71,43.64,11.99,59.73,5.62,5.42,4.38,16.69.98,23.7-25.61,52.82,12.32,103.25,21.61,88.85,7.38-11.45-32.54-31.41-8.08-83.36ZM454.92,970.48l11.47-33.85c4.82-14.22.52-29.11-10.61-38.36-16.06-13.34-2.08-33.38,7.57-47.34,10.32-14.94,12.75-31.63,6.5-48.89l-9.5-26.21c-3.4-9.38.32-19.72,7.04-26.62,21.24-21.82,21-55.67-2.19-76.15-2.07-1.83-8.62-1.25-10.22.84s-1.42,8.49.69,10.39c17.06,15.36,16.14,39.81.46,55.68-11.39,11.53-14.55,27.76-9,42.92l9.04,24.68c10.23,27.94-12.18,36.49-20.88,64.97-10.7,35.06,25.7,34.3,17.14,59.57l-11.57,34.18c-6.33,18.69,2.13,40.38,12.73,35.5,10.57-4.86-4.6-13.83,1.32-31.31Z"/>
    <path class="st0" d="M294.17,931.67c-24.46,51.94,15.47,71.91,8.08,83.36-9.29,14.4-47.22-36.03-21.61-88.85,3.4-7.02,4.64-18.29-.98-23.7-16.7-16.09-21.66-37.94-11.99-59.73l19.44-43.8c6.25-14.08,4.46-28.29-3.4-40.77-20.73-32.9,3.36-66.58,26.76-89.93,1.9-1.9,8.73-1.15,10.2.91s1.07,8.26-.69,10.16c-18.2,19.71-40.16,45.74-23.29,72.21,10.36,16.25,11.93,35.19,3.98,53.08l-19.4,43.69c-6.94,15.63-3.72,31.46,7.83,42.81,11.18,10.98,11.51,26.87,5.06,40.57Z"/>
    <path class="st0" d="M454.92,970.48c-5.92,17.48,9.24,26.45-1.32,31.31-10.6,4.88-19.06-16.8-12.73-35.5l11.57-34.18c8.56-25.27-27.84-24.51-17.14-59.57,8.69-28.49,31.1-37.03,20.88-64.97l-9.04-24.68c-5.55-15.16-2.39-31.4,9-42.92,15.68-15.87,16.6-40.32-.46-55.68-2.11-1.9-2.33-8.23-.69-10.39s8.15-2.67,10.22-.84c23.19,20.49,23.43,54.33,2.19,76.15-6.72,6.9-10.44,17.24-7.04,26.62l9.5,26.21c6.26,17.26,3.83,33.95-6.5,48.89-9.65,13.96-23.64,34-7.57,47.34,11.13,9.25,15.43,24.14,10.61,38.36l-11.47,33.85Z"/>
    <path class="st0" d="M614.11,914.14c-2.22,11.12-11.71,46.85-27.33,41.41-2.92-1.02-6.54-6.29-6-9.61,2.13-13.17,7.74,2.75,17.06-26.57,3.94-12.4,3.17-24.31-3.72-35.14-7.46-11.73-6.85-25.89,1.38-36.94,11.33-15.21,11.4-33.86.7-49.69-9.58-14.18-10.07-32.67,1.46-46.76,23.74-29.01,18.12-71.71-15.33-91.16-3.27-1.9-5.11-5.41-4.93-9.49.13-3.03,6.92-6.27,10.53-4.31,41.52,22.55,51.77,77.08,21.73,113.06-7.88,9.43-7.45,21.14-1.15,30.71,13.71,20.81,14.06,45.8-.89,65.82-14.21,19.05,13.2,24.93,6.48,58.66Z"/>
    <path class="st0" d="M142.85,900.39c-5.42,33.68,13.03,33.77,13.84,41.71.21,2.09-2.02,6.1-3.85,7.13-8.66,4.84-30.07-14.39-24.85-48.46,2.8-18.3,2.39-34.26-5.17-51.27-6.65-14.97-6.75-32.53-.4-47.69l14.71-35.14c17.19-41.07-39.43-44.78,26.18-119.84,1.83-2.09,8.2-2.47,10.26-.96,15.18,11.11-43.53,38.11-23.75,80.84,6.75,14.58,7.33,30.53.95,45.54l-13.72,32.31c-16.33,38.46,14.75,40.22,5.8,95.84Z"/>
    <path class="st0" d="M261.38,145.59c-29.7,7.27-32.95,11.22-46.43,39.35-1.14,2.39-3.4,5.44-5.14,6.31-2.09,1.05-7.63-.55-8.8-2.57-4.39-7.58,12.84-36.71,25.93-45.85,20.38-14.21,44.94-7.12,49.55-28.32,4.36-20.05,24.79-31.63,43.89-26.94,3.11.76,5.75,6.35,5.34,8.79-1.92,11.39-29.11-4.24-35.18,22.04-3.42,14.79-14.41,23.57-29.16,27.18Z"/>
    <path class="st0" d="M512.33,199.04c-13.98.45,4.26-41.58-37.38-49.77-3.18-.63-6.78-6.1-5.37-9.09,6.63-14.01,1.51-29.2-13.37-34.17-3.63-1.21-6.4-5.97-5.53-9.79s7.38-5.63,11.77-3.95c18.53,7.09,27.03,25.06,24.38,44.68,32.81,10.98,42.57,61.55,25.5,62.09Z"/>
    <path class="st0" d="M377.89,192.91c-1.39,1.58-7.27,3.34-9.32,3.2-2.05-.14-5.21-3.63-5.3-5.73-.56-12.75,12.69-1.32-.22-28.91-3.07-6.57-4.82-14.29-2.62-21.47,4.21-13.74,24.57-13.19,28.39-26.31,5.32-18.26-10.94-20.75-4.84-30.37,1.39-2.2,8.23-2.68,10.21-.96,9.27,8.05,11.98,20.47,9.5,31.87-5.31,24.39-26.78,23.62-29.11,31.09-3.05,9.78,19.32,29.49,3.31,47.6Z"/>
    <path class="st1" d="M375.75,456.44c-36.5,4.45-57.77-34.24-45.18-36.37,10.31-1.75,11.22,25.91,41.55,24.89,13.83-.46,27.11-11.78,31.35-25.01.7-2.2,4.87-4.83,6.82-4.98,12.57-.99-.86,37.36-34.53,41.47Z"/>
    <circle class="st6" cx="427.39" cy="390.32" r="14.81"/>
    <circle class="st6" cx="311.55" cy="390.32" r="14.79"/>
    <path class="st8" d="M237.01,434.73c-2.02,2.06-6.19,4.93-8.54,5.04s-6.25-4.77-6.25-7.17v-21.16c.01-2.31,4-6.51,6.28-6.96,2.66-.52,8.1,3.48,8.14,6.55l.36,23.7Z"/>
    <path class="st5" d="M214.05,433.73c.03,2.53-3.39,7.19-5.74,7.72-2.88.64-8.87-2.99-8.88-5.96v-22.6c-.01-2.42,4.5-6.32,6.9-6.6s7.4,3.7,7.43,6.38l.28,21.06Z"/>
    <path class="st2" d="M468.86,432.55c-.66,2.72-6.22,5.59-8.75,5.25s-6.1-5.94-5.44-8.42l4.35-16.32c.66-2.46,6.49-4.8,8.81-4.37s5.51,5.34,4.89,7.91l-3.87,15.96Z"/>
    <path class="st2" d="M525.96,431.33c-.65,2.6-5.48,6.34-7.86,6.51-2.77.19-7.51-4.79-6.77-7.91,2.4-10.02,3.56-21.15,12.85-19.59,2.48.41,5.57,5.82,4.95,8.28l-3.18,12.71Z"/>
    <path class="st3" d="M294.41,345.84c-1.77.71-5.66,1.1-7.34.78-2.1-.4-2.43-7.53-.72-8.91,8.45-6.87,28.59-15.15,29.3-5.14.16,2.3-3.14,6-5.26,6.85l-15.97,6.42Z"/>
    <path class="st10" d="M441.52,342.31l-16.96-7.35c-1.98-.86-4.91-4.39-4.98-6.54s5.15-5.75,7.28-5.17c9.86,2.71,23.27,7.16,21.82,16.67-.29,1.91-5.37,3.17-7.17,2.39Z"/>
    <path class="st2" d="M491.77,431.08c-.83,2.03-7.42,3.36-9.23,2.29s-4.25-5.9-3.55-7.93l4.84-13.91c.68-1.95,6.32-3.12,8.28-2.89,9.23,1.1,1.78,17.25-.35,22.43Z"/>
    <path class="st2" d="M261.92,405.53c4.34,3.04,4.61,17.25.58,23.17-1.46,2.15-8.16,1.5-9.77-1.14-2.86-4.68-2.45-15-.65-19.74.92-2.41,7.85-3.68,9.84-2.29Z"/>
  </g>
</svg>