<?xml version="1.0" encoding="UTF-8"?>
<svg id="_레이어_1" data-name="레이어_1" xmlns="http://www.w3.org/2000/svg" version="1.1" viewBox="0 0 992.56 897.3">
  <!-- Generator: Adobe Illustrator 30.1.0, SVG Export Plug-In . SVG Version: 2.1.1 Build 136)  -->
  <defs>
    <style>
      .st0 {
        fill: #4e2b10;
      }

      .st1 {
        fill: #351b0a;
      }

      .st2 {
        fill: #341b09;
      }

      .st3 {
        fill: #341a09;
      }

      .st4 {
        fill: #ae7d5c;
      }

      .st5 {
        fill: #4e2c10;
      }

      .st6 {
        fill: #3a1c0f;
      }

      .st7 {
        fill: #efd641;
      }

      .st8 {
        fill: #331a09;
      }

      .st9 {
        fill: #7a502d;
      }

      .st10 {
        fill: #a0734d;
      }

      .st11 {
        fill: #4f2c11;
      }

      .st12 {
        fill: #ddae8c;
      }

      .st13 {
        fill: #f9f6c7;
      }

      .st14 {
        fill: #7c6860;
      }
    </style>
  </defs>
  <path class="st14" d="M802.4,1792.06l-4-10v-39.98l4-11.99-1.73,25.99c-.78,11.69,1.26,23.55,1.73,35.98Z"/>
  <g>
    <path class="st6" d="M374.81,877.35c-85.68-19.33-166.51-47.72-243.8-86.25-30.47-15.19-57.04-33.88-80.7-57.53C1.75,685-8.59,623.24,6.27,557.34c19.81-87.86,63.55-166.51,126.85-230.43,30.43-30.73,61.73-57.63,96.21-83.61l96.05-72.37c30.91-23.29,59.57-47.43,87.53-73.88,34.39-32.53,24.15-55.7,42.19-83.67,17.55-27.22,54.47-6.97,70.78,8.41,21.63,20.4,44.19,35.17,69.98,50.62,100.86,60.42,191.99,135.06,271.86,221.29,23.3,25.16,42.87,50.36,61.46,78.82,54.17,82.94,75.2,183.48,56.91,280.95-16.64,88.68-76.56,140.57-152.64,180.33-27.96,13.35-55.1,24.94-84.67,34.66-121.67,36.44-248.78,37.13-373.99,8.87ZM565.55,410.19c13.33-39.17,19.66-75.3,20.4-113.6,4.06-21.95,15.13-39.77,34.41-50.5l35.95-20.01c4.12-29.31-13.32-59.96,9.33-89.7-29.6-21.3-59.59-40.48-90.98-58.7-22.24-12.9-40.27-27.91-59.62-44.74-10.24-8.91-25.32-19.85-39.09-16.68-11.82,2.72-13.69,18.84-17.57,28.18-9.01,50.42-44.79,71.85-79.35,103.76,25.61,17.22,47.48,39.02,59.36,67.18,4.34,10.29-2.37,25.14-6.08,34.45l-17.19,43.11c-13.95,34.98,80.54,24.36,98.82,48.65l51.61,68.59ZM54.35,715.49c37.13,41.8,90.63,67.7,143.33,89.17-6.22-21.56.7-40.1,19.47-49.97,14.63-7.7,30.72-8.76,47.68-7.78,52.4,10.09,78.47,26.95,134.12,33.45,86.26,10.07,128.18-45.81,198.22-15.91,21.82,9.31,44.45,12.94,68.27,9.03l71.09-11.67c16-.85,32.42-3.73,47.54,1.97,25.29,9.53,33.94,37.65,24.37,64.36,81.42-36.86,147.61-89.46,163.48-182.43,16.17-94.74-5.49-190.85-59.21-270.38-57.09-84.54-151.19-168.35-233.83-229.41-7.73,9.01-10.91,21.22-9.68,33.07l3.72,35.67c4.67,44.79-67.96,25.33-71.34,96.21-1.22,25.48-3.47,49.38-11.12,73.68l-12.99,41.24c-.84,2.65-5.17,6.49-7.76,6.82s-8.52-1.9-10.17-4.12l-57.28-77.14c-25.47-15.07-51.19-10.66-83.78-23.72-37.26-14.93-11.04-56.59-1.3-80.92,2.72-7.61,8.81-19.49,6.25-27.63-12.75-25.57-32.35-46.1-57.34-60.09l-107.53,81.38c-37.19,28.14-72.11,55.96-105.57,88.34-62.97,60.92-107.65,135.76-129.1,220.84-15.28,60.64-12.34,117.74,30.47,165.95ZM593.77,779.56c-38.21-16.45-69.42-5.52-108.9,7.17-109.08,35.05-185.16-31.73-243.6-23.85-11.64,1.57-24.8,7.15-28.94,18.3-4.21,11.33,1.05,23.44,7.47,32.58,180.35,70.38,376.04,97.6,560.45,26.77,11.65-10.02,18.63-24.23,16.29-39.27-2.38-15.29-14.27-25.44-29.72-25.51-64.05-.29-112.99,29.67-173.05,3.81Z"/>
    <path class="st9" d="M54.35,715.49c-42.81-48.2-45.75-105.31-30.47-165.95,21.45-85.08,66.14-159.92,129.1-220.84,33.46-32.38,68.38-60.19,105.57-88.34l107.53-81.38c24.99,13.99,44.59,34.52,57.34,60.09,2.56,8.14-3.53,20.02-6.25,27.63-9.74,24.33-35.96,65.99,1.3,80.92,32.59,13.06,58.31,8.65,83.78,23.72l57.28,77.14c1.65,2.22,7.57,4.45,10.17,4.12s6.93-4.17,7.76-6.82l12.99-41.24c7.65-24.3,9.9-48.2,11.12-73.68,3.38-70.88,76.01-51.42,71.34-96.21l-3.72-35.67c-1.23-11.85,1.95-24.06,9.68-33.07,82.65,61.06,176.74,144.87,233.83,229.41,53.72,79.54,75.38,175.65,59.21,270.38-15.87,92.98-82.06,145.58-163.48,182.43,9.57-26.71.92-54.83-24.37-64.36-15.12-5.7-31.55-2.81-47.54-1.97l-71.09,11.67c-23.82,3.91-46.45.28-68.27-9.03-70.04-29.9-111.96,25.98-198.22,15.91-55.66-6.5-81.73-23.36-134.12-33.45-16.95-.98-33.05.08-47.68,7.78-18.77,9.88-25.68,28.41-19.47,49.97-52.7-21.47-106.21-47.37-143.33-89.17ZM306.18,253.29c.2-1.24-1.05-4.52-1.89-3.99-12.75,8.06-7.06,60.96-2.7,33.17l4.58-29.18ZM274.8,271.61c3.81-38.54-17.25,24.48-2.72,27.48l2.72-27.48ZM164.09,402.62c19.21-31.38,33.49-35.31,59.54-55.07,9.9-7.51,10.06-20.85,2.77-28.64-8.59-9.19-19.54-7.03-29.14.09-17.4,12.9-93.46,68.07-61.73,90.73,9.11,6.51,21.85,3.86,28.57-7.11ZM641.56,491.59c2.15.7,7.3-.58,8.17-2.58.72-1.67.03-6.91-1.64-8.19-8.59-6.6-30.7-16.3-30.84-4.94-.03,2.23,2.65,6.09,4.69,7l19.61,8.71ZM495.02,488.37c2.96-.91,6.13-5.06,5.62-8.07-2.21-12.97-41.81,4.58-33.75,14.38,5.55,6.75,9.96-.72,28.13-6.31ZM512.67,545.33c0-9.16-7.42-16.58-16.58-16.58s-16.58,7.43-16.58,16.58,7.42,16.58,16.58,16.58,16.58-7.43,16.58-16.58ZM642.53,545.32c0-9.17-7.43-16.6-16.6-16.6s-16.6,7.43-16.6,16.6,7.43,16.6,16.6,16.6,16.6-7.43,16.6-16.6ZM412.24,592.72l.02-22.39c0-4.76-4.02-9.36-8.43-9.11-3.98.23-7.78,5.06-7.75,8.96l.17,23.18c.03,3.61,5.54,7.9,9.15,7.35,2.65-.41,6.83-5.31,6.83-7.99ZM444.2,568.76c-.05-2.84-4.2-7.03-6.69-7.55s-8.87,2.78-8.93,5.32l-.44,16.54c-.07,2.79,5.12,7.14,7.73,7.21,10.32.26,8.45-14.84,8.34-21.52ZM386.74,594.85l.04-22.6c0-4.35-4.47-9.29-8.56-8.96-3.59.28-7.86,5.29-7.84,8.73l.11,23.23c.02,3.67,5.61,7.89,9.24,7.56,2.68-.25,7.02-4.93,7.02-7.96ZM699.22,589.1l4.59-13.9c.94-2.85-2.46-8.4-5.09-9.35s-9.19,1.66-10.11,4.35l-4.85,14.2c-.94,2.75,2.36,8.59,5.07,9.46,2.94.94,9.47-1.98,10.39-4.76ZM672.4,592.62l4.21-16.75c1.07-4.23-2.53-9.86-6.67-10-3.53-.12-8.36,3.1-9.12,6.21l-4.24,17.22c-.9,3.66,3.37,9.08,7.12,9.28,2.71.14,7.97-3.06,8.7-5.96ZM735.92,592.35l4.08-16.15c.75-2.96-3.7-8.36-6.48-8.71-2.43-.31-8.06,2.48-8.77,4.98l-4.76,16.69c-1.11,3.88,3.82,9.44,7.55,9.32,2.66-.09,7.63-3.19,8.37-6.13ZM566.77,619.62c36.68-3.8,54.23-44.99,40.86-46.49-3.13-.35-7.61,2.36-8.62,5.5-5.31,16.46-19.57,27.07-35.32,27.83-15.72.75-30.57-8.17-37.53-23.25-1.46-3.17-6.99-5.07-9.7-4.14-12.34,4.21,12.15,44.52,50.31,40.56ZM866.57,727.01c7.53-27.43-24.19,23.52-23.01,26.02,13.87-2.94,13.72-17.45,23.01-26.02ZM892.66,731.19c1.04-1.02,1.25-6.17.04-5.81-.9.27-3.63,1.06-4.48,1.82l-21.51,19.1c-2.21,1.96-6.88,17.21,25.94-15.11Z"/>
    <path class="st12" d="M593.77,779.56c60.05,25.86,108.99-4.1,173.05-3.81,15.45.07,27.34,10.22,29.72,25.51,2.34,15.03-4.64,29.25-16.29,39.27-184.41,70.83-380.1,43.6-560.45-26.77-6.42-9.14-11.68-21.24-7.47-32.58,4.15-11.15,17.31-16.73,28.94-18.3,58.44-7.88,134.52,58.89,243.6,23.85,39.47-12.68,70.69-23.61,108.9-7.17Z"/>
    <path class="st10" d="M164.09,402.62c-6.71,10.97-19.46,13.62-28.57,7.11-31.72-22.67,44.33-77.83,61.73-90.73,9.6-7.12,20.55-9.28,29.14-.09,7.29,7.8,7.12,21.14-2.77,28.64-26.05,19.76-40.33,23.7-59.54,55.07Z"/>
    <path class="st8" d="M566.77,619.62c-38.16,3.95-62.65-36.35-50.31-40.56,2.71-.92,8.23.97,9.7,4.14,6.96,15.08,21.81,24,37.53,23.25,15.75-.75,30.01-11.37,35.32-27.83,1.01-3.14,5.5-5.85,8.62-5.5,13.37,1.5-4.18,42.69-40.86,46.49Z"/>
    <circle class="st3" cx="625.94" cy="545.32" r="16.6"/>
    <circle class="st3" cx="496.09" cy="545.33" r="16.58"/>
    <path class="st4" d="M386.74,594.85c0,3.03-4.35,7.71-7.02,7.96-3.63.33-9.22-3.89-9.24-7.56l-.11-23.23c-.02-3.44,4.25-8.45,7.84-8.73,4.09-.32,8.57,4.62,8.56,8.96l-.04,22.6Z"/>
    <path class="st4" d="M412.24,592.72c0,2.68-4.18,7.59-6.83,7.99-3.62.55-9.13-3.74-9.15-7.35l-.17-23.18c-.03-3.9,3.77-8.73,7.75-8.96,4.4-.25,8.43,4.35,8.43,9.11l-.02,22.39Z"/>
    <path class="st4" d="M672.4,592.62c-.73,2.9-5.98,6.1-8.7,5.96-3.75-.2-8.02-5.62-7.12-9.28l4.24-17.22c.76-3.1,5.59-6.33,9.12-6.21,4.14.14,7.73,5.76,6.67,10l-4.21,16.75Z"/>
    <path class="st2" d="M495.02,488.37c-18.17,5.59-22.58,13.06-28.13,6.31-8.06-9.8,31.54-27.35,33.75-14.38.51,3.01-2.66,7.16-5.62,8.07Z"/>
    <path class="st4" d="M735.92,592.35c-.74,2.94-5.71,6.04-8.37,6.13-3.74.13-8.66-5.44-7.55-9.32l4.76-16.69c.71-2.5,6.34-5.28,8.77-4.98,2.79.35,7.23,5.75,6.48,8.71l-4.08,16.15Z"/>
    <path class="st1" d="M641.56,491.59l-19.61-8.71c-2.05-.91-4.72-4.77-4.69-7,.13-11.35,22.24-1.66,30.84,4.94,1.66,1.28,2.36,6.52,1.64,8.19-.86,2.01-6.02,3.29-8.17,2.58Z"/>
    <path class="st4" d="M699.22,589.1c-.92,2.78-7.45,5.7-10.39,4.76-2.71-.87-6.01-6.71-5.07-9.46l4.85-14.2c.92-2.7,7.45-5.32,10.11-4.35s6.03,6.5,5.09,9.35l-4.59,13.9Z"/>
    <path class="st4" d="M444.2,568.76c.11,6.68,1.98,21.78-8.34,21.52-2.61-.07-7.8-4.42-7.73-7.21l.44-16.54c.07-2.54,6.45-5.83,8.93-5.32s6.65,4.71,6.69,7.55Z"/>
    <path class="st11" d="M892.66,731.19c-32.82,32.32-28.15,17.07-25.94,15.11l21.51-19.1c.85-.76,3.58-1.55,4.48-1.82,1.21-.36,1,4.79-.04,5.81Z"/>
    <path class="st5" d="M866.57,727.01c-9.3,8.57-9.14,23.07-23.01,26.02-1.17-2.5,30.55-53.45,23.01-26.02Z"/>
    <path class="st5" d="M306.18,253.29l-4.58,29.18c-4.36,27.79-10.05-25.11,2.7-33.17.83-.53,2.08,2.75,1.89,3.99Z"/>
    <path class="st0" d="M274.8,271.61l-2.72,27.48c-14.53-3,6.53-66.02,2.72-27.48Z"/>
    <g>
      <path class="st7" d="M565.55,410.19l-51.61-68.59c-18.28-24.29-112.77-13.67-98.82-48.65l17.19-43.11c3.71-9.31,10.42-24.16,6.08-34.45-11.88-28.17-33.75-49.97-59.36-67.18,34.56-31.92,70.34-53.34,79.35-103.76,3.88-9.34,5.76-25.46,17.57-28.18,13.77-3.17,28.85,7.77,39.09,16.68,19.35,16.84,37.38,31.84,59.62,44.74,31.39,18.21,61.37,37.39,90.98,58.7-22.64,29.75-5.21,60.39-9.33,89.7l-35.95,20.01c-19.28,10.73-30.35,28.55-34.41,50.5-.75,38.3-7.07,74.43-20.4,113.6ZM450.87,153.85c28.01-21.02,45.57-50.75,50.06-84.9,1.58-12.01-5.95-21.88-17.12-23.42-10.55-1.46-21.08,5.63-22.64,17.64-3.04,23.37-14.84,44.18-33.93,58-9.83,7.12-12.73,19.16-6.02,28.75,6.43,9.21,19.22,11.76,29.65,3.93Z"/>
      <path class="st13" d="M450.87,153.85c-10.43,7.83-23.21,5.27-29.65-3.93-6.7-9.6-3.81-21.63,6.02-28.75,19.09-13.82,30.89-34.63,33.93-58,1.56-12.01,12.09-19.1,22.64-17.64,11.16,1.55,18.7,11.42,17.12,23.42-4.5,34.15-22.05,63.88-50.06,84.9Z"/>
    </g>
  </g>
</svg>