<?xml version="1.0" encoding="UTF-8"?>
<svg id="_레이어_1" data-name="레이어_1" xmlns="http://www.w3.org/2000/svg" version="1.1" viewBox="0 0 772.49 1075.7">
  <!-- Generator: Adobe Illustrator 30.1.0, SVG Export Plug-In . SVG Version: 2.1.1 Build 136)  -->
  <defs>
    <style>
      .st0 {
        fill: #f9f5c5;
      }

      .st1 {
        fill: #f9f5c3;
      }

      .st2 {
        fill: #f9f6c6;
      }

      .st3 {
        fill: #38200b;
      }

      .st4 {
        fill: #56264f;
      }

      .st5 {
        fill: #6d3a64;
      }

      .st6 {
        fill: #341b09;
      }

      .st7 {
        fill: #3a1c0f;
      }

      .st8 {
        fill: #efd641;
      }

      .st9 {
        fill: #361d0a;
      }

      .st10 {
        fill: #f9f6c5;
      }

      .st11 {
        fill: #f9f6c7;
      }

      .st12 {
        fill: #f9f5c4;
      }

      .st13 {
        fill: #7c6860;
      }

      .st14 {
        fill: #361e0a;
      }

      .st15 {
        fill: #572750;
      }

      .st16 {
        fill: #381f0b;
      }
    </style>
  </defs>
  <path class="st13" d="M-174.69,2747.41l-4-10v-39.98l4-11.99-1.73,25.99c-.78,11.69,1.26,23.55,1.73,35.98Z"/>
  <g>
    <g>
      <path class="st7" d="M489.73,1064.38c-51.92,26.07-112.06,2.84-157.36-26.64-27.8-18.09-52.17-38.79-76.79-61.11l-66.86-60.61c-22.11-20.05-45.79-36.09-72.16-49.95C-2.63,803.45-11.23,649.05,7.79,530.76c14.35-89.23,41.34-174.87,82.1-255.44,17.15-33.91,35.44-64.69,54.29-97.26,18.34-31.7,38.25-60.51,61.94-88.32,30.98-36.37,69.46-62.39,115.36-76.7,78.43-24.45,162.51-14.06,233.22,27.18,23.49,13.7,44.21,27.81,66.83,42.92,103.34,69.05,141.6,173.53,149.44,294.08,3.42,52.62.51,103.27-2.75,155.81-1.89,30.52-1.5,59.4-1.25,90.09.48,59.01-11.08,114.61-35.32,168.8-41.54,92.86-105.85,173.86-185.76,236.58-18.15,14.24-36.1,25.82-56.14,35.89ZM631.24,681.17c19.38,5.23,52.69-50.11,33.85-105.86-3.26-9.64-5.01-19.9-5.07-29.93-.09-15.6,11.79-26.97,27.58-26.96,26.37.03,39.27,20.69,63.72,29.46,14.3-168.58,13.99-351.58-140.86-453.74-23.05-15.21-44.1-29.68-68.27-43.28C437.37-8.1,299.62,4.87,218.87,98.57c-22.19,25.75-40.98,52.5-58.25,81.95-19.76,33.68-38.59,65.88-56.5,100.88-36.73,71.77-61.13,147.77-77.03,226.66,28.34,20.56,69.94,19.93,100.6,11.25l57.82-16.37c98.07-27.76,133.38,59.46,245.7,29.9,50.18-13.21,100.68-30.74,150.1-9.89,86.26,36.4,12.93,148.23,49.94,158.23ZM751.17,564c-23.44-4.09-54.53-40.98-71.6-27.72-7.62,5.92-3.26,23.97-.14,33.11,13.79,40.32,6.77,85.65-22,117.25-7.74,8.51-19.07,11.9-29.8,9.37-22.16-5.24-25.11-32.38-22.26-53,5.63-40.77,15.62-89.02-32.78-107.09-24.81-9.26-51.44-9.73-77.61-3.26l-67.15,16.61c-113.09,27.97-147.59-61.27-248.9-28.81-53.95,16.27-100.47,33.35-154.63,4.6-19.6,113.42-15.79,266.99,99.47,327.46,26.45,13.88,50.39,29.74,72.54,49.77l67.19,60.77c45.34,41.01,92.27,80.98,153.14,94.78,23.19,5.26,45.38,3.43,66.85-7.51,19.89-10.13,37.84-21.81,55.71-36.19,74.28-59.76,134.85-135.09,175.09-221.83,39.01-84.07,38.44-137.95,36.9-228.34Z"/>
      <path class="st5" d="M751.17,564c1.54,90.39,2.11,144.27-36.9,228.34-40.24,86.74-100.81,162.07-175.09,221.83-17.87,14.37-35.82,26.05-55.71,36.19-21.47,10.94-43.65,12.77-66.85,7.51-60.86-13.8-107.8-53.77-153.14-94.78l-67.19-60.77c-22.15-20.04-46.09-35.9-72.54-49.77C8.49,792.07,4.69,638.49,24.29,525.07c54.16,28.75,100.68,11.66,154.63-4.6,101.31-32.46,135.81,56.78,248.9,28.81l67.15-16.61c26.16-6.47,52.79-6,77.61,3.26,48.4,18.07,38.41,66.32,32.78,107.09-2.85,20.62.11,47.77,22.26,53,10.74,2.54,22.06-.86,29.8-9.37,28.77-31.61,35.79-76.93,22-117.25-3.13-9.14-7.49-27.19.14-33.11,17.07-13.27,48.17,23.63,71.6,27.72ZM293.51,651.09c3.37-.5,6.16-7.31,5.92-10.79-.21-3.01-3.99-8.16-7.42-8.37-6.78-.43-9.77,5.38-9.55,9.96.25,5.01,2.09,10.52,11.05,9.2ZM471.53,685.7l17.72-3.91c2.99-.66,6.21-6.31,5.78-9.38-.39-2.81-5.79-7.27-8.81-6.66l-19.01,3.86c-3.19.65-6.47,7.13-5.63,10.18.84,3.04,6.93,6.58,9.95,5.91ZM122.11,713.99l-22.47-18.92c-2.29-1.92-8.8-1.32-10.69.8s-2.33,9.76.09,11.77l22.05,18.24c2.23,1.84,9.16.77,10.85-1.46,1.45-1.92,1.99-8.91.18-10.43ZM690.97,729.39c0-4.46-3.61-8.07-8.07-8.07s-8.07,3.61-8.07,8.07,3.61,8.07,8.07,8.07,8.07-3.61,8.07-8.07ZM364.31,780.37l-20.63-14.2c-2.62-1.8-9.73-.08-11.18,2.71-1.31,2.52-.43,9.33,1.96,10.96l21.91,14.98c2.54,1.73,9.85-.64,10.92-3.3,1.14-2.84-.45-9.4-2.99-11.14ZM552.38,846.63l18.15-10.95c2.66-1.6,3.9-8.4,2.55-10.92-1.35-2.52-8.1-4.87-10.6-3.38l-18.36,10.94c-2.68,1.6-4.41,7.76-3.04,10.41,1.65,3.2,8.62,5.51,11.31,3.89ZM302.81,882.28c5.76.03,10.11-4.33,10.02-8.4-.09-4.27-4.34-8.3-9.1-8.51-6.06-.27-10.6,3.45-10.72,8.61-.09,3.83,4.21,8.27,9.8,8.3ZM446.64,980.03l10.12-24.77c1.23-3-1.8-9.34-4.68-10.16-3.58-1.02-9.56,1.41-10.84,4.54l-9.76,23.87c-1.59,3.89,1.07,10.44,4.99,11.34,2.87.66,9-1.94,10.18-4.82Z"/>
      <path class="st4" d="M122.11,713.99c1.81,1.53,1.27,8.52-.18,10.43-1.69,2.24-8.62,3.3-10.85,1.46l-22.05-18.24c-2.42-2-2.01-9.6-.09-11.77s8.4-2.73,10.69-.8l22.47,18.92Z"/>
      <path class="st4" d="M446.64,980.03c-1.18,2.88-7.31,5.48-10.18,4.82-3.92-.9-6.58-7.45-4.99-11.34l9.76-23.87c1.28-3.14,7.26-5.56,10.84-4.54,2.88.82,5.91,7.16,4.68,10.16l-10.12,24.77Z"/>
      <path class="st4" d="M364.31,780.37c2.54,1.75,4.13,8.3,2.99,11.14-1.07,2.66-8.38,5.03-10.92,3.3l-21.91-14.98c-2.39-1.64-3.27-8.45-1.96-10.96,1.45-2.79,8.56-4.51,11.18-2.71l20.63,14.2Z"/>
      <path class="st4" d="M552.38,846.63c-2.69,1.62-9.66-.69-11.31-3.89-1.37-2.66.36-8.81,3.04-10.41l18.36-10.94c2.5-1.49,9.25.86,10.6,3.38,1.35,2.52.11,9.31-2.55,10.92l-18.15,10.95Z"/>
      <path class="st4" d="M471.53,685.7c-3.02.67-9.11-2.88-9.95-5.91-.84-3.05,2.44-9.53,5.63-10.18l19.01-3.86c3.02-.61,8.42,3.84,8.81,6.66.43,3.07-2.79,8.72-5.78,9.38l-17.72,3.91Z"/>
      <path class="st15" d="M302.81,882.28c-5.59-.03-9.89-4.47-9.8-8.3.12-5.16,4.66-8.87,10.72-8.61,4.76.21,9.01,4.24,9.1,8.51.09,4.07-4.26,8.43-10.02,8.4Z"/>
      <path class="st15" d="M293.51,651.09c-8.96,1.33-10.8-4.19-11.05-9.2-.22-4.58,2.77-10.39,9.55-9.96,3.43.21,7.21,5.36,7.42,8.37.24,3.48-2.55,10.29-5.92,10.79Z"/>
      <circle class="st15" cx="682.9" cy="729.39" r="8.07"/>
    </g>
    <g>
      <path class="st8" d="M631.24,681.17c-37.01-9.99,36.33-121.83-49.94-158.23-49.42-20.85-99.92-3.32-150.1,9.89-112.33,29.56-147.63-57.66-245.7-29.9l-57.82,16.37c-30.67,8.68-72.27,9.32-100.6-11.25,15.9-78.88,40.3-154.89,77.03-226.66,17.91-34.99,36.74-67.2,56.5-100.88,17.28-29.44,36.06-56.19,58.25-81.95C299.62,4.87,437.37-8.1,542.19,50.86c24.17,13.6,45.22,28.07,68.27,43.28,154.85,102.16,155.16,285.16,140.86,453.74-24.45-8.77-37.35-29.43-63.72-29.46-15.79-.02-27.67,11.36-27.58,26.96.06,10.03,1.81,20.29,5.07,29.93,18.84,55.75-14.47,111.09-33.85,105.86ZM253.78,159.3l8.56-21.67c9.84-24.91,46.77-.63,68.33-43.23,7.65-15.12,24.4-23.69,40.62-16.79,11.31,4.81,23.76.99,28.31-10.91,3.55-9.28-.37-21.08-11.24-25.74-34.78-14.91-74.69-.81-91.97,33.16-3.36,6.61-9.99,10.11-17.44,10.5-22.34,1.18-41.35,12.4-51,32.63-13.36,28.01-11.41,40.32-34.98,55.38-15.27,9.76-27.09,24.52-28.69,42.52-1.15,12.94,7.47,22.88,18.62,23.66,12.74.89,20.74-10.07,22.06-20.46,1.99-15.7,30.69-13.14,48.82-59.06ZM629.96,156.91c-3.13-8.24-6.61-13.72-11.62-18.75-2.18-2.2-10.12-1.26-11.6,1.3-1.27,2.19-.89,7.66.45,9.87l7.87,12.94c1.66,2.74,5.94,5.06,9.17,4.66,2.69-.33,6.95-6.78,5.73-10.01ZM661.22,166.62c-1.24-6.7-3.16-13.2-5.16-18.22-1.07-2.68-8.26-4.12-10.61-2.65-2.02,1.25-4.57,6.52-3.87,8.85l4.29,14.34c.68,2.26,6,4.72,8.34,4.83s7.48-4.63,7.01-7.14ZM503.59,317.51c2.26.13,6.99-1.32,7.64-3.3,3.2-9.79-16.76-16.35-24.41-18.47-2.41-.67-7.75,2.97-8.27,5.29s2.57,6.45,5.11,7.59l19.93,8.89ZM356.76,313.61c2.33-.81,5.27-4.81,5.19-7.39-.34-10.8-21.99-2.41-32.18,5.05-2.08,1.52-2.52,8.03-.93,9.78,4.68,5.14,10.76-1.45,27.91-7.43ZM367.29,363.94c2.18.94,8.09-3.62,7.74-5.77-.29-1.79-1.98-5.95-3.89-6.81l-16.44-7.43c-2.25-1.02-7.99,2.5-8.31,4.91-.27,2.07,1.67,6.78,3.61,7.62l17.29,7.49ZM478.9,363.69l13.32-4.58c2.98-1.02,6.14-5.12,5.71-8.52-1.28-10.12-20.51-1.15-26.38,2.27-2.17,1.27-2.73,8.58-.88,10.08,1.55,1.25,5.93,1.54,8.23.75ZM297.74,388.92l-.26-22.24c-.04-3.16-5.69-7.28-8.54-6.94-2.49.3-7.28,4.6-7.29,7.15l-.07,18.61c0,2.62,4.61,7.99,7.11,7.39,2.25-.54,6.11-2.4,9.04-3.98ZM541.43,372.08c1.62-3.47.45-9.04-2.65-11.15-2.34-1.59-9.32-.17-10.75,2.23-5.3,8.87-14.09,29.36-1.27,29.67,8.91.22,7.38-5.18,14.67-20.75ZM562.12,388.06l7.4-13.58c1.88-3.45.39-9-3.15-11.45-2.58-1.79-9.21.25-10.83,3.19l-8.47,15.39c-1.75,3.18.81,10.16,3.98,11,3.78,1,9.43-1.52,11.08-4.55ZM587.25,387.31l4.33-12.93c.98-2.91-2.12-9.15-4.95-9.73-3.19-.66-9.42,1.79-10.39,4.8l-4.72,14.75c-.92,2.86,3.88,8.77,7.01,8.8,2.64.02,7.83-3.02,8.72-5.69ZM271.68,378.97l-5.2-9.37c-1.02-1.83-6.61-1.53-7.97.11-5.5,6.68-.51,15.82,5.33,21.66,2.26,2.26,9.64.93,10.53-2.1.71-2.42-.99-7.24-2.69-10.3ZM322.76,393.09l2.29-17.15c.54-4.06-2.63-9.14-6.39-9.55-2.75-.3-9,3.1-9.38,6.05l-2.47,18.96c-.37,2.88,5.13,7.97,7.82,8.05s7.76-3.61,8.13-6.36ZM428.27,445.08c36.86-3.62,53.97-45.36,40.28-46.49-12.08-1-9.1,30.48-42.15,33.27-35.44,2.99-37.47-33.08-48.25-27.38-12.74,6.73,12.74,44.28,50.12,40.61ZM659.94,634.85c.53-5.19-4.69-9.08-9.5-8.45-9.45,1.23-3.08,11.49-13.43,22.11-3.64,3.73-4.7,10.1-1.14,13.18,8.86,7.65,22.21-8.78,24.06-26.83Z"/>
      <path class="st11" d="M253.78,159.3c-18.13,45.91-46.83,43.35-48.82,59.06-1.32,10.39-9.32,21.34-22.06,20.46-11.15-.77-19.77-10.71-18.62-23.66,1.6-18,13.41-32.76,28.69-42.52,23.57-15.06,21.62-27.38,34.98-55.38,9.65-20.23,28.66-31.45,51-32.63,7.44-.39,14.07-3.89,17.44-10.5,17.28-33.98,57.19-48.08,91.97-33.16,10.87,4.66,14.79,16.46,11.24,25.74-4.55,11.89-17,15.72-28.31,10.91-16.21-6.9-32.96,1.67-40.62,16.79-21.56,42.61-58.5,18.32-68.33,43.23l-8.56,21.67Z"/>
      <path class="st6" d="M428.27,445.08c-37.38,3.67-62.87-33.88-50.12-40.61,10.78-5.7,12.82,30.38,48.25,27.38,33.05-2.79,30.06-34.27,42.15-33.27,13.7,1.14-3.42,42.88-40.28,46.49Z"/>
      <path class="st2" d="M659.94,634.85c-1.85,18.05-15.2,34.48-24.06,26.83-3.57-3.08-2.5-9.45,1.14-13.18,10.35-10.61,3.98-20.87,13.43-22.11,4.81-.63,10.03,3.26,9.5,8.45Z"/>
      <path class="st12" d="M541.43,372.08c-7.29,15.57-5.75,20.97-14.67,20.75-12.83-.31-4.03-20.8,1.27-29.67,1.43-2.4,8.41-3.82,10.75-2.23,3.1,2.11,4.27,7.68,2.65,11.15Z"/>
      <path class="st12" d="M297.74,388.92c-2.94,1.58-6.8,3.44-9.04,3.98-2.5.6-7.12-4.77-7.11-7.39l.07-18.61c0-2.55,4.8-6.85,7.29-7.15,2.85-.34,8.5,3.78,8.54,6.94l.26,22.24Z"/>
      <path class="st0" d="M562.12,388.06c-1.65,3.03-7.3,5.55-11.08,4.55-3.18-.84-5.73-7.81-3.98-11l8.47-15.39c1.62-2.95,8.25-4.99,10.83-3.19,3.54,2.46,5.03,8,3.15,11.45l-7.4,13.58Z"/>
      <path class="st0" d="M322.76,393.09c-.37,2.75-5.44,6.45-8.13,6.36s-8.2-5.18-7.82-8.05l2.47-18.96c.38-2.95,6.64-6.35,9.38-6.05,3.76.41,6.93,5.49,6.39,9.55l-2.29,17.15Z"/>
      <path class="st10" d="M629.96,156.91c1.23,3.23-3.04,9.68-5.73,10.01-3.24.4-7.51-1.93-9.17-4.66l-7.87-12.94c-1.34-2.21-1.72-7.68-.45-9.87,1.48-2.55,9.42-3.49,11.6-1.3,5.01,5.04,8.48,10.51,11.62,18.75Z"/>
      <path class="st9" d="M356.76,313.61c-17.15,5.99-23.23,12.58-27.91,7.43-1.59-1.75-1.15-8.25.93-9.78,10.18-7.47,31.84-15.85,32.18-5.05.08,2.58-2.86,6.58-5.19,7.39Z"/>
      <path class="st14" d="M503.59,317.51l-19.93-8.89c-2.55-1.14-5.64-5.26-5.11-7.59s5.87-5.96,8.27-5.29c7.65,2.12,27.61,8.67,24.41,18.47-.65,1.98-5.37,3.44-7.64,3.3Z"/>
      <path class="st0" d="M587.25,387.31c-.89,2.67-6.08,5.71-8.72,5.69-3.13-.02-7.92-5.93-7.01-8.8l4.72-14.75c.96-3.01,7.2-5.46,10.39-4.8,2.82.58,5.92,6.81,4.95,9.73l-4.33,12.93Z"/>
      <path class="st10" d="M661.22,166.62c.47,2.51-4.67,7.25-7.01,7.14s-7.67-2.57-8.34-4.83l-4.29-14.34c-.7-2.33,1.85-7.6,3.87-8.85,2.35-1.46,9.54-.02,10.61,2.65,2.01,5.01,3.92,11.52,5.16,18.22Z"/>
      <path class="st3" d="M478.9,363.69c-2.31.79-6.68.5-8.23-.75-1.86-1.5-1.3-8.81.88-10.08,5.87-3.42,25.1-12.39,26.38-2.27.43,3.4-2.73,7.49-5.71,8.52l-13.32,4.58Z"/>
      <path class="st16" d="M367.29,363.94l-17.29-7.49c-1.93-.84-3.88-5.55-3.61-7.62.32-2.41,6.06-5.93,8.31-4.91l16.44,7.43c1.91.86,3.6,5.02,3.89,6.81.35,2.16-5.56,6.72-7.74,5.77Z"/>
      <path class="st1" d="M271.68,378.97c1.7,3.06,3.4,7.88,2.69,10.3-.89,3.04-8.27,4.36-10.53,2.1-5.84-5.84-10.83-14.98-5.33-21.66,1.35-1.64,6.95-1.94,7.97-.11l5.2,9.37Z"/>
    </g>
  </g>
</svg>