<?xml version="1.0" encoding="UTF-8"?>
<svg id="_레이어_1" data-name="레이어_1" xmlns="http://www.w3.org/2000/svg" version="1.1" viewBox="0 0 208.05 451.68">
  <!-- Generator: Adobe Illustrator 30.1.0, SVG Export Plug-In . SVG Version: 2.1.1 Build 136)  -->
  <defs>
    <style>
      .st0 {
        fill: #c82f20;
      }

      .st1 {
        fill: #d42e22;
      }

      .st2, .st3 {
        fill: #fd998a;
      }

      .st4 {
        fill: #351b0a;
      }

      .st5 {
        fill: #d83421;
      }

      .st6 {
        fill: #341a09;
      }

      .st7 {
        fill: #ee472c;
      }

      .st8 {
        fill: #ed492d;
      }

      .st9 {
        fill: #ec482c;
      }

      .st10 {
        fill: #0b0201;
      }

      .st11 {
        fill: #050102;
      }

      .st3 {
        stroke: #050102;
        stroke-miterlimit: 10;
        stroke-width: 10px;
      }
    </style>
  </defs>
  <g>
    <path class="st3" d="M193.68,13.52c-20.92-10.21-45.56-10.02-68.44-5.77-2.17.4-4.29,1.02-6.35,1.81-8.53,3.29-20.47,6.45-27.97,11.53l-2.32,1.41-5.96,3.8c-3.37,2.15-6.39,4.48-9.03,7.2-.51.52-1.12,1.06-1.78,1.6-2.23,1.83-4.25,3.92-5.94,6.26-.44.61-.89,1.23-1.33,1.84-2.12,2.91-3.35,4.67-5.01,8.37l-1.08,2.35c-2.53,3.57-3.62,7.32-4.94,11.81-.85,1.97-1.32,5-1.87,6.79-6.55,21.51-12.76,43.12-18.13,64.96l-6.85,28.05-6.25,33.83c-1.43,7.71-5.33,15.59-5.18,23.76l-.49,6.33c-4.19,29.63-8.01,59.3-9.1,88.99-.93,25.42-1.03,50.87.87,76.18,2.55,8.35,5.21,16.35,12.1,22,2.87,2.31,8.4,6.73,11.9,8.65,20.03,11,41.24,19.57,64.1,21.35,1.75.14,3.14,0,5.18-.18,9.28,1.68,20.93-8.65,25.42-14.83.63-.63,1.14-1.36,1.51-2.17l.19-.4.14-.37.68-1.23c1.28-2.05,2.19-4.32,2.62-6.7,1.51-8.49,1.8-17.01,2.16-26.53,1.83-49.16,4.45-98.99,16.19-143.77,8.12-51.08,30.82-149.47,49.56-198.32,4.97-12.98,5.71-19.12,3.86-27.84-.59-2.83-1.63-5.69-3.66-7.75-1.45-1.49-2.99-2.29-4.79-3.02"/>
    <g>
      <path class="st7" d="M125.24,7.75c-2.17.4-4.29,1.02-6.35,1.81-8.53,3.29-20.47,6.45-27.97,11.53l-2.32,1.41-5.96,3.8c-3.37,2.15-6.39,4.48-9.03,7.2-.51.52-1.12,1.06-1.78,1.6-2.23,1.83-4.25,3.92-5.94,6.26-.44.61-.89,1.23-1.33,1.84-2.12,2.91-3.35,4.67-5.01,8.37l-1.08,2.35c-2.53,3.57-3.62,7.32-4.94,11.81-.85,1.97-1.32,5-1.87,6.79-6.55,21.51-12.76,43.12-18.13,64.96l-6.85,28.05-6.25,33.83c-1.43,7.71-5.33,15.59-5.18,23.76l-.49,6.33c-4.19,29.63-8.01,59.3-9.1,88.99-.93,25.42-1.03,50.87.87,76.18,2.55,8.35,5.21,16.35,12.1,22,2.87,2.31,8.4,6.73,11.9,8.65,20.03,11,41.24,19.57,64.1,21.35,1.75.14,3.14,0,5.18-.18,5.52-7.46,9.14-14.72,9.03-25.04l-.28-26.04c-.11-10.4-.16-20.84-.11-31.31,0-.28,0-.55.01-.83.01-2.36.03-4.74.06-7.11.03-2.78.07-5.55.12-8.33.04-2.38.09-4.77.14-7.15.01-.4.02-.79.03-1.19.04-1.76.09-3.51.14-5.27.12-4.28.28-8.55.46-12.82.07-1.6.14-3.19.22-4.79.02-.57.05-1.13.08-1.7.11-2.1.22-4.21.34-6.31.15-2.67.31-5.34.49-8.01.03-.37.05-.75.08-1.13.07-1.06.15-2.13.23-3.19.1-1.47.22-2.93.33-4.39.11-1.46.23-2.92.36-4.38.09-1.09.19-2.18.29-3.27.46-5.18.99-10.36,1.58-15.52.3-2.64.62-5.28.96-7.92.17-1.32.34-2.64.52-3.95.02-.18.05-.36.07-.53.28-2.07.57-4.13.88-6.19,0-.03.01-.06.01-.09.02-.14.04-.28.06-.42.23-1.53.47-3.06.71-4.59.03-.2.06-.39.09-.59l1.83-17.88c.01-.06.02-.11.03-.17.5-3.18,1.03-6.34,1.58-9.51.36-2.12.74-4.24,1.13-6.36.37-2.03.74-4.06,1.13-6.08.5-2.64,1.02-5.29,1.55-7.93.29-1.42.57-2.85.87-4.27.01-.04.02-.08.02-.12,1.01-4.94,2.06-9.87,3.15-14.79,3.28-14.89,6.83-29.72,10.44-44.54,1.36-5.58,2.72-11.15,4.09-16.73,1.12-4.58,2.23-9.15,3.33-13.73.95-3.94,1.9-7.89,2.83-11.84.04-.02.09-.04.14-.07.32-1.13.34-2.02.55-2.52l1.71-4.42c.08-.07.15-.13.2-.2.06-.06.11-.13.15-.19.09-.13.17-.26.22-.39.02-.07.05-.13.06-.2.01-.06.03-.11.04-.17.05-.21.1-.42.15-.63.06-.27.13-.53.2-.8.12-.47.25-.94.38-1.4.06-.22.12-.43.19-.65.12-.41.24-.82.37-1.22,0-.01.01-.02.01-.03s0-.02,0-.03c.09-.3.19-.59.28-.88.05-.16.1-.33.16-.5.27-.82.55-1.63.82-2.45.09-.24.17-.51.26-.77.09-.26.18-.51.26-.77.18-.52.36-1.05.53-1.57.09-.26.17-.52.26-.78.09-.26.17-.52.25-.78.18-.55.35-1.09.51-1.64.07-.26.15-.52.22-.78.29-1.02.56-2.05.78-3.08.07-.35.15-.7.21-1.06.03-.17.06-.34.09-.52.06-.32.11-.65.15-.98.01-.03.02-.07.02-.1.05-.4.1-.81.14-1.21.01-.08.01-.15.02-.23.02-.21.03-.42.05-.63.01-.17.02-.33.02-.49.02-.21.03-.42.02-.62,0-.06,0-.11,0-.17v-.22c0-.43,0-.85-.03-1.28-.01-.19-.02-.39-.04-.58-.01-.19-.03-.39-.05-.58,0-.1-.02-.19-.03-.29-.03-.29-.07-.59-.12-.88-.06-.4-.13-.79-.21-1.18l-2.06-3.05h-1c-.19.11-1.08.62-1.17.69-.08,0-.77-.63-.83-.69l-3.1.02c-8.69,2.79-60.34,7.15-71.97-4.7-1.48-1.52.25-4,2.21-3.21,12.57,5.08,25.41,6.58,38.73,5.96,1.32-.06,2.77-.17,4.22-.33,2.42-.27,4.87-.54,6.97-.63,4.98-.22,10.09-.39,14.82-2.01.07-.03.15-.05.22-.06-.04,0-.07,0-.11.02,1.72-.55,3.42-1.17,5.1-1.84.83-.34,1.67-.69,2.49-1.05,3.1-1.35,6.12-2.89,9.08-4.55,1.34-.75,2.66-1.52,3.97-2.31,5.89-3.53,11.6-7.45,17.31-11.26,3.39-3.56,7.25-7.35,11.16-9.98-20.92-10.21-45.56-10.02-68.44-5.77Z"/>
      <g>
        <path class="st1" d="M187.21,18.79c2.09-1.96,4.27-3.8,6.46-5.28,1.8.73,3.34,1.53,4.79,3.02,2.03,2.06,3.07,4.92,3.66,7.75,1.85,8.72,1.11,14.86-3.86,27.84-18.74,48.85-41.44,147.24-49.56,198.32-11.74,44.78-14.36,94.61-16.19,143.77-.36,9.52-.65,18.04-2.16,26.53-.43,2.38-1.34,4.65-2.62,6.7l-.68,1.23-.14.37-.19.4c-.37.81-.88,1.54-1.51,2.17-4.49,6.18-16.14,16.51-25.42,14.83,5.52-7.46,9.14-14.72,9.03-25.04l-.28-26.04c-.11-10.4-.16-20.84-.11-31.31,0-.28,0-.55.01-.83.01-2.36.03-4.74.06-7.11.03-2.78.07-5.55.12-8.33.04-2.38.09-4.77.14-7.15.01-.4.02-.79.03-1.19.04-1.76.09-3.51.14-5.27.12-4.28.28-8.55.46-12.82.07-1.6.14-3.19.22-4.79.02-.57.05-1.13.08-1.7.11-2.1.22-4.21.34-6.31.15-2.67.31-5.34.49-8.01.03-.37.05-.75.08-1.13.07-1.06.15-2.13.23-3.19.1-1.47.22-2.93.33-4.39.11-1.46.23-2.92.36-4.38.09-1.09.19-2.18.29-3.27.46-5.18.99-10.36,1.58-15.52.3-2.64.62-5.28.96-7.92.17-1.32.34-2.64.52-3.95.02-.18.05-.36.07-.53.28-2.07.57-4.13.88-6.19,0-.03.01-.06.01-.09.02-.14.04-.28.06-.42.23-1.53.47-3.06.71-4.59.03-.2.06-.39.09-.59l1.83-17.88c.01-.06.02-.11.03-.17.5-3.18,1.03-6.34,1.58-9.51.36-2.12.74-4.24,1.13-6.36.37-2.03.74-4.06,1.13-6.08.5-2.64,1.02-5.29,1.55-7.93.29-1.42.57-2.85.87-4.27.01-.04.02-.08.02-.12,1.01-4.94,2.06-9.87,3.15-14.79,3.28-14.89,6.83-29.72,10.44-44.54,1.36-5.58,2.72-11.15,4.09-16.73,1.12-4.58,2.23-9.15,3.33-13.73.95-3.94,1.9-7.89,2.83-11.84.04-.02.09-.04.14-.07.32-1.13.34-2.02.55-2.52l1.71-4.42c.08-.07.15-.13.2-.2.06-.06.11-.13.15-.19.09-.13.17-.26.22-.39.02-.07.05-.13.06-.2.01-.06.03-.11.04-.17.05-.21.1-.42.15-.63.06-.27.13-.53.2-.8.12-.47.25-.94.38-1.4.06-.22.12-.43.19-.65.12-.41.24-.82.37-1.22,0-.01.01-.02.01-.03s0-.02,0-.03c.08-.26.17-.56.28-.88.05-.16.1-.33.16-.5.28-.87.59-1.79.82-2.45.09-.24.17-.51.26-.77.09-.26.18-.51.26-.77.18-.52.36-1.05.53-1.57.09-.26.17-.52.26-.78.09-.26.17-.52.25-.78.18-.55.35-1.09.51-1.64.07-.26.15-.52.22-.78.29-1.02.56-2.05.78-3.08.07-.35.15-.7.21-1.06.03-.17.06-.34.09-.52.06-.32.11-.65.15-.98.01-.03.02-.07.02-.1.05-.4.1-.81.14-1.21.01-.08.01-.15.02-.23.02-.21.03-.42.05-.63.01-.17.02-.33.02-.49.02-.21.03-.42.02-.62,0-.06,0-.11,0-.17v-.22c0-.43,0-.85-.03-1.28-.01-.19-.02-.39-.04-.58-.01-.19-.03-.39-.05-.58,0-.1-.02-.19-.03-.29-.03-.29-.07-.59-.12-.88-.06-.4-.13-.79-.21-1.18-.23-1.08-1.15-2.67-2.06-3.05h-3l-3.1.02c.98-.44-14.95-.12-13.11-.72l38.77-21.21c4.38-2.39,8.44-5.32,12.07-8.74Z"/>
        <g>
          <path class="st7" d="M153.4,50.14c.1-.07.99-.57,1.17-.69h-2c.05.05.78.72.83.69Z"/>
          <path class="st7" d="M155.58,49.45l2.06,3.05c-.23-1.08-1.16-2.67-2.06-3.05Z"/>
        </g>
        <path class="st10" d="M154.58,48.22c-1.84.6-4.12.81-5.1,1.25-8.69,2.79-60.34,7.15-71.97-4.7-1.48-1.52.25-4,2.21-3.21,12.57,5.08,25.41,6.58,38.73,5.96,1.32-.06,2.77-.17,4.22-.33,2.42-.27,4.87-.54,6.97-.63,4.99-.22,10.1-.39,14.84-2.02l.2-.05c4.12-.78,8.23-1.74,12.24-2.94,1.01-.3,2.02-.62,3.02-.96.5-.16,1-.33,1.49-.51.99-.35,1.97-.71,2.94-1.1.49-.19.97-.38,1.45-.59,1.94-.81,3.84-1.69,5.69-2.65.9-.48,1.8-.97,2.67-1.48,1.91-1.11,3.76-2.32,5.53-3.63.7-.52,1.39-1.06,2.06-1.61,1.19-.97,2.34-2,3.44-3.09.37-.36.73-.73,1.09-1.1.72-.75,1.41-1.52,2.08-2.32,10.11-12.03,14.53,9.88-33.8,25.71Z"/>
        <path class="st1" d="M194.57,18.37c-.16-.09-.33-.18-.5-.25"/>
        <path class="st1" d="M191.68,17.64"/>
        <path class="st1" d="M192.58,17.68"/>
        <path class="st5" d="M127.73,427.45h0Z"/>
      </g>
      <path class="st11" d="M51.94,213.58c-1.65,2.57-5.39,3.22-7.85,1.43-4.78-3.3-2.24-11.12,3.63-10.72h.12c4.44.4,6.62,5.72,4.1,9.29Z"/>
      <path class="st4" d="M44.57,196.22c-.55.01-1.76-.33-2.17-.72-.49-.46-.1-2.37.58-2.76,2.86-1.63,9.96-3.84,9.65-.26-.24,2.78-3.99,1.47-8.06,3.73h0Z"/>
      <path class="st6" d="M64.48,248.74c-16.58-1.05-24.9-19.36-19.1-21.1,5.61-1.69,3.08,13.59,19.19,15.23,6.8.69,13.85-3.54,17.1-10.1.47-.95,2.72-1.78,3.66-1.57,6.19,1.36-4.42,18.59-20.85,17.55h0Z"/>
      <path class="st4" d="M102.05,203.75c-.48.29-1.74.36-2.27.24-1.16-1.02-2.36-1.64-3.44-2.12-2.2-.99-3.88-1.39-3.65-3.24.17-1.39,1.26-1.68,2.66-1.39.01,0,.02,0,.03.01,2.22.46,5.2,2.34,6.69,3.67.58.53.56,2.48-.02,2.83Z"/>
      <path class="st2" d="M102.4,228.93c-.01.27-.09.52-.23.75-.39.84-.77,1.68-1.16,2.53-.17.3-.41.54-.71.71-.16.07-.32.14-.48.2-.52.17-1.08.05-1.54-.2-.24-.12-.42-.29-.56-.51-.18-.2-.3-.42-.36-.68-.09-.27-.1-.53-.04-.8.01-.27.09-.51.24-.74.38-.85.77-1.69,1.15-2.53.08-.13.17-.25.28-.36.12-.14.27-.26.44-.36.16-.07.32-.14.48-.2.51-.17,1.07-.05,1.54.2.23.12.42.3.56.51.18.2.3.42.36.68.08.27.09.54.03.8Z"/>
      <path class="st2" d="M108.86,229.86c-.02.18-.05.36-.08.53-.22,1.15-.63,2.25-1.21,3.26-.56.96-1.79,1.22-2.74.71-.37-.19-.69-.59-.85-1-.03-.06-.05-.13-.07-.19-.14-.5-.06-1.09.2-1.54.14-.23.26-.47.37-.71.17-.47.31-.96.4-1.45.01-.05.02-.1.03-.15.04-.4.05-.81.03-1.21-.02-.53.24-1.03.59-1.41.36-.4.9-.57,1.41-.59.5-.02,1.07.24,1.42.59.38.38.56.88.58,1.41.03.58,0,1.17-.08,1.75Z"/>
      <path class="st2" d="M17.21,223.06c-.56,1.6-.79,3.36-.63,5.05.05.54.19,1.02.59,1.41.35.35.92.61,1.41.59s1.05-.19,1.41-.59c.34-.37.63-.89.59-1.41-.08-.81-.06-1.61.05-2.41l-.07.53c.1-.72.27-1.42.51-2.1.17-.47.04-1.12-.2-1.54s-.72-.81-1.2-.92c-.51-.12-1.09-.09-1.54.2s-.74.68-.92,1.2h0Z"/>
      <path class="st2" d="M25.94,223.33c-.3.33-.58.69-.78,1.09s-.38.82-.48,1.26-.16.89-.15,1.33c0,.31.06.63.11.93.02.15.06.3.1.44.15.49.47.93.92,1.2s1.06.36,1.54.2.95-.46,1.2-.92.36-1.02.2-1.54c-.05-.17-.09-.34-.11-.51l.07.53c-.04-.28-.04-.57,0-.85l-.07.53c.04-.3.12-.59.24-.87l-.2.48c.11-.25.24-.48.41-.69l-.31.4c.05-.06.1-.12.15-.18.35-.39.59-.87.59-1.41,0-.49-.22-1.08-.59-1.41s-.88-.61-1.41-.59-1.06.19-1.41.59h0Z"/>
      <path class="st2" d="M30.96,224.72c.05.76.15,1.53.34,2.27s.47,1.44.8,2.13c.2.43.75.8,1.2.92.48.13,1.12.07,1.54-.2s.8-.69.92-1.2l.07-.53c0-.36-.09-.7-.27-1.01-.05-.11-.1-.22-.15-.34l.2.48c-.32-.76-.54-1.56-.65-2.37l.07.53c-.03-.22-.05-.45-.06-.68-.03-.54-.21-1.05-.61-1.44-.44-.42-1.36-.64-1.95-.48-.32.09-.63.25-.86.5-.35.38-.62.89-.59,1.41h0Z"/>
      <path class="st11" d="M96.35,219.67c-.13.29-.3.57-.49.84-.25.39-.54.73-.87,1.03-1.29,1.15-3.11,1.62-4.8,1.3-.76-.14-1.49-.44-2.13-.91-1.62-1.12-2.4-2.77-2.48-4.43-.16-3.21,2.25-6.49,6.09-6.23h.11c.96.1,1.82.41,2.54.89.25.17.48.35.69.55,1.84,1.68,2.49,4.57,1.34,6.96Z"/>
      <path class="st2" d="M111.91,227.7c-.07.88-.17,1.76-.28,2.63l.07-.53c-.19,1.4-.43,2.79-.73,4.17-.22,1.02.3,2.21,1.4,2.46,1.01.23,2.22-.3,2.46-1.4.52-2.41.88-4.87,1.08-7.33.09-1.05-.98-2.05-2-2-1.16.05-1.91.88-2,2h0Z"/>
    </g>
    <g>
      <path class="st7" d="M125.24,7.75c-2.17.4-4.29,1.02-6.35,1.81-8.53,3.29-20.47,6.45-27.97,11.53l-2.32,1.41-5.96,3.8c-3.37,2.15-6.39,4.48-9.03,7.2-.51.52-1.12,1.06-1.78,1.6-2.23,1.83-4.25,3.92-5.94,6.26-.44.61-.89,1.23-1.33,1.84-2.12,2.91-3.35,4.67-5.01,8.37l-1.08,2.35c-2.53,3.57-3.62,7.32-4.94,11.81-.85,1.97-1.32,5-1.87,6.79-6.55,21.51-12.76,43.12-18.13,64.96l-6.85,28.05-6.25,33.83c-1.43,7.71-5.33,15.59-5.18,23.76l-.49,6.33c-4.19,29.63-8.01,59.3-9.1,88.99-.93,25.42-1.03,50.87.87,76.18,2.55,8.35,5.21,16.35,12.1,22,2.87,2.31,8.4,6.73,11.9,8.65,20.03,11,41.24,19.57,64.1,21.35,1.75.14,3.14,0,5.18-.18,5.52-7.46,9.14-14.72,9.03-25.04l-.28-26.04c-.11-10.4-.16-20.84-.11-31.31,0-.28,0-.55.01-.83.01-2.36.03-4.74.06-7.11.03-2.78.07-5.55.12-8.33.04-2.38.09-4.77.14-7.15.01-.4.02-.79.03-1.19.04-1.76.09-3.51.14-5.27.12-4.28.28-8.55.46-12.82.07-1.6.14-3.19.22-4.79.02-.57.05-1.13.08-1.7.11-2.1.22-4.21.34-6.31.15-2.67.31-5.34.49-8.01.03-.37.05-.75.08-1.13.07-1.06.15-2.13.23-3.19.1-1.47.22-2.93.33-4.39.11-1.46.23-2.92.36-4.38.09-1.09.19-2.18.29-3.27.46-5.18.99-10.36,1.58-15.52.3-2.64.62-5.28.96-7.92.17-1.32.34-2.64.52-3.95.02-.18.05-.36.07-.53.28-2.07.57-4.13.88-6.19,0-.03.01-.06.01-.09.02-.14.04-.28.06-.42.23-1.53.47-3.06.71-4.59.03-.2.06-.39.09-.59l1.83-17.88c.01-.06.02-.11.03-.17.5-3.18,1.03-6.34,1.58-9.51.36-2.12.74-4.24,1.13-6.36.37-2.03.74-4.06,1.13-6.08.5-2.64,1.02-5.29,1.55-7.93.29-1.42.57-2.85.87-4.27.01-.04.02-.08.02-.12,1.01-4.94,2.06-9.87,3.15-14.79,3.28-14.89,6.83-29.72,10.44-44.54,1.36-5.58,2.72-11.15,4.09-16.73,1.12-4.58,2.23-9.15,3.33-13.73.95-3.94,1.9-7.89,2.83-11.84.04-.02.09-.04.14-.07.32-1.13.34-2.02.55-2.52l1.71-4.42c.08-.07.15-.13.2-.2.06-.06.11-.13.15-.19.09-.13.17-.26.22-.39.02-.07.05-.13.06-.2.01-.06.03-.11.04-.17.05-.21.1-.42.15-.63.06-.27.13-.53.2-.8.12-.47.25-.94.38-1.4.06-.22.12-.43.19-.65.12-.41.24-.82.37-1.22,0-.01.01-.02.01-.03s0-.02,0-.03c.09-.3.19-.59.28-.88.05-.16.1-.33.16-.5.27-.82.55-1.63.82-2.45.09-.24.17-.51.26-.77.09-.26.18-.51.26-.77.18-.52.36-1.05.53-1.57.09-.26.17-.52.26-.78.09-.26.17-.52.25-.78.18-.55.35-1.09.51-1.64.07-.26.15-.52.22-.78.29-1.02.56-2.05.78-3.08.07-.35.15-.7.21-1.06.03-.17.06-.34.09-.52.06-.32.11-.65.15-.98.01-.03.02-.07.02-.1.05-.4.1-.81.14-1.21.01-.08.01-.15.02-.23.02-.21.03-.42.05-.63.01-.17.02-.33.02-.49.02-.21.03-.42.02-.62,0-.06,0-.11,0-.17v-.22c0-.43,0-.85-.03-1.28-.01-.19-.02-.39-.04-.58-.01-.19-.03-.39-.05-.58,0-.1-.02-.19-.03-.29-.03-.29-.07-.59-.12-.88-.06-.4-.13-.79-.21-1.18l-2.06-3.05h-1c-.19.11-1.08.62-1.17.69-.08,0-.77-.63-.83-.69l-3.1.02c-8.69,2.79-60.34,7.15-71.97-4.7-1.48-1.52.25-4,2.21-3.21,12.57,5.08,25.41,6.58,38.73,5.96,1.32-.06,2.77-.17,4.22-.33,2.42-.27,4.87-.54,6.97-.63,4.98-.22,10.09-.39,14.82-2.01.07-.03.15-.05.22-.06-.04,0-.07,0-.11.02,1.72-.55,3.42-1.17,5.1-1.84.83-.34,1.67-.69,2.49-1.05,3.1-1.35,6.12-2.89,9.08-4.55,1.34-.75,2.66-1.52,3.97-2.31,5.89-3.53,11.6-7.45,17.31-11.26,3.39-3.56,7.25-7.35,11.16-9.98-20.92-10.21-45.56-10.02-68.44-5.77Z"/>
      <g>
        <path class="st1" d="M187.21,18.79c2.09-1.96,4.27-3.8,6.46-5.28,1.8.73,3.34,1.53,4.79,3.02,2.03,2.06,3.07,4.92,3.66,7.75,1.85,8.72,1.11,14.86-3.86,27.84-18.74,48.85-41.44,147.24-49.56,198.32-11.74,44.78-14.36,94.61-16.19,143.77-.36,9.52-.65,18.04-2.16,26.53-.43,2.38-1.34,4.65-2.62,6.7l-.68,1.23-.14.37-.19.4c-.37.81-.88,1.54-1.51,2.17-4.49,6.18-16.14,16.51-25.42,14.83,5.52-7.46,9.14-14.72,9.03-25.04l-.28-26.04c-.11-10.4-.16-20.84-.11-31.31,0-.28,0-.55.01-.83.01-2.36.03-4.74.06-7.11.03-2.78.07-5.55.12-8.33.04-2.38.09-4.77.14-7.15.01-.4.02-.79.03-1.19.04-1.76.09-3.51.14-5.27.12-4.28.28-8.55.46-12.82.07-1.6.14-3.19.22-4.79.02-.57.05-1.13.08-1.7.11-2.1.22-4.21.34-6.31.15-2.67.31-5.34.49-8.01.03-.37.05-.75.08-1.13.07-1.06.15-2.13.23-3.19.1-1.47.22-2.93.33-4.39.11-1.46.23-2.92.36-4.38.09-1.09.19-2.18.29-3.27.46-5.18.99-10.36,1.58-15.52.3-2.64.62-5.28.96-7.92.17-1.32.34-2.64.52-3.95.02-.18.05-.36.07-.53.28-2.07.57-4.13.88-6.19,0-.03.01-.06.01-.09.02-.14.04-.28.06-.42.23-1.53.47-3.06.71-4.59.03-.2.06-.39.09-.59l1.83-17.88c.01-.06.02-.11.03-.17.5-3.18,1.03-6.34,1.58-9.51.36-2.12.74-4.24,1.13-6.36.37-2.03.74-4.06,1.13-6.08.5-2.64,1.02-5.29,1.55-7.93.29-1.42.57-2.85.87-4.27.01-.04.02-.08.02-.12,1.01-4.94,2.06-9.87,3.15-14.79,3.28-14.89,6.83-29.72,10.44-44.54,1.36-5.58,2.72-11.15,4.09-16.73,1.12-4.58,2.23-9.15,3.33-13.73.95-3.94,1.9-7.89,2.83-11.84.04-.02.09-.04.14-.07.32-1.13.34-2.02.55-2.52l1.71-4.42c.08-.07.15-.13.2-.2.06-.06.11-.13.15-.19.09-.13.17-.26.22-.39.02-.07.05-.13.06-.2.01-.06.03-.11.04-.17.05-.21.1-.42.15-.63.06-.27.13-.53.2-.8.12-.47.25-.94.38-1.4.06-.22.12-.43.19-.65.12-.41.24-.82.37-1.22,0-.01.01-.02.01-.03s0-.02,0-.03c.08-.26.17-.56.28-.88.05-.16.1-.33.16-.5.28-.87.59-1.79.82-2.45.09-.24.17-.51.26-.77.09-.26.18-.51.26-.77.18-.52.36-1.05.53-1.57.09-.26.17-.52.26-.78.09-.26.17-.52.25-.78.18-.55.35-1.09.51-1.64.07-.26.15-.52.22-.78.29-1.02.56-2.05.78-3.08.07-.35.15-.7.21-1.06.03-.17.06-.34.09-.52.06-.32.11-.65.15-.98.01-.03.02-.07.02-.1.05-.4.1-.81.14-1.21.01-.08.01-.15.02-.23.02-.21.03-.42.05-.63.01-.17.02-.33.02-.49.02-.21.03-.42.02-.62,0-.06,0-.11,0-.17v-.22c0-.43,0-.85-.03-1.28-.01-.19-.02-.39-.04-.58-.01-.19-.03-.39-.05-.58,0-.1-.02-.19-.03-.29-.03-.29-.07-.59-.12-.88-.06-.4-.13-.79-.21-1.18-.23-1.08-1.15-2.67-2.06-3.05h-3l-3.1.02c.98-.44-14.95-.12-13.11-.72l38.77-21.21c4.38-2.39,8.44-5.32,12.07-8.74Z"/>
        <path class="st10" d="M154.58,48.22c-1.84.6-4.12.81-5.1,1.25-8.69,2.79-60.34,7.15-71.97-4.7-1.48-1.52.25-4,2.21-3.21,12.57,5.08,25.41,6.58,38.73,5.96,1.32-.06,2.77-.17,4.22-.33,2.42-.27,4.87-.54,6.97-.63,4.99-.22,10.1-.39,14.84-2.02l.2-.05c4.12-.78,8.23-1.74,12.24-2.94,1.01-.3,2.02-.62,3.02-.96.5-.16,1-.33,1.49-.51.99-.35,1.97-.71,2.94-1.1.49-.19.97-.38,1.45-.59,1.94-.81,3.84-1.69,5.69-2.65.9-.48,1.8-.97,2.67-1.48,1.91-1.11,3.76-2.32,5.53-3.63.7-.52,1.39-1.06,2.06-1.61,1.19-.97,2.34-2,3.44-3.09.37-.36.73-.73,1.09-1.1.72-.75,1.41-1.52,2.08-2.32,10.11-12.03,14.53,9.88-33.8,25.71Z"/>
        <path class="st1" d="M194.57,18.37c-.16-.09-.33-.18-.5-.25"/>
        <path class="st1" d="M191.68,17.64"/>
        <path class="st1" d="M192.58,17.68"/>
        <path class="st5" d="M127.73,427.45h0Z"/>
      </g>
      <path class="st11" d="M51.94,213.58c-1.65,2.57-5.39,3.22-7.85,1.43-4.78-3.3-2.24-11.12,3.63-10.72h.12c4.44.4,6.62,5.72,4.1,9.29Z"/>
      <path class="st4" d="M44.57,196.22c-.55.01-1.76-.33-2.17-.72-.49-.46-.1-2.37.58-2.76,2.86-1.63,9.96-3.84,9.65-.26-.24,2.78-3.99,1.47-8.06,3.73h0Z"/>
      <path class="st6" d="M64.48,248.74c-16.58-1.05-24.9-19.36-19.1-21.1,5.61-1.69,3.08,13.59,19.19,15.23,6.8.69,13.85-3.54,17.1-10.1.47-.95,2.72-1.78,3.66-1.57,6.19,1.36-4.42,18.59-20.85,17.55h0Z"/>
      <path class="st4" d="M102.05,203.75c-.48.29-1.74.36-2.27.24-1.16-1.02-2.36-1.64-3.44-2.12-2.2-.99-3.88-1.39-3.65-3.24.17-1.39,1.26-1.68,2.66-1.39.01,0,.02,0,.03.01,2.22.46,5.2,2.34,6.69,3.67.58.53.56,2.48-.02,2.83Z"/>
      <path class="st2" d="M102.4,228.93c-.01.27-.09.52-.23.75-.39.84-.77,1.68-1.16,2.53-.17.3-.41.54-.71.71-.16.07-.32.14-.48.2-.52.17-1.08.05-1.54-.2-.24-.12-.42-.29-.56-.51-.18-.2-.3-.42-.36-.68-.09-.27-.1-.53-.04-.8.01-.27.09-.51.24-.74.38-.85.77-1.69,1.15-2.53.08-.13.17-.25.28-.36.12-.14.27-.26.44-.36.16-.07.32-.14.48-.2.51-.17,1.07-.05,1.54.2.23.12.42.3.56.51.18.2.3.42.36.68.08.27.09.54.03.8Z"/>
      <path class="st2" d="M108.86,229.86c-.02.18-.05.36-.08.53-.22,1.15-.63,2.25-1.21,3.26-.56.96-1.79,1.22-2.74.71-.37-.19-.69-.59-.85-1-.03-.06-.05-.13-.07-.19-.14-.5-.06-1.09.2-1.54.14-.23.26-.47.37-.71.17-.47.31-.96.4-1.45.01-.05.02-.1.03-.15.04-.4.05-.81.03-1.21-.02-.53.24-1.03.59-1.41.36-.4.9-.57,1.41-.59.5-.02,1.07.24,1.42.59.38.38.56.88.58,1.41.03.58,0,1.17-.08,1.75Z"/>
      <path class="st2" d="M17.21,223.06c-.56,1.6-.79,3.36-.63,5.05.05.54.19,1.02.59,1.41.35.35.92.61,1.41.59s1.05-.19,1.41-.59c.34-.37.63-.89.59-1.41-.08-.81-.06-1.61.05-2.41l-.07.53c.1-.72.27-1.42.51-2.1.17-.47.04-1.12-.2-1.54s-.72-.81-1.2-.92c-.51-.12-1.09-.09-1.54.2s-.74.68-.92,1.2h0Z"/>
      <path class="st2" d="M25.94,223.33c-.3.33-.58.69-.78,1.09s-.38.82-.48,1.26-.16.89-.15,1.33c0,.31.06.63.11.93.02.15.06.3.1.44.15.49.47.93.92,1.2s1.06.36,1.54.2.95-.46,1.2-.92.36-1.02.2-1.54c-.05-.17-.09-.34-.11-.51l.07.53c-.04-.28-.04-.57,0-.85l-.07.53c.04-.3.12-.59.24-.87l-.2.48c.11-.25.24-.48.41-.69l-.31.4c.05-.06.1-.12.15-.18.35-.39.59-.87.59-1.41,0-.49-.22-1.08-.59-1.41s-.88-.61-1.41-.59-1.06.19-1.41.59h0Z"/>
      <path class="st2" d="M30.96,224.72c.05.76.15,1.53.34,2.27s.47,1.44.8,2.13c.2.43.75.8,1.2.92.48.13,1.12.07,1.54-.2s.8-.69.92-1.2l.07-.53c0-.36-.09-.7-.27-1.01-.05-.11-.1-.22-.15-.34l.2.48c-.32-.76-.54-1.56-.65-2.37l.07.53c-.03-.22-.05-.45-.06-.68-.03-.54-.21-1.05-.61-1.44-.44-.42-1.36-.64-1.95-.48-.32.09-.63.25-.86.5-.35.38-.62.89-.59,1.41h0Z"/>
      <path class="st11" d="M96.35,219.67c-.13.29-.3.57-.49.84-.25.39-.54.73-.87,1.03-1.29,1.15-3.11,1.62-4.8,1.3-.76-.14-1.49-.44-2.13-.91-1.62-1.12-2.4-2.77-2.48-4.43-.16-3.21,2.25-6.49,6.09-6.23h.11c.96.1,1.82.41,2.54.89.25.17.48.35.69.55,1.84,1.68,2.49,4.57,1.34,6.96Z"/>
      <path class="st2" d="M111.91,227.7c-.07.88-.17,1.76-.28,2.63l.07-.53c-.19,1.4-.43,2.79-.73,4.17-.22,1.02.3,2.21,1.4,2.46,1.01.23,2.22-.3,2.46-1.4.52-2.41.88-4.87,1.08-7.33.09-1.05-.98-2.05-2-2-1.16.05-1.91.88-2,2h0Z"/>
    </g>
  </g>
  <g>
    <g>
      <path class="st7" d="M-933.73,1110.81c-1.58,0-2.87,1.28-2.87,2.86s1.29,2.87,2.87,2.87,2.86-1.28,2.86-2.87-1.28-2.86-2.86-2.86Z"/>
      <path class="st7" d="M-887.86,1086.13c-2.1,1.68-.53,4.99,1.11,6.27,1.75,1.36,5.17,3.09,6.59-.41,1.44-3.54-4.63-8.31-7.7-5.86Z"/>
      <path class="st7" d="M-865.22,1020.68c-1.9,0-3.44,1.55-3.44,3.45s1.54,3.45,3.44,3.45,3.45-1.55,3.45-3.45-1.54-3.45-3.45-3.45Z"/>
      <path class="st7" d="M-946,1057.04c-2.21,1.55-1.79,5.19-.54,6.61.87.99,3.12,1.81,4.71,1.02,1.37-.68,1.34-4.05.68-5.56-.56-1.24-3.42-3.07-4.85-2.07Z"/>
      <path class="st7" d="M-952.86,1030.29c5.02.61,6.45-2.95,7.51-6.29l-7.51,6.29Z"/>
      <path class="st7" d="M-925.47,998.64c-1.64,0-2.97,1.34-2.97,2.98s1.33,2.98,2.97,2.98,2.98-1.33,2.98-2.98-1.33-2.98-2.98-2.98Z"/>
      <path class="st7" d="M-921.98,983.91c-2.7.71-4.17,3.08-4.48,5.04-.32,1.93,2.3,4.36,4.33,3.73,1.49-.46,3.15-2.62,3.91-4.54.56-1.42-1.57-4.81-3.76-4.23Z"/>
      <path class="st7" d="M-890.43,832.44c0,2.07,1.67,3.74,3.74,3.74s3.74-1.67,3.74-3.74-1.67-3.74-3.74-3.74-3.74,1.67-3.74,3.74Z"/>
      <circle class="st7" cx="-793.39" cy="733.09" r="2.68"/>
      <path class="st7" d="M-816.58,744.72c2.06.71,4.81.87,6.09.11,1.67-.99,2.27-4.11,1.04-4.93-1.8-1.2-5-1.49-6.72-.81-2.77,1.09-2.33,4.96-.41,5.63Z"/>
      <path class="st7" d="M-832.8,749.3c1.53,0,2.77-1.24,2.77-2.77s-1.24-2.77-2.77-2.77-2.77,1.24-2.77,2.77,1.24,2.77,2.77,2.77Z"/>
      <path class="st7" d="M-878.6,755.19c.03-1.86.12-4.8-1.09-4.94-1.49-.17-4.3-.12-6.57,1.33l-1.26,4.59c-.56,2.06,8.91-.69,8.92-.98Z"/>
      <path class="st7" d="M-806.47,768.22c.1-.07.99-.57,1.17-.69h-2c.05.05.78.72.83.69Z"/>
      <path class="st7" d="M-804.29,767.54l2.06,3.05c-.23-1.08-1.16-2.67-2.06-3.05Z"/>
      <path class="st7" d="M-906.1,935.79c-.64.13-1.48,2.75-.83,2.68l3.49-.38c.82-.09-.31-2.77-2.66-2.3Z"/>
      <path class="st7" d="M-905.85,925.66c-.6.69-1.52,1.56-1.13,1.85.26.19,1.32.96,1.33.93-.33,1.19,1.37-4.59-.2-2.78Z"/>
      <path class="st7" d="M-907.79,933.91c-.35,0-.63.28-.63.63s.28.63.63.63.63-.28.63-.63-.28-.63-.63-.63Z"/>
      <path class="st7" d="M-909.2,929.61v-2.16c.04.97.04,1.69,0,2.16Z"/>
      <path class="st7" d="M-907.29,923.41c-.35,0-.63.28-.63.63s.28.63.63.63.63-.28.63-.63-.28-.63-.63-.63Z"/>
      <path class="st7" d="M-810.63,785.57c-.17-1.38-4.84-.77-5.45-2l-1.95-3.98c-.03-.06-.07-.13-.13-.19-.04-.04-.08-.08-.12-.12-.04-.04-.08-.07-.12-.1-.08-.07-.17-.13-.27-.18-.12-.07-.25-.14-.39-.2-.28-.13-.59-.24-.91-.31-.1-.03-.2-.05-.3-.07-.1-.02-.2-.03-.3-.04-.09-.02-.19-.03-.29-.03-.21-.02-.41-.01-.59,0-.1.01-.2.03-.29.05-.06.02-.12.04-.18.06-.06.02-.12.05-.17.09-.01,0-.01.01-.02.01t-.01.02s-.09.07-.12.11c-.04.05-.07.1-.09.16l-1.69,4.93-.05.16c-11.82.15-10.99,2.15-16-3.7-.04-.04-.07-.09-.09-.14-.04-.08-.07-.17-.09-.27-.01-.04-.02-.09-.02-.14,0-.17,0-.36.03-.56.02-.12.04-.24.08-.36,0-.02,0-.04.02-.06.03-.1.06-.19.1-.29.01-.01.01-.03.02-.05.04-.09.08-.17.12-.26.07-.13.14-.26.22-.37.05-.08.11-.16.17-.22.02-.03.04-.05.06-.07.04-.05.08-.09.13-.12,0-.02.01-.03.03-.03.07-.07.15-.12.23-.16.06-.03.13-.06.19-.07,1.26-.24,4.36-.41,5.62-.2.67.11.97,2.34,1.26,2.96.36.77,2.38.36,3.56-.17.29-.14.5-.3.65-.47,0,0,0-.01,0-.02.03-.04.06-.08.08-.13.03-.05.05-.11.06-.16.02-.03.03-.07.03-.11.03-.12.03-.25,0-.39-.05-.3-.24-.63-.55-.97-.07-.08-.15-.17-.24-.25-.07-.07-.15-.14-.23-.21-.12-.11-.25-.22-.38-.31-.2-.16-.43-.31-.68-.46-.42-.26-.89-.52-1.42-.77-.18-.08-.36-.15-.54-.23-.25-.11-.51-.22-.78-.32-.11-.04-.22-.08-.33-.12-.23-.09-.47-.17-.72-.24-.08-.03-.16-.05-.24-.08-.14-.05-.29-.09-.44-.13-.41-.12-.83-.23-1.27-.34-.44-.1-.9-.2-1.37-.29-1.18-.23-2.44-.39-3.79-.48-.27-.02-.54-.04-.82-.05-.27-.01-.55-.02-.83-.03-.15,0-.3-.01-.45-.01-.46-.01-.93,0-1.41.01-.25.01-.51.02-.77.03-.26,0-.53.03-.79.05-.52.03-1.06.08-1.6.14l-3.44.39c-.4.04-.73.09-1.02.15-.14.03-.27.06-.38.09-.06.02-.11.03-.16.05-.04.01-.08.02-.12.04-.05.02-.1.04-.15.06-.04.02-.07.03-.11.05-.01.01-.03.02-.04.02,0,0,0,.01-.01.01h-.02c-.08.08-.14.14-.18.21-.01.02-.02.04-.02.06,0,.03,0,.05,0,.07,0,.04,0,.09.03.13.03.09.1.19.2.29.04.05.1.1.16.15.13.11.28.22.46.33.17.11.37.23.58.36.22.12.45.24.7.38.38.19.78.4,1.2.62.28.14.57.29.86.44.15.08.29.15.44.23.29.15.57.31.86.46.28.16.57.33.84.49.15.1.3.19.45.29.19.12.38.24.55.37.15.09.28.19.42.3.14.1.28.21.4.32.28.23.53.47.74.71.11.12.21.24.29.37.09.12.16.24.23.37.04.07.07.13.09.19h0c.04.08.06.15.08.22.04.1.06.21.08.31.02.16.02.31,0,.46,0,.04-.01.07-.02.1,0,.03-.01.06-.02.09t-.01.02s-.01.08-.03.11c-.02.06-.05.13-.08.19-.03.07-.07.13-.11.2-.04.08-.1.15-.16.23-.07.1-.15.19-.24.28,0,0-.01,0-.01.01-.06.07-.13.14-.21.2-.1.09-.21.18-.33.27-.06.05-.12.1-.19.14-.13.09-.27.18-.41.27-.14.08-.27.16-.42.23-.18.1-.37.19-.57.28-.14.07-.29.13-.44.19-.35.14-.72.27-1.09.38-1.56.46-1.99-2.43-2.99-4.94-1.26.19-4.16.88-5.91,1.4-2.94.87-1.21-5.48.17-8.96-4.03-4.33-10.06,2.42-14.88-3.93l-9.15,6.16-.18.12,3.52,6.66c.08.15.12.29.12.42,0,.08-.01.15-.04.22-.02.07-.05.14-.1.21-.02.04-.05.08-.09.11-.01.03-.02.03-.03.04-.05.06-.1.12-.17.16-.25.22-.59.41-.98.58-.13.06-.27.12-.41.17-1,.39-2.24.73-3.29,1.07-.06.02-.11.03-.16.05,0,.32,0,.64-.04.95-.01.16-.02.32-.04.47-.01.16-.03.31-.05.46-.04.31-.08.61-.15.91.01.01.01.02,0,.03-.05.3-.12.6-.2.9-.09.37-.19.73-.31,1.08-.16.49-.34.97-.55,1.44-.08.19-.17.38-.26.57-.19.42-.41.83-.65,1.24-.05.09-.09.18-.15.26-.05.09-.1.17-.15.26-.5.83-1.06,1.64-1.67,2.45-.08.11-.17.23-.27.34-.47.61-.97,1.21-1.5,1.82-.27.3-.54.61-.82.92-.05.06-.1.11-.15.17-.26.27-.52.55-.77.82-.25.28-.52.56-.8.85-.02.02-.05.05-.07.08-.03.02-.06.05-.09.08-.11.12-.23.25-.36.38-.15.15-.31.31-.46.47-.06.05-.11.11-.16.16,1.42,2.32,4.43,3.6,4.5,5.25.22,4.73-3.71,9.9.15,11.59.75.33,2.34.06,3.24-.35.03-.02.06-.03.09-.06.03-.02.05-.06.07-.09.01,0,.01-.01.01-.02h0c.07-.17.03-.42-.08-.7-.03-.07-.05-.14-.09-.21-.11-.28-.26-.58-.42-.88-.08-.15-.16-.31-.23-.46-.07-.15-.14-.29-.2-.43-.14-.34-.23-.65-.19-.88,0-.02,0-.03,0-.05,0-.04.01-.07.03-.11.44-.92,1.2-2.33,1.54-2.88.03-.05.07-.09.12-.14.01-.01.03-.03.05-.05,0-.01.02-.01.03-.03,0,0,.01,0,.02-.01.01,0,.02,0,.03-.02.05-.04.11-.08.18-.11.11-.06.23-.12.36-.17.08-.03.16-.06.24-.08.13-.04.26-.07.39-.1.29-.06.58-.07.8-.04.04,0,.08.01.11.02.05,0,.09.02.13.04.05.01.09.04.11.06.03.02.05.04.07.07.04.06.06.13.05.21l-.58,4.85,15.56.36.79,15.78c9.25-1.6,7.43,4.73,7.8,10.58.02.25.01.49-.01.71-.01.15-.03.3-.06.44-.03.17-.06.33-.12.48-.01.05-.03.11-.05.16-.07.19-.15.38-.25.56-.02.04-.05.08-.08.13-.07.13-.16.25-.25.37-.08.1-.15.21-.25.3-.07.08-.14.15-.22.22-.12.13-.25.25-.39.35-.12.1-.24.19-.36.27-.03.02-.06.04-.08.05-.15.1-.31.2-.47.29-.16.09-.34.18-.51.26-.01.01-.02.01-.03.01-.18.09-.37.17-.56.24-.19.08-.39.15-.6.22-.01.01-.03.01-.05.02-.29.1-.59.18-.9.26-.32.08-.64.16-.97.22-.99.2-2.07.33-3.19.4-.23.01-.45.03-.68.03-1.68.08-3.44.03-5.2-.11-.52-.03-1.03-.08-1.54-.14-.09-.01-.18-.02-.27-.03-.5-.05-1-.12-1.49-.19-.18-.02-.35-.05-.52-.08-.68-.09-1.34-.21-1.99-.33-.45-.08-.9-.17-1.33-.27-.53-.11-1.04-.23-1.53-.36-.93-.24-1.8-.5-2.57-.77-.33-.11-.64-.22-.94-.34-.01-.01-.02-.01-.04-.02-.15-.06-.3-.12-.44-.19-.19-.08-.36-.16-.53-.25-.67-.33-1.17-.67-1.46-1.01l-16.52,9.67-.21.12,7.14,4.93c-.09.16-.18.32-.29.47-.07.12-.14.23-.23.34-.03.05-.07.11-.12.16-.08.12-.17.23-.27.34-.1.13-.21.26-.33.37-.1.11-.21.21-.32.3-.11.12-.23.22-.35.3-.02.04-.04.05-.07.06-.12.1-.24.19-.36.27-.01.02-.02.03-.04.03-.24.18-.5.33-.76.46-.01.01-.02.02-.04.02-.07.04-.15.08-.22.11-.07.04-.14.08-.22.1-.15.07-.3.14-.45.19-.01.01-.02.02-.04.02-.02.01-.03.01-.05.02-.01,0-.02.01-.03.01-.1.04-.21.07-.31.11-.03.01-.07.02-.1.03-.13.05-.25.09-.38.11-.06.02-.12.04-.19.05-.01,0-.03.01-.04.01-.1.03-.19.05-.29.07-.16.04-.33.07-.49.1-.16.03-.33.06-.5.08-.03.01-.06.01-.1.01-.15.03-.3.05-.45.06h-.04s-.05.01-.08.01c-.06.02-.12.02-.18.02-.1,0-.2.02-.3.02-.1.01-.2.02-.3.02s-.2,0-.31.01c-.13.01-.27.01-.4.01-2.37.05-4.83-.28-6.99-.47.06-.05.13-.1.19-.16.21-.16.41-.33.6-.51.13-.11.25-.22.37-.34.12-.11.24-.24.36-.36.21-.22.42-.45.61-.69.17-.22.34-.45.5-.68.21-.3.4-.61.56-.93.13-.23.24-.46.34-.7.06-.14.12-.28.17-.43.09-.24.17-.48.24-.73.05-.2.1-.4.14-.61h.92c.68,1.03,1.9,2.38,2.03,1.63l.73-4.43c.28-1.69-1.11-3.95-2.76-4.28-.04-.45-.15-1.26-.11-1.68,5.25-17.19,8.23-35.15,17.8-51.34,1.67-2.83,1.8-6.53-.48-9.13-2.04-2.32-5.77-3.17-8.32-.65l.16-2.33,9.77-1.04c-4.53-5.05-7.24-13.65-11.76-12.76-2.53,3.57-3.99,8.51-4.9,12.95-.87,1.65-2.54,4.49-3.09,6.28-6.55,21.51-12.76,43.12-18.13,64.96l-6.85,28.05-6.25,33.83c-1.22,5.93,7.58,3.75,10.93,7.14.02-.04.04-.08.05-.13.15-.43.35-.82.6-1.19,0,0,.01-.02.02-.03.6-.87,1.47-1.57,2.44-2.15,2.08-1.25,4.65-1.91,6.18-2.28,0-.02-.01-.04-.02-.07-.09-.18-.41-.44-.8-.67h-.01c-.11-.07-.23-.14-.35-.2-.11-.05-.23-.11-.34-.15-.07-.03-.14-.06-.21-.08,0,0-.02-.01-.03-.01-.09-.02-.17-.04-.25-.06-.05,0-.1-.01-.14-.01l.11-.16,3.25-4.67s.01.03.01.05c.08.41.18.8.3,1.16.06.2.13.39.21.57,0,0,.01,0,.01.02.04.09.07.18.12.26l.03.06c.05.14.12.28.2.41,0,0,0,.02.02.03.1.19.21.38.32.55.01.01.01.02.02.02.13.19.26.36.4.53.15.18.31.35.48.52.12.12.25.24.38.35.12.1.24.2.36.29.15.11.31.22.47.32.12.08.23.15.35.21.17.1.33.19.5.27.17.08.34.16.52.24.35.15.71.28,1.07.39.11.04.22.07.33.1.11.04.22.07.33.09.21.06.42.11.63.16.05.02.11.03.16.04.2.05.39.09.59.13.76.15,1.53.27,2.28.38.75.11,1.49.21,2.18.33,6.49,1.09,4.41,8.78,7.06,14.64.06-.05.11-.11.16-.16.06-.05.11-.11.16-.16.19-.2.36-.4.53-.6.24-.3.45-.6.63-.9.09-.15.17-.31.24-.46.08-.15.15-.31.21-.46.06-.16.12-.32.16-.47.05-.15.09-.31.13-.47.03-.13.06-.26.08-.39.02-.13.04-.26.05-.4,0-.13.02-.26.03-.4.01-.13.02-.26.02-.4,0-.1,0-.2-.01-.31-.01-.24-.03-.48-.06-.72-.02-.17-.04-.35-.07-.52-.03-.17-.06-.34-.09-.51,0-.05-.02-.1-.03-.14-.05-.22-.11-.44-.16-.66,0-.02,0-.03,0-.05-.06-.21-.13-.44-.19-.65-.07-.21-.14-.43-.21-.65-.12-.37-.25-.73-.38-1.1-.13-.37-.27-.74-.41-1.12-.12-.3-.23-.61-.35-.92-.42-1.13-.85-2.28-1.19-3.48-.1-.35-.2-.71-.28-1.07-.06-.25-.11-.5-.16-.76-.07-.33-.13-.67-.17-1.01-.05-.35-.09-.69-.11-1.04.06.05.12.11.19.16.2.17.4.34.6.5.15.13.31.25.46.37.46.37.94.73,1.43,1.06.28.2.56.39.85.58.58.38,1.17.74,1.78,1.07.32.18.65.35.97.51.32.17.65.33.98.47.33.15.66.29.99.43.34.13.67.26,1.01.38.67.24,1.34.44,2.02.6.67.17,1.35.3,2.03.38.25.03.51.06.76.08.21.02.41.03.62.04.1.01.2.01.3.01.45,0,.89,0,1.33-.03.29-.02.58-.05.87-.09.21-.03.43-.07.64-.11.2-.03.39-.07.58-.12h.01c.27-.06.54-.14.8-.22.01-.04.02-.08.02-.12.07-.35.13-.72.21-1.1.08-.41.16-.84.26-1.26.02-.12.05-.24.08-.35.03-.16.08-.32.12-.47.02-.06.03-.11.05-.17.06-.24.13-.48.21-.71.14-.43.3-.85.5-1.22.12-.26.26-.5.41-.72.15-.22.32-.42.5-.6.03-.03.05-.05.07-.06.13-.12.26-.23.4-.33.15-.09.3-.18.45-.25.16-.07.33-.13.5-.17.18-.04.36-.07.56-.08,4.33-.22,14.4,1.06,14.61,4.66v.05c0,.07-.01.15-.03.22-.01.07-.03.13-.06.2-.01.01-.01.03-.02.04-.03.06-.06.13-.11.19-.09.15-.21.31-.36.46-.02.02-.04.04-.07.07-.08.08-.16.16-.25.23-.06.06-.12.11-.19.16-.59.49-1.36.96-2.1,1.39-.27.16-.54.31-.79.46-.07.05-.13.1-.19.16-.07.06-.13.12-.19.19-.1.12-.2.25-.28.39-.04.06-.08.12-.11.18-.06.11-.12.22-.17.33s-.1.23-.15.34c-.1.26-.2.53-.3.81-.01.02-.01.03-.01.04-.04.12-.09.25-.13.37-.07.21-.14.41-.22.6,0,.01,0,.03-.01.04-.08.21-.16.4-.25.58-.04.09-.08.17-.13.24-.02.04-.04.08-.07.11-.04.08-.09.15-.14.22,0,.01,0,.01,0,.02-.03.04-.06.08-.09.11-.1.13-.22.23-.35.31-.08.05-.17.09-.26.12-1.58.49-6.9-.36-8.45.57-1.83,1.1-3.68,2.52-5.81,3.59-.26.13-.52.25-.79.37-.26.12-.54.23-.81.33-.09.04-.19.07-.28.1-.47.17-.94.31-1.44.42-.21.05-.42.09-.63.12-.16.04-.31.07-.47.08-.02.01-.05.01-.07.01-.24.04-.49.07-.74.08-.31.03-.63.04-.96.04-.24,0-.48-.01-.73-.02-.2-.01-.41-.03-.62-.05-.29-.03-.6-.07-.91-.12-.26-.04-.53-.09-.8-.15-.65-.14-1.33-.33-2.04-.57-.09-.02-.17-.05-.26-.08l5.14,13.12c.29-.14.57-.29.86-.47.15-.08.29-.17.43-.26.18-.11.35-.23.53-.36s.36-.27.55-.41c.18-.14.36-.28.55-.44.18-.15.37-.31.56-.48.22-.19.44-.39.67-.59.27-.24.54-.49.82-.76.28-.27.58-.55.88-.85.29-.28.6-.58.92-.89.19-.2.38-.39.58-.58.15-.16.3-.31.45-.46h0c.6.57,1.01,1.15,1.34,1.67.06.09.12.18.17.26.18.29.35.55.52.78.06.08.12.15.18.22.21.24.45.41.75.49.44.11,1.42.06,2.47.04.16-.01.32-.01.48-.01t.02,0c.37-.01.73-.01,1.07,0,.11,0,.22.01.33.02h.02c.14.01.28.02.41.04.03,0,.06,0,.08.01.06.01.12.02.18.03.08.01.15.02.21.05.13.02.25.06.34.11.05.02.1.05.14.08.03.02.06.04.08.06.02.02.04.04.06.06s.04.04.05.07c.02.04.04.08.05.12.27,1.41.66,4.86.84,6.57.01.14.07.28.15.41.04.07.09.14.15.21.05.07.11.14.18.2.09.08.18.16.29.24.13.1.26.18.4.25.1.05.2.09.3.13.12.05.25.09.38.11.22.05.44.06.65.01.09-.01.17-.04.25-.08.17-.07.32-.18.44-.34.09-.12.17-.27.23-.46.78-2.43-1.26-5.87-1.1-7.91.01-.1.03-.2.06-.3.02-.07.05-.15.1-.23.03-.08.07-.16.13-.24.02-.04.05-.08.09-.13.06-.09.13-.18.21-.27.08-.1.16-.19.25-.28.06-.07.12-.13.19-.2.43-.45.95-.91,1.41-1.42.08-.08.15-.17.22-.26.13-.16.24-.32.35-.49.03-.06.07-.11.1-.17.06-.11.12-.23.17-.34.03-.07.06-.15.09-.22.04-.12.08-.25.1-.38.05-.28.06-.58.01-.89l.02-2c-.79.16-3.15.95-2.88.25.08-.22.19-.47.31-.74.02-.04.03-.07.05-.11.07-.15.14-.31.22-.46.1-.21.21-.41.32-.6.06-.09.11-.17.16-.25.02-.03.04-.06.06-.09.04-.06.07-.11.11-.16.19-.25.38-.44.56-.5l2.85-.98.07-.13,1.17-2.23c.07-.12.18-.27.32-.42.05-.05.1-.1.15-.15.05-.05.09-.09.14-.14.04-.04.09-.08.14-.12.09-.07.17-.13.25-.17l2-1c.07-.03.14-.07.22-.11l.45-.23c.11-.06.22-.12.33-.18.25-.12.49-.25.71-.35.05-.02.11-.05.15-.07.05-.03.1-.05.14-.06,3.78-1.47,12.09.36,13.99,4.71,1.19,2.71,2,5.61,1.89,8.36-.01.15-.02.29-.03.44-.02.25-.05.5-.09.75-.04.25-.08.51-.14.75-.03.13-.06.27-.1.4-.17.63-.4,1.24-.71,1.83-.07.15-.15.29-.24.44-.07.13-.15.27-.24.4-.28.44-.61.87-.99,1.28-.07.08-.14.15-.22.23-.05.05-.11.11-.16.16l3.99.31c0-.06.02-.11.03-.17.5-3.18,1.03-6.34,1.58-9.51.36-2.12.74-4.24,1.13-6.36.37-2.03.74-4.06,1.13-6.08.5-2.64,1.02-5.29,1.55-7.93.29-1.42.57-2.85.87-4.27.01-.04.02-.08.02-.12,1.02-4.94,2.07-9.87,3.15-14.79,3.28-14.89,6.83-29.72,10.44-44.54,1.36-5.58,2.72-11.15,4.09-16.73,1.12-4.58,2.23-9.15,3.33-13.73.95-3.94,1.9-7.89,2.83-11.84.04-.02.09-.04.14-.07.32-1.13.34-2.02.55-2.52l1.71-4.42c.08-.07.15-.13.2-.2.06-.06.11-.13.15-.19.09-.13.17-.26.22-.39.02-.07.05-.13.06-.2l-2.47-14.96ZM-910.42,880.07c-.08.07-.16.13-.24.19.2-.17.4-.34.59-.52-.11.11-.23.22-.35.33ZM-836.62,862.54c-1.96,1.44-3.82,2.57-5.1,2.9-1.2.3-3.45-2.3-3.25-3.52.2-1.22,1.04-2.62,2.18-3.79-1.05,1.13-1.83,2.47-2.02,3.63-.2,1.22,2.05,3.82,3.25,3.52,1.28-.33,3.14-1.46,5.1-2.91.08-.06.15-.12.22-.19-.11.14-.24.26-.38.36Z"/>
      <path class="st7" d="M-909.2,929.61c0,.31-.01.62-.05.92v.02c-.28,3.04-1.92,5.4-4.15,6.86-.13.09-.27.18-.4.25-2.37,1.4-5.33,1.84-8.04,1.09-.15-.04-.29-.09-.44-.14-.26-.09-.52-.18-.77-.29-.19-.08-.38-.18-.57-.28-.09-.04-.18-.09-.27-.15-.05-.03-.1-.05-.14-.08-.05-.02-.09-.05-.13-.08-.24-.15-.47-.31-.69-.48-2.2-1.66-3.65-4.28-4.09-7.15-.01-.02-.01-.04-.01-.06-.27-1.78-.14-3.65.43-5.45.02-.04.04-.08.05-.13.15-.43.35-.82.6-1.19,0,0,.01-.02.02-.03.6-.87,1.47-1.57,2.44-2.15,2.08-1.25,4.65-1.91,6.18-2.28l.4-.06.53-.08c1.04.46,2.66.83,4.01,1.01.43.37.84.74,1.23,1.1l.03.03c.72.68,1.38,1.35,1.93,2.04.02.04.05.07.08.11,1.06,1.35,1.74,2.78,1.81,4.49v2.16Z"/>
      <path class="st7" d="M-845.33,944.28c.05-.05.11-.11.16-.16.08-.08.15-.15.22-.23.38-.41.71-.84.99-1.28.09-.13.17-.27.24-.4.09-.15.17-.29.24-.44.31-.59.54-1.2.71-1.83.04-.13.07-.27.1-.4.06-.24.1-.5.14-.75.04-.25.07-.5.09-.75.01-.15.02-.29.03-.44.11-2.75-.7-5.65-1.89-8.36-1.9-4.35-10.21-6.18-13.99-4.71l-1.33.66-.45.23c-.08.04-.15.08-.22.11l-2,1-1,1-1.17,2.23-.07.13c-.42,1.24-1.05,2.55-1.76,3.64l-.02,2c.22.64.44,1.31.66,1.98.1.28.19.55.29.82.11.32.22.63.34.94.07.2.15.39.23.59.14.38.3.75.46,1.11.14.31.28.61.43.9.4.79.85,1.51,1.35,2.09.11.13.22.24.33.35.12.13.25.25.39.36,3.66,3.02,7.31,2.95,11.81,3.35-3.6,1.46-7.39,3.37-7.34,6.87.01.13.01.25.02.37,0,.12,0,.25.03.37.01.15.03.29.06.44.03.25.08.5.15.74.03.15.07.29.12.43.06.19.12.38.2.57.03.09.07.18.11.27.07.18.16.36.25.53.07.14.15.27.23.4.1.17.21.33.32.48.02.03.04.05.06.08.11.15.23.28.35.41.13.15.27.29.42.42.14.12.28.23.43.33.01.01.02.01.03.02.1.07.21.14.33.2.11.06.22.12.34.17.08.04.16.08.25.1.11.04.21.07.32.1.21.07.44.11.68.12.11,0,.23.02.35.02.16,0,.33-.01.5-.03.14-.02.28-.04.42-.07.03,0,.07-.01.1-.02,1.71.67,5.38.91,8.12,1.13l1.83-17.88-3.99-.31Z"/>
      <path class="st7" d="M-892.43,829.32c-1.43-.92-3.82-2.01-6.52-3.33-2.27,4.61-5.5,11.87-3.02,16.24,3.08,1.35,7.83,2.88,9.95,1.64,2.08-1.22,7.32-4.26,2.26-6.33-2.84-1.16-.63-6.9-2.67-8.21Z"/>
      <path class="st7" d="M-903.93,844l.35,3.81c.04.48,2.33.78,2.19.34l-.88-2.89c-.14-.45-1.7-1.65-1.66-1.26Z"/>
      <path class="st7" d="M-885.91,825.47c.52-.02.56-1.75.06-1.89l-2.32-.61c-.68-.18-1.35,2.67-.66,2.63l2.93-.13Z"/>
      <path class="st7" d="M-897.29,824.04c0-.28-.22-.5-.5-.5s-.5.22-.5.5.22.5.5.5.5-.22.5-.5Z"/>
    </g>
    <path class="st1" d="M-757.74,742.37c-.59-2.83-1.63-5.69-3.66-7.75-1.45-1.49-2.99-2.29-4.79-3.02-3.91,2.63-7.77,6.42-11.16,9.98l8.43-5.64c1.23-.81,4.96.59,4.79,2.02-1.91,15.48-33.04,30.09-41.16,28.34-1.84.6-4.12.81-5.1,1.25l3.1-.02h3c.91.38,1.83,1.97,2.06,3.05.08.39.15.78.21,1.18.05.29.09.59.12.88.01.1.03.19.03.29.02.19.04.39.05.58.02.19.03.39.04.58.02.43.03.85.03,1.28v.22c0,.06,0,.11-.01.17.01.2,0,.41-.02.62,0,.16-.01.32-.02.49-.02.21-.03.42-.05.63-.01.08-.01.15-.02.23-.04.4-.09.81-.14,1.21,0,.03-.01.07-.02.1-.04.33-.09.66-.15.98-.03.18-.06.35-.09.52-.06.36-.14.71-.21,1.06-.22,1.03-.49,2.06-.78,3.08-.07.26-.15.52-.22.78-.16.55-.33,1.09-.51,1.64-.08.26-.16.52-.25.78-.09.26-.17.52-.26.78-.17.52-.35,1.05-.53,1.57-.08.26-.17.51-.26.77-.06.18-.12.37-.18.55-.36,1.05-.72,2.11-1.06,3.17-.1.31-.2.62-.3.94-.13.4-.25.81-.37,1.22-.07.22-.13.43-.19.65-.13.46-.26.93-.38,1.4-.07.27-.14.53-.2.8-.05.21-.1.42-.15.63-.01.06-.03.11-.04.17-.01.07-.04.13-.06.2-.05.13-.13.26-.22.39-.04.06-.09.13-.15.19-.05.07-.12.13-.2.2l-1.71,4.42c-.21.5-.23,1.39-.55,2.52-.05.03-.1.05-.14.07-.93,3.95-1.88,7.9-2.83,11.84-1.1,4.58-2.21,9.15-3.33,13.73-1.37,5.58-2.73,11.15-4.09,16.73-3.61,14.82-7.16,29.65-10.44,44.54-1.09,4.92-2.14,9.85-3.15,14.79,0,.04-.01.08-.02.12-.3,1.42-.58,2.85-.87,4.27-.53,2.64-1.05,5.29-1.55,7.93-.39,2.02-.76,4.05-1.13,6.08-.39,2.12-.77,4.24-1.13,6.36-.55,3.17-1.08,6.33-1.58,9.51-.01.06-.02.11-.03.17l-1.83,17.88c-.03.2-.06.39-.09.59-.24,1.53-.48,3.06-.71,4.59-.02.14-.04.28-.06.42,0,.03-.01.06-.01.09-.31,2.06-.6,4.12-.88,6.19-.02.17-.05.35-.07.53-.18,1.31-.35,2.63-.52,3.95-.34,2.64-.66,5.28-.96,7.92-.59,5.16-1.12,10.34-1.58,15.52-.1,1.09-.2,2.18-.29,3.27-.13,1.46-.25,2.92-.36,4.38-.11,1.46-.23,2.92-.33,4.39-.08,1.06-.16,2.13-.23,3.19-.03.38-.05.76-.08,1.13-.18,2.67-.34,5.34-.49,8.01-.12,2.1-.23,4.21-.34,6.31-.03.57-.06,1.13-.08,1.7-.08,1.6-.15,3.19-.22,4.79-.18,4.27-.34,8.54-.46,12.82-.05,1.76-.1,3.51-.14,5.27-.01.4-.02.79-.03,1.19-.05,2.38-.1,4.77-.14,7.15-.05,2.78-.09,5.55-.12,8.33-.03,2.37-.05,4.75-.06,7.11-.01.28-.01.55-.01.83-.05,10.47,0,20.91.11,31.31,1.83,6.11.64,14.05,1.3,20.51,1.49,1.04,3.48,2.48,4.04,3.57l3.26-2.08c.87-.55,3.97,1.5,3.46,2.39l-2.03,3.54c2.63,1.38,6.3,4.32,6.66,7.37l1.24-2.22,1.26-1,1.87-2.98c2.18-9.74,2.5-19.34,2.91-30.25,1.83-49.16,4.45-98.99,16.19-143.77,8.12-51.08,30.82-149.47,49.56-198.32,4.97-12.98,5.71-19.12,3.86-27.84ZM-847.25,1101.24c-1.87,0-3.39-1.52-3.39-3.39s1.52-3.4,3.39-3.4,3.39,1.52,3.39,3.4-1.52,3.39-3.39,3.39ZM-836.49,1057.3c-1.72,0-3.12-1.4-3.12-3.12s1.4-3.11,3.12-3.11,3.11,1.39,3.11,3.11-1.39,3.12-3.11,3.12ZM-815.27,902.72c-1.68,0-3.04-1.36-3.04-3.04s1.36-3.05,3.04-3.05,3.04,1.37,3.04,3.05-1.36,3.04-3.04,3.04ZM-814.29,879.97c-1.51,0-2.74-1.23-2.74-2.74s1.23-2.74,2.74-2.74,2.74,1.23,2.74,2.74-1.23,2.74-2.74,2.74ZM-784.84,788.44c-2,0-3.63-1.62-3.63-3.63s1.63-3.64,3.63-3.64,3.64,1.63,3.64,3.64-1.63,3.63-3.64,3.63Z"/>
    <path class="st1" d="M-812.23,899.68c0,1.68-1.36,3.04-3.04,3.04s-3.04-1.36-3.04-3.04,1.36-3.05,3.04-3.05,3.04,1.37,3.04,3.05Z"/>
    <circle class="st1" cx="-814.29" cy="877.23" r="2.74"/>
    <path class="st1" d="M-843.86,1097.85c0,1.87-1.52,3.39-3.39,3.39s-3.39-1.52-3.39-3.39,1.52-3.4,3.39-3.4,3.39,1.52,3.39,3.4Z"/>
    <path class="st1" d="M-839.26,1137.84l-2.03,3.54-3.64-.62c-.86-.15-.65-2.44-1.05-3.23l3.26-2.08c.87-.55,3.97,1.5,3.46,2.39Z"/>
    <path class="st1" d="M-833.38,1054.18c0,1.72-1.39,3.12-3.11,3.12s-3.12-1.4-3.12-3.12,1.4-3.11,3.12-3.11,3.11,1.39,3.11,3.11Z"/>
    <path class="st1" d="M-781.2,784.81c0,2.01-1.63,3.63-3.64,3.63s-3.63-1.62-3.63-3.63,1.63-3.64,3.63-3.64,3.64,1.63,3.64,3.64Z"/>
    <path class="st7" d="M-851.29,961.34s-.07.02-.1.02c-.14.03-.28.05-.42.07-.17.02-.34.03-.5.03-.12,0-.24-.01-.35-.02-.24-.01-.47-.05-.68-.12-.11-.03-.21-.06-.32-.1-.09-.02-.17-.06-.25-.1-.12-.05-.23-.11-.34-.17-.12-.06-.23-.13-.33-.2,0-.01-.02-.01-.03-.02-.15-.1-.29-.21-.43-.33-.15-.13-.29-.27-.42-.42-.12-.13-.24-.26-.35-.41-.02-.03-.04-.05-.06-.08-.11-.15-.22-.31-.32-.48-.08-.13-.16-.26-.23-.4-.09-.17-.18-.35-.25-.53-.04-.09-.08-.18-.11-.27-.08-.19-.14-.38-.2-.57-.05-.14-.09-.28-.12-.43-.07-.24-.12-.49-.15-.74-.03-.15-.05-.29-.06-.44-.02-.12-.03-.25-.03-.37-.01-.12-.01-.24-.02-.37-.05-3.5,3.74-5.41,7.34-6.87-4.5-.4-8.15-.33-11.81-3.35-.14-.11-.27-.23-.39-.36-.11-.11-.22-.22-.33-.35-.5-.58-.95-1.3-1.35-2.09-.15-.29-.29-.59-.43-.9-.16-.36-.32-.73-.46-1.11-.08-.2-.16-.39-.23-.59-.12-.31-.23-.62-.34-.94-.1-.27-.19-.54-.29-.82-.22-.67-.44-1.34-.66-1.98.05.31.04.61-.01.89-.02.13-.06.26-.1.38-.03.07-.06.15-.09.22-.05.11-.11.23-.17.34-.03.06-.07.11-.1.17-.11.17-.22.33-.35.49-.06.09-.14.17-.22.26-.46.51-.98.97-1.41,1.42-.06.06-.12.12-.17.19-.01.01-.02.01-.02.01-.09.09-.17.18-.25.28-.08.09-.15.18-.21.27-.04.05-.07.09-.09.13-.05.08-.09.16-.13.24-.05.08-.08.16-.1.23-.03.1-.05.2-.06.3-.16,2.04,1.88,5.48,1.1,7.91-.06.19-.14.34-.23.46-.12.16-.27.27-.44.34-.08.04-.16.07-.25.08-.21.05-.43.04-.65-.01-.13-.02-.26-.06-.38-.11-.1-.04-.2-.08-.3-.13-.14-.07-.27-.15-.4-.25-.11-.08-.2-.16-.29-.24-.07-.06-.13-.13-.18-.2-.06-.07-.11-.14-.15-.21-.08-.13-.14-.27-.15-.41-.18-1.71-.57-5.16-.84-6.57-.01-.04-.03-.08-.05-.12-.01-.03-.03-.05-.05-.07-.01-.02-.02-.03-.03-.04,0-.01-.02-.02-.03-.02-.02-.02-.05-.04-.08-.06-.04-.03-.09-.06-.14-.08-.09-.05-.21-.08-.34-.11-.07-.02-.14-.04-.21-.05-.06-.01-.12-.02-.18-.03-.02-.01-.05-.01-.08-.01-.13-.02-.27-.03-.41-.04h-.02c-.11-.01-.22-.02-.33-.02-.34-.01-.7-.01-1.07,0t-.02,0c-.16,0-.32,0-.48.01-1.05.02-2.03.07-2.47-.04-.3-.08-.54-.25-.75-.49-.06-.07-.12-.14-.18-.22-.17-.23-.34-.49-.52-.78-.05-.08-.11-.17-.17-.26-.33-.52-.74-1.1-1.34-1.67h0c-.15.15-.3.3-.45.46-.2.19-.39.38-.58.58-.32.31-.63.61-.92.89-.3.3-.6.58-.88.85-.28.27-.55.52-.82.76-.23.2-.45.4-.67.59-.19.17-.38.33-.56.48-.19.16-.37.3-.55.44-.19.14-.37.28-.55.41s-.35.25-.53.36c-.14.09-.28.18-.43.26-.29.18-.57.33-.86.47l-5.14-13.12c.09.03.17.06.26.08.71.24,1.39.43,2.04.57.27.06.54.11.8.15.31.05.62.09.91.12.21.02.42.04.62.05.25.01.49.02.73.02.33,0,.65-.01.96-.04.25-.01.5-.04.74-.08.02,0,.05,0,.07-.01.16-.02.32-.05.47-.08.21-.03.42-.07.63-.12.5-.11.97-.25,1.44-.42.09-.03.19-.06.28-.1.27-.1.55-.21.81-.33.27-.12.53-.24.79-.37,2.13-1.07,3.98-2.49,5.81-3.59,1.55-.93,6.87-.08,8.45-.57.09-.03.18-.07.26-.12.13-.08.25-.18.35-.31.03-.03.06-.07.09-.11,0-.01,0-.01,0-.02.05-.07.1-.14.14-.22.03-.03.05-.07.07-.11.05-.07.09-.15.13-.24.08-.18.17-.37.25-.58.01-.01.01-.03.01-.04.08-.19.15-.39.22-.6.04-.12.09-.25.13-.37,0-.01,0-.02.01-.04.1-.28.2-.55.3-.81.05-.11.1-.23.15-.34s.11-.22.17-.33c.03-.06.07-.12.11-.18.08-.14.18-.27.28-.39.06-.07.12-.14.19-.19.06-.06.12-.11.19-.16.25-.15.52-.3.79-.46.74-.43,1.51-.9,2.1-1.39.07-.05.13-.1.19-.16.09-.07.17-.15.25-.23.03-.03.05-.05.07-.07.15-.15.27-.31.36-.46.05-.06.08-.13.11-.19.01-.01.01-.03.02-.04.03-.07.05-.13.06-.2.02-.07.03-.15.03-.22v-.05c-.21-3.6-10.28-4.88-14.61-4.66-.2.01-.38.04-.56.08-.17.04-.34.1-.5.17-.15.07-.3.16-.45.25-.07.05-.14.1-.21.15s-.13.11-.19.18c-.02.01-.04.03-.07.06-.18.18-.35.38-.5.6-.15.22-.29.46-.41.72-.2.37-.36.79-.5,1.22-.08.23-.15.47-.21.71-.02.06-.03.11-.05.17-.04.15-.09.31-.12.47-.03.11-.06.23-.08.35-.1.42-.18.85-.26,1.26-.08.38-.14.75-.21,1.1,0,.04-.01.08-.02.12-.26.08-.53.16-.8.22h-.01c-.19.05-.38.09-.58.12-.21.04-.43.08-.64.11-.29.04-.58.07-.87.09-.44.03-.88.04-1.33.03-.1,0-.2,0-.3-.01-.21-.01-.41-.02-.62-.04-.25-.02-.51-.05-.76-.08-.68-.08-1.36-.21-2.03-.38-.68-.16-1.35-.36-2.02-.6-.34-.12-.67-.25-1.01-.38-.33-.14-.66-.28-.99-.43-.33-.14-.66-.3-.98-.47-.32-.16-.65-.33-.97-.51-.61-.33-1.2-.69-1.78-1.07-.29-.19-.57-.38-.85-.58-.49-.33-.97-.69-1.43-1.06-.15-.12-.31-.24-.46-.37-.2-.16-.4-.33-.6-.5-.07-.05-.13-.11-.19-.16.02.35.06.69.11,1.04.04.34.1.68.17,1.01.05.26.1.51.16.76.08.36.18.72.28,1.07.34,1.2.77,2.35,1.19,3.48.12.31.23.62.35.92.14.38.28.75.41,1.12.13.37.26.73.38,1.1.07.22.14.44.21.65.06.21.13.44.19.65,0,.02,0,.03,0,.05.05.22.11.44.16.66.01.04.02.09.03.14.03.17.06.34.09.51.03.17.05.35.07.52.03.24.05.48.06.72.01.11.01.21.01.31,0,.14-.01.27-.02.4-.01.14-.02.27-.03.4-.01.14-.03.27-.05.4-.02.13-.05.26-.08.39-.04.16-.08.32-.13.47-.04.15-.1.31-.16.47-.06.15-.13.31-.21.46-.07.15-.15.31-.24.46-.18.3-.39.6-.63.9-.16.2-.34.4-.53.6-.05.05-.1.11-.16.16-.05.05-.1.11-.16.16-2.65-5.86-.57-13.55-7.06-14.64-.69-.12-1.43-.22-2.18-.33-.75-.11-1.52-.23-2.28-.38-.2-.04-.39-.08-.59-.13-.05-.01-.11-.02-.16-.04-.21-.05-.42-.1-.63-.16-.11-.02-.22-.05-.33-.09-.11-.03-.22-.06-.33-.1-.36-.11-.72-.24-1.07-.39-.18-.08-.35-.16-.52-.24-.17-.08-.33-.17-.5-.27-.12-.06-.23-.13-.35-.21-.16-.1-.32-.21-.47-.32-.12-.09-.24-.19-.36-.29-.13-.11-.26-.23-.38-.35-.17-.17-.33-.34-.48-.52-.14-.17-.27-.34-.4-.53-.01,0-.01-.01-.02-.02-.11-.17-.22-.36-.32-.55-.02-.01-.02-.02-.02-.03-.08-.13-.15-.27-.2-.41l-.03-.06c-.05-.08-.08-.17-.12-.26,0-.01-.01-.01-.01-.02-.08-.18-.15-.37-.21-.57-.12-.36-.22-.75-.3-1.16,0-.02-.01-.03-.01-.05l-3.25,4.67-.11.16s.09.01.14.01c.07.01.17.03.25.06.01,0,.02.01.03.01.07.02.14.05.21.08.11.04.23.1.34.15.12.06.24.13.35.19h.01c.39.24.71.5.8.68.01.03.02.05.02.07l.4-.06.53-.08c2.13.03,3.2.29,4.01,1.01.43.37.84.74,1.23,1.1l.03.03c.72.68,1.38,1.35,1.93,2.04.02.04.05.07.08.11,1.06,1.35,1.74,2.78,1.81,4.49.05.97.05,1.69.01,2.16,0,.31-.01.62-.05.92v.02c-.28,3.04-1.92,5.4-4.15,6.86-.13.09-.27.18-.4.25-2.37,1.4-5.33,1.84-8.04,1.09-.15-.04-.29-.09-.44-.14-.26-.09-.52-.18-.77-.29-.19-.08-.38-.18-.57-.28-.09-.04-.18-.09-.27-.15-.05-.03-.1-.05-.14-.08-.05-.02-.09-.05-.13-.08-.24-.15-.47-.31-.69-.48-2.2-1.66-3.65-4.28-4.09-7.15-.01-.02-.01-.04-.01-.06-.27-1.78-.14-3.65.43-5.45-3.35-3.39-12.15-1.21-10.93-7.14-1.43,7.71-5.33,15.59-5.18,23.76l-.49,6.33c-4.19,29.63-8.01,59.3-9.1,88.99-.93,25.42-1.03,50.87.87,76.18,2.55,8.35,5.21,16.35,12.1,22,2.87,2.31,8.4,6.73,11.9,8.65,20.84,11.45,43.06,21.12,66.98,22.32l2.3-1.15c5.52-7.46,9.14-14.72,9.03-25.04l-.28-26.04c-.11-10.4-.16-20.84-.11-31.31,0-.28,0-.55.01-.83.01-2.36.03-4.74.06-7.11.03-2.78.07-5.55.12-8.33.04-2.38.09-4.77.14-7.15.01-.4.02-.79.03-1.19.04-1.76.09-3.51.14-5.27.12-4.28.28-8.55.46-12.82.07-1.6.14-3.19.22-4.79.02-.57.05-1.13.08-1.7.11-2.1.22-4.21.34-6.31.15-2.67.31-5.34.49-8.01.03-.37.05-.75.08-1.13.07-1.06.15-2.13.23-3.19.1-1.47.22-2.93.33-4.39.11-1.46.23-2.92.36-4.38.09-1.09.19-2.18.29-3.27.46-5.18.99-10.36,1.58-15.52.3-2.64.62-5.28.96-7.92.17-1.32.34-2.64.52-3.95.02-.18.05-.36.07-.53.28-2.07.57-4.13.88-6.19,0-.03.01-.06.01-.09.02-.14.04-.28.06-.42.23-1.53.47-3.06.71-4.59.03-.2.06-.39.09-.59-2.74-.22-6.41-.46-8.12-1.13ZM-952.86,1030.29l7.51-6.29c-1.06,3.34-2.49,6.9-7.51,6.29ZM-941.83,1064.67c-1.59.79-3.84-.03-4.71-1.02-1.25-1.42-1.67-5.06.54-6.61,1.43-1,4.29.83,4.85,2.07.66,1.51.69,4.88-.68,5.56ZM-933.73,1116.54c-1.58,0-2.87-1.28-2.87-2.87s1.29-2.86,2.87-2.86,2.86,1.28,2.86,2.86-1.28,2.87-2.86,2.87ZM-925.47,1004.6c-1.64,0-2.97-1.33-2.97-2.98s1.33-2.98,2.97-2.98,2.98,1.34,2.98,2.98-1.33,2.98-2.98,2.98ZM-918.22,988.14c-.76,1.92-2.42,4.08-3.91,4.54-2.03.63-4.65-1.8-4.33-3.73.31-1.96,1.78-4.33,4.48-5.04,2.19-.58,4.32,2.81,3.76,4.23ZM-905.37,925.31s.07.01.09.04c.03.02.05.06.06.1.05.14.05.37.03.66-.01.1-.02.2-.03.3,0,.02,0,.03-.01.05-.01.12-.03.25-.06.38v.02c-.03.14-.05.27-.08.41-.05.21-.09.42-.13.59-.02.09-.04.18-.06.26-.03.08-.05.15-.06.21-.01.04-.02.07-.03.1-.02,0-.09-.05-.2-.12-.05-.03-.12-.07-.18-.12-.32-.22-.79-.56-.95-.68-.38-.29.54-1.16,1.13-1.85.22-.25.37-.35.48-.35ZM-907.29,923.4c.35,0,.63.28.63.63s-.28.63-.63.63-.63-.28-.63-.63.28-.63.63-.63ZM-907.79,935.16c-.35,0-.63-.28-.63-.63s.28-.63.63-.63.63.28.63.63-.28.63-.63.63ZM-903.44,938.1l-3.49.37c-.65.07.19-2.55.83-2.68,2.35-.47,3.48,2.22,2.66,2.31ZM-880.16,1091.99c-1.42,3.5-4.84,1.77-6.59.41-1.64-1.28-3.21-4.59-1.11-6.27,3.07-2.45,9.14,2.32,7.7,5.86ZM-865.22,1027.58c-1.9,0-3.44-1.55-3.44-3.45s1.54-3.45,3.44-3.45,3.45,1.55,3.45,3.45-1.54,3.45-3.45,3.45Z"/>
    <path class="st9" d="M-871.27,740.58l-5.96,3.8c-3.37,2.15-6.39,4.48-9.03,7.2,2.27-1.45,5.08-1.5,6.57-1.33,1.21.14,1.12,3.08,1.09,4.94-.01.29-9.48,3.04-8.92.98l1.26-4.59c-.51.52-1.12,1.06-1.78,1.6-2.24,1.83-4.25,3.92-5.94,6.26-1.54,2.14-3.17,4.34-4.47,6.05l-1.78,5.89c4.52-.89,7.23,7.71,11.76,12.76l-9.77,1.04-.16,2.33c2.55-2.52,6.28-1.67,8.32.65,2.28,2.6,2.15,6.3.48,9.13-9.57,16.19-12.55,34.15-17.8,51.34-.04.42.07,1.23.11,1.68,1.65.33,3.04,2.59,2.76,4.28l-.73,4.43c-.13.75-1.35-.6-2.03-1.62h-.92c-.47,2.45-2.03,4.55-4.08,6.12h0c2.16.2,4.62.53,6.99.48.13,0,.27,0,.4-.01.29,0,.57-.02.85-.05.03,0,.06,0,.09-.01.28-.01.55-.05.82-.09.17-.02.33-.05.5-.08.17-.03.33-.06.49-.1.18-.03.35-.08.52-.13.13-.03.26-.07.38-.11.18-.05.36-.11.53-.19.15-.06.3-.12.45-.19.08-.02.15-.06.22-.1.08-.04.15-.08.22-.11.02,0,.03-.01.04-.02.26-.13.52-.28.76-.46.02,0,.03-.01.04-.03.12-.09.24-.18.36-.27.02-.01.04-.02.06-.04t.01-.02c.12-.09.24-.19.35-.3.11-.09.22-.19.32-.3.12-.11.23-.24.33-.37.09-.11.18-.22.27-.34.05-.05.09-.11.12-.16.08-.11.16-.22.23-.34.11-.15.2-.31.29-.47l-7.14-4.93.21-.12,16.52-9.67c.08.09.17.18.27.26.08.07.17.14.27.21.25.18.56.36.92.54.17.08.35.17.53.25.14.06.29.13.44.19.02,0,.03,0,.04.02.29.11.61.23.94.34.17.07.35.13.53.18.17.06.36.12.54.17.47.15.98.29,1.5.42.49.12,1,.24,1.53.36.43.1.88.19,1.33.27.64.12,1.31.23,1.99.33.17.03.34.06.52.08.49.07.99.13,1.49.19.09.01.18.02.27.03.51.05,1.02.1,1.54.14,1.76.14,3.52.18,5.2.11.23-.01.45-.02.68-.03,1.12-.07,2.2-.2,3.19-.4.33-.07.65-.14.97-.22.31-.08.61-.17.9-.26.02-.01.04-.01.05-.02.2-.07.4-.14.6-.22.19-.07.38-.16.56-.24.01,0,.02,0,.03-.01.18-.08.35-.17.51-.26.16-.1.32-.19.47-.29.02-.01.05-.03.08-.05.12-.09.24-.18.36-.27.14-.1.27-.22.39-.35.08-.07.15-.14.22-.22.09-.1.17-.2.25-.3.09-.12.18-.24.25-.37.03-.04.06-.09.08-.13.1-.18.18-.37.25-.56.02-.06.04-.11.05-.16.06-.15.1-.31.12-.48.03-.14.05-.29.06-.44.02-.22.03-.46.01-.71-.37-5.85,1.45-12.18-7.8-10.58l-.79-15.78-15.56-.36.58-4.85c.01-.08-.01-.15-.05-.21-.02-.03-.04-.05-.07-.07-.02-.02-.06-.05-.11-.06-.04-.02-.08-.03-.13-.04-.03,0-.07-.02-.11-.02-.22-.03-.51-.02-.8.04-.13.03-.26.06-.39.1-.08.02-.16.05-.24.08-.22.08-.42.19-.57.3-.01.01-.02.01-.02.01-.01.02-.02.02-.03.03-.02.02-.04.04-.05.05-.05.05-.09.09-.12.14-.34.55-1.1,1.96-1.54,2.88-.02.04-.03.07-.03.11,0,.02,0,.03,0,.05-.07.43.28,1.11.62,1.77.15.31.31.61.42.88.04.07.06.14.09.21.1.29.15.53.08.69h0s-.01.01-.01.01v.02c-.04.07-.09.12-.16.15-.9.41-2.49.68-3.24.35-3.86-1.69.07-6.86-.15-11.59-.07-1.65-3.08-2.93-4.5-5.25.05-.05.1-.11.16-.16.15-.16.31-.32.46-.47.15-.16.3-.31.45-.46.02-.03.05-.06.07-.08.28-.29.55-.57.8-.85.25-.27.51-.55.77-.82.05-.06.1-.11.15-.17.15-.16.29-.32.43-.47.13-.15.26-.3.39-.45.53-.61,1.03-1.21,1.5-1.82.09-.11.18-.22.27-.34.26-.35.51-.69.75-1.03.24-.35.47-.69.69-1.05.19-.29.37-.59.53-.89.08-.12.15-.25.21-.38.16-.29.31-.57.44-.86.09-.19.18-.38.26-.57.21-.47.39-.95.55-1.44.11-.35.22-.71.31-1.08.08-.3.15-.6.2-.9.01-.01.01-.02,0-.03.06-.3.11-.6.15-.91.02-.15.04-.3.05-.46.02-.16.03-.32.04-.47.03-.31.04-.63.04-.95.05-.02.1-.03.16-.05,1.05-.34,2.29-.68,3.29-1.07.14-.06.28-.11.41-.17.39-.17.73-.36.98-.58.06-.05.12-.1.17-.16.01-.01.02-.01.03-.04.04-.03.07-.07.09-.11.05-.07.08-.14.1-.21.03-.07.04-.14.04-.22,0-.13-.04-.27-.12-.42l-3.52-6.66.18-.12,9.15-6.16c4.82,6.35,10.85-.4,14.88,3.93-1.38,3.48-3.11,9.83-.17,8.96,1.75-.52,4.65-1.21,5.91-1.4,1,2.51,1.43,5.4,2.99,4.94.37-.11.74-.24,1.09-.38.15-.06.3-.12.44-.19.2-.09.39-.18.57-.28.14-.07.28-.15.42-.23.14-.09.28-.18.41-.27.06-.05.13-.09.19-.14.12-.09.23-.18.33-.27.08-.06.15-.13.21-.2,0-.01.01-.01.01-.01.09-.09.17-.19.24-.28.06-.08.12-.15.16-.23.04-.06.08-.13.11-.2.07-.13.12-.27.14-.41.01-.03.02-.07.02-.1.02-.15.02-.3,0-.46-.02-.1-.04-.21-.08-.31-.02-.07-.04-.14-.08-.21h0c-.02-.07-.05-.14-.09-.2-.07-.13-.14-.25-.23-.37-.08-.13-.18-.25-.29-.37-.21-.24-.46-.48-.74-.71-.13-.11-.26-.21-.4-.32-.13-.1-.27-.2-.42-.3-.18-.13-.36-.25-.55-.37-.81-.53-1.72-1.02-2.59-1.47-.29-.15-.58-.3-.86-.44-.42-.22-.82-.43-1.2-.62-.25-.13-.48-.26-.7-.38-.21-.12-.41-.24-.58-.36-.18-.11-.33-.22-.46-.33-.06-.05-.12-.1-.16-.15-.28-.29-.32-.54-.02-.75h.02s0-.02,0-.02h.01c.14-.08.33-.15.58-.22.11-.03.24-.06.38-.09.29-.06.62-.11,1.02-.15l3.44-.39c.54-.06,1.08-.11,1.6-.14.26-.02.53-.04.79-.05.26-.01.52-.02.77-.03.48-.02.95-.02,1.41-.01.15,0,.3.01.45.01.29,0,.56.01.83.03.28,0,.55.02.82.05,1.35.09,2.61.25,3.79.48.47.08.93.18,1.37.29.44.11.86.22,1.27.34.15.04.3.08.44.13.08.03.16.05.24.08.25.07.49.15.72.24.11.04.22.08.33.12.27.1.53.21.78.32.75.31,1.41.65,1.96,1,.25.15.48.3.68.46.13.09.26.2.38.31.08.07.16.14.23.21.09.08.17.17.24.25.3.34.48.66.55.97.02.12.03.23.01.34-.01.11-.05.22-.1.32-.02.05-.05.09-.08.13,0,.01,0,.02,0,.02-.15.17-.36.33-.65.47-1.18.53-3.2.94-3.56.17-.29-.62-.59-2.85-1.26-2.96-1.26-.21-4.36-.04-5.62.2-.06,0-.13.04-.19.07-.03.01-.05.02-.07.04-.06.03-.11.07-.16.12-.02,0-.03.01-.03.03-.01.01-.02.02-.03.03-.03.02-.07.05-.1.09-.02.02-.04.04-.06.07-.06.07-.12.14-.17.22-.08.11-.15.24-.22.37-.04.09-.08.17-.12.26,0,.02,0,.04-.02.05-.04.1-.07.19-.1.29-.01.02-.01.04-.02.06-.03.12-.06.24-.08.36-.03.2-.04.39-.03.56,0,.05.01.09.02.14.02.1.05.19.09.27.02.05.05.1.09.14,5.01,5.85,4.18,3.85,16,3.7l.05-.16,1.69-4.93c.02-.06.05-.11.09-.16.03-.04.07-.08.12-.11t.01-.02s.01-.01.02-.01c.05-.04.11-.07.17-.09.06-.02.12-.04.18-.06.09-.02.19-.04.29-.05.18-.01.38-.02.59,0,.1,0,.2.01.29.03.1,0,.2.02.3.04.1.02.2.04.3.07.32.08.63.19.91.31.14.06.27.13.39.2.1.05.19.11.27.18.04.03.08.06.12.1.04.04.08.08.12.12.06.06.1.13.13.19l1.95,3.98c.61,1.23,5.28.62,5.45,2,.66,5.22-3.26,14.63,2.47,14.96,0-.06.03-.11.04-.17.05-.21.1-.42.15-.63.06-.27.13-.53.2-.8.12-.47.25-.94.38-1.4.06-.22.12-.43.19-.65.12-.41.24-.82.37-1.22.1-.32.2-.63.3-.94.34-1.06.7-2.12,1.06-3.17.06-.18.12-.36.18-.55.09-.26.18-.51.26-.77.18-.52.36-1.05.53-1.57.09-.26.17-.52.26-.78.09-.26.17-.52.25-.78.18-.55.35-1.09.51-1.64.07-.26.15-.52.22-.78.29-1.02.56-2.05.78-3.08.07-.35.15-.7.21-1.06.03-.17.06-.34.09-.52.06-.32.11-.65.15-.98,0-.03.02-.07.02-.1.05-.4.1-.81.14-1.21.01-.08.01-.15.02-.23.02-.21.03-.42.05-.63.01-.17.02-.33.02-.49.02-.21.03-.42.02-.62.01-.06.01-.11.01-.17v-.22c0-.43-.01-.85-.03-1.28-.01-.19-.02-.39-.04-.58-.01-.19-.03-.39-.05-.58,0-.1-.02-.19-.03-.29-.03-.29-.07-.59-.12-.88-.06-.4-.13-.79-.21-1.18l-2.06-3.05h-1c-.19.11-1.08.62-1.17.69-.08,0-.77-.63-.83-.69l-3.1.02-19.84-2.91c4.96-.48,10.09-.39,14.82-2.01.04-.01.07-.03.11-.04,13.81-4.42,25.86-12.94,37.95-21.01,3.39-3.56,7.25-7.35,11.16-9.98-20.92-10.21-45.56-10.02-68.44-5.77-2.17.4-4.29,1.02-6.36,1.82-8.52,3.29-20.47,6.44-27.96,11.52l-2.32,1.41ZM-897.79,823.53c.28,0,.5.23.5.5s-.22.5-.5.5-.5-.22-.5-.5.23-.5.5-.5ZM-903.92,844c-.04-.38,1.52.82,1.66,1.26l.88,2.89c.13.44-2.15.14-2.2-.34l-.34-3.81ZM-888.18,822.96l2.33.61c.5.14.46,1.87-.06,1.89l-2.93.14c-.69.03-.02-2.82.66-2.64ZM-886.69,828.7c2.07,0,3.74,1.67,3.74,3.74s-1.67,3.74-3.74,3.74-3.74-1.67-3.74-3.74,1.67-3.74,3.74-3.74ZM-889.76,837.53c5.06,2.06-.18,5.1-2.26,6.32-2.12,1.25-6.87-.28-9.95-1.63-2.48-4.37.75-11.63,3.02-16.24,2.7,1.33,5.09,2.42,6.52,3.34,2.04,1.31-.17,7.05,2.67,8.21ZM-832.8,749.3c-1.53,0-2.77-1.24-2.77-2.77s1.24-2.77,2.77-2.77,2.77,1.24,2.77,2.77-1.24,2.77-2.77,2.77ZM-810.49,744.83c-1.28.76-4.03.6-6.09-.11-1.92-.67-2.36-4.54.41-5.63,1.72-.68,4.92-.39,6.72.81,1.23.82.63,3.94-1.04,4.93ZM-793.39,735.77c-1.48,0-2.68-1.2-2.68-2.68s1.2-2.68,2.68-2.68,2.68,1.2,2.68,2.68-1.2,2.68-2.68,2.68Z"/>
    <path class="st10" d="M-805.29,766.3c-1.84.6-4.12.81-5.1,1.25-8.69,2.79-60.34,7.15-71.97-4.7-1.48-1.51.24-4,2.21-3.21,12.56,5.08,25.4,6.57,38.73,5.96,1.32-.06,2.76-.17,4.21-.33,2.42-.27,4.88-.55,6.97-.63,4.98-.21,10.1-.38,14.82-2.01.07-.03.15-.05.22-.06,16.61-3.13,32.96-9.21,43.69-21.98,10.11-12.03,14.53,9.89-33.79,25.71Z"/>
    <path class="st5" d="M-834.63,1148.75l-.02.95c-4.49,6.18-16.14,16.51-25.42,14.83,5.52-7.46,9.14-14.72,9.03-25.04l-.28-26.04c1.83,6.11.64,14.05,1.3,20.51,1.49,1.04,3.48,2.48,4.04,3.57.4.79.19,3.08,1.05,3.23l3.64.62c2.63,1.38,6.3,4.32,6.66,7.37Z"/>
    <path class="st0" d="M-805.29,766.3c48.32-15.82,43.91-37.74,33.79-25.71-10.76,12.8-27.16,18.88-43.81,22,13.81-4.41,25.86-12.94,37.95-21.01l8.43-5.63c1.22-.82,4.96.58,4.78,2.01-1.91,15.48-33.04,30.09-41.16,28.34Z"/>
    <path class="st5" d="M-833.39,1146.53l1.25-1-1.25,1Z"/>
    <path class="st7" d="M-914.29,919.68c-1.35-.18-2.97-.55-4.01-1.01,2.13.03,3.2.29,4.01,1.01Z"/>
    <path class="st8" d="M-864.53,929.89c-.42,1.24-1.05,2.55-1.76,3.64-.79.16-3.15.95-2.88.25.09-.22.19-.47.31-.74.02-.04.03-.07.05-.11.07-.15.14-.31.22-.46.1-.21.21-.41.32-.6.06-.09.11-.17.16-.25.02-.03.04-.06.06-.09.04-.06.07-.11.11-.16.19-.25.38-.44.56-.5l2.85-.98Z"/>
    <path class="st8" d="M-858.29,924.53l-1.33.66c.11-.06.22-.12.33-.18.25-.12.49-.25.71-.35.05-.02.11-.05.15-.07.05-.03.1-.05.14-.06Z"/>
    <path class="st8" d="M-862.29,926.53l-1,1c.07-.12.18-.27.32-.42.05-.05.1-.1.15-.15.05-.05.09-.09.14-.14.04-.04.09-.08.14-.12.09-.07.18-.13.25-.17Z"/>
  </g>
  <path class="st9" d="M-841.7,765.09l11.18-1.02-11.18,1.02Z"/>
  <path class="st7" d="M-909.5,926.89c-.07-1.71-.75-3.14-1.81-4.49-.03-.04-.06-.07-.08-.11-.55-.69-1.21-1.36-1.93-2.04l-.03-.03c-.39-.36-.8-.73-1.23-1.1-1.35-.18-2.97-.55-4.01-1.01l-.53.08-.4.06c-1.53.37-4.1,1.03-6.18,2.28-.97.58-1.84,1.28-2.44,2.15-.01.01-.02.02-.02.03-.25.37-.45.76-.6,1.19-.01.05-.03.09-.05.13-.57,1.8-.7,3.67-.43,5.45,0,.02,0,.04.01.06.44,2.87,1.89,5.49,4.09,7.15.22.17.45.33.69.48.04.03.08.06.13.08.04.03.09.05.14.08.09.06.18.11.27.15.19.1.38.2.57.28.25.11.51.2.77.29.15.05.29.1.44.14,2.71.75,5.67.31,8.04-1.09.13-.07.27-.16.4-.25,2.23-1.46,3.87-3.82,4.15-6.86v-.02c.04-.3.05-.61.05-.92v-2.16ZM-914.55,931.67c-1.65,2.57-5.39,3.22-7.85,1.43-4.78-3.3-2.24-11.12,3.63-10.72h.12c4.44.4,6.62,5.72,4.1,9.29Z"/>
  <path class="st11" d="M-907.94,931.67c-1.65,2.57-5.39,3.22-7.85,1.43-4.78-3.3-2.24-11.12,3.63-10.72h.12c4.44.4,6.62,5.72,4.1,9.29Z"/>
  <path class="st11" d="M-915.57,913.57c1.93,0,1.93-3,0-3s-1.93,3,0,3h0Z"/>
  <path class="st4" d="M-915.3,914.31c-.55.01-1.76-.33-2.17-.72-.49-.46-.1-2.37.58-2.76,2.86-1.63,9.96-3.84,9.65-.26-.24,2.78-3.99,1.47-8.06,3.73h0Z"/>
  <path class="st11" d="M-864.01,938.59c-1.64,2.55-5.36,3.21-7.8,1.42-4.76-3.28-2.23-11.06,3.61-10.66h.11c4.43.4,6.59,5.68,4.08,9.24Z"/>
  <path class="st6" d="M-895.39,966.83c-16.58-1.05-24.9-19.36-19.1-21.1,5.61-1.69,3.08,13.59,19.19,15.23,6.8.69,13.85-3.54,17.1-10.1.47-.95,2.72-1.78,3.66-1.57,6.19,1.36-4.42,18.59-20.85,17.55h0Z"/>
  <path class="st4" d="M-860.1,922.07c-3.49-3.08-7.43-2.58-7.08-5.36.45-3.57,6.93.1,9.37,2.3.58.52.56,2.47-.02,2.82-.48.29-1.74.37-2.27.24h0Z"/>
  <path class="st2" d="M-861.16,945.74l-1.15,2.53c-.15.23-.23.48-.24.74-.06.27-.05.53.04.8.06.26.18.49.36.68.14.22.33.39.56.52.46.25,1.03.37,1.54.2l.48-.2c.3-.18.54-.42.72-.72l1.15-2.53c.15-.23.23-.48.24-.74.06-.27.05-.53-.04-.8-.06-.26-.18-.49-.36-.68-.14-.22-.33-.39-.56-.52-.46-.25-1.03-.37-1.54-.2l-.48.2c-.3.18-.54.42-.72.72h0Z"/>
  <path class="st2" d="M-854.93,946.19c.02.51,0,1.01-.07,1.52l.07-.53c-.1.72-.29,1.41-.57,2.08l.2-.48c-.14.32-.29.63-.46.93-.26.45-.34,1.04-.2,1.54.13.46.49.97.92,1.2.95.5,2.18.25,2.74-.72.96-1.66,1.46-3.61,1.38-5.53-.02-.53-.21-1.04-.59-1.41-.35-.35-.92-.61-1.41-.59s-1.05.19-1.41.59-.61.88-.59,1.41h0Z"/>
  <path class="st2" d="M-847.04,947.32c-.07.88-.17,1.76-.28,2.63l.07-.53c-.19,1.4-.43,2.79-.73,4.17-.22,1.02.3,2.21,1.4,2.46,1.01.23,2.22-.3,2.46-1.4.52-2.41.88-4.87,1.08-7.33.09-1.05-.98-2.05-2-2-1.16.05-1.91.88-2,2h0Z"/>
  <path class="st2" d="M-942.66,941.14c-.56,1.6-.79,3.36-.63,5.05.05.54.19,1.02.59,1.41.35.35.92.61,1.41.59s1.05-.19,1.41-.59c.34-.37.63-.89.59-1.41-.08-.81-.06-1.61.05-2.41l-.07.53c.1-.72.27-1.42.51-2.1.17-.47.04-1.12-.2-1.54s-.72-.81-1.2-.92c-.51-.12-1.09-.09-1.54.2s-.74.68-.92,1.2h0Z"/>
  <path class="st2" d="M-933.93,941.42c-.3.33-.58.69-.78,1.09s-.38.82-.48,1.26-.16.89-.15,1.33c0,.31.06.63.11.93.02.15.06.3.1.44.15.49.47.93.92,1.2s1.06.36,1.54.2.95-.46,1.2-.92.36-1.02.2-1.54c-.05-.17-.09-.34-.11-.51l.07.53c-.04-.28-.04-.57,0-.85l-.07.53c.04-.3.12-.59.24-.87l-.2.48c.11-.25.24-.48.41-.69l-.31.4c.05-.06.1-.12.15-.18.35-.39.59-.87.59-1.41,0-.49-.22-1.08-.59-1.41s-.88-.61-1.41-.59-1.06.19-1.41.59h0Z"/>
  <path class="st2" d="M-928.91,942.81c.05.76.15,1.53.34,2.27s.47,1.44.8,2.13c.2.43.75.8,1.2.92.48.13,1.12.07,1.54-.2s.8-.69.92-1.2l.07-.53c0-.36-.09-.7-.27-1.01-.05-.11-.1-.22-.15-.34l.2.48c-.32-.76-.54-1.56-.65-2.37l.07.53c-.03-.22-.05-.45-.06-.68-.03-.53-.2-1.03-.59-1.41-.35-.35-.92-.61-1.41-.59s-1.05.19-1.41.59-.62.89-.59,1.41h0Z"/>
</svg>