<?xml version="1.0" encoding="UTF-8"?>
<svg id="_레이어_1" data-name="레이어_1" xmlns="http://www.w3.org/2000/svg" version="1.1" viewBox="0 0 993.97 937.62">
  <!-- Generator: Adobe Illustrator 30.1.0, SVG Export Plug-In . SVG Version: 2.1.1 Build 136)  -->
  <defs>
    <style>
      .st0 {
        fill: #9b7242;
      }

      .st1 {
        fill: #e3a275;
      }

      .st2 {
        fill: #341b0a;
      }

      .st3 {
        fill: #341b09;
      }

      .st4 {
        fill: #341a09;
      }

      .st5 {
        fill: #361d0b;
      }

      .st6 {
        fill: #e4a276;
      }

      .st7 {
        fill: #3a1c0f;
      }

      .st8 {
        fill: #e2a175;
      }

      .st9 {
        fill: #351c0a;
      }

      .st10 {
        fill: #7c6860;
      }

      .st11 {
        fill: #704b26;
      }

      .st12 {
        fill: #e3a276;
      }

      .st13 {
        fill: #3b1d10;
      }
    </style>
  </defs>
  <path class="st10" d="M1062.36,2305.55l-4-10v-39.98l4-11.99-1.73,25.99c-.78,11.69,1.26,23.55,1.73,35.98Z"/>
  <g>
    <path class="st0" d="M696.88,71.63c3.57,8.44,7.24,17.42,8.61,28.15,11.62-3.01,23.51-4.53,34.84-4.24-2.12,3.06-.17,11.99,4.44,11.65,50.37-3.72,80.09,36.48,81.92,82.5,1.47,37.01,42.44,24.54,76.77,81.33,32,52.92,2.1,95.28,11.86,97.16l7.06,1.36-5.73,12.94,12.36,2.88c-4.95-.66-31.53-2.95-30.01,8.95.53,4.11,5.23,7.07,10.17,6.06,25.92-5.3,50.76,8.97,62.31,32.52,23.42,47.76-7.27,101.61-42.3,134.84-20.18,19.14-46.31,11.55-39.02,27.23,17.22,37.01,16.83,79.53-5.33,116.2-18.89,31.25-54.21,54.52-94.18,57.63-3.79.3-7.36,4.6-7.2,8.46,1.95,48.26-37.26,86.85-85.37,83.01-31.68-2.53-53.6-20.94-64.94,1.15-15.33,29.86-41.36,51.72-74.58,59.27-35.35,8.03-73.07-5.42-96.14-29.67-1.89-1.98-8.17-2.18-9.52-.61-1.63,1.88-2.03,6.17-1.58,9-7.21-8.54-14-18.18-23.47-24.73,1.66-1.71.61-6.89-.99-8.67-2.21-2.46-8.05-2.35-10.8.14-29.09,26.3-71.11,34.54-106.7,17.73-42.77-20.2-38.01-68.22-55.99-58.43l-11.57-15.82c8.66-32.78-33.35,16.24-87.28-21.13-49.29-34.16-25.14-83.99-53.24-94.81-64.1-24.69-43.89-101.26-53.95-101.69l-8.26-.35c5.7-3.87,11.65-23.47,8.09-25.99,2.07,1.09,7.14-1.47,7.89-3.69s-.64-7.81-3.04-9.45c-24.79-16.88-38.79-46.4-34.79-77.04s23.97-57.94,53.63-70.92c2.17-.95,4.91-5.99,4.32-8.24-.71-2.67-5.57-5.55-10.17-5.29-.64-6.77-3.55-15.07-7.33-20.83l-6.47-2.8c2.19,1.8,12.97.56,12.13-3.76-8.53-43.73,8.78-85.4,46.63-109.56-1.17-74.7,56.73-133.82,130.22-135.43,2.12-.05,6.13-4.39,5.98-6.47-.12-1.74-1.46-4.98-1.22-6.7.47-3.43,2.68-8.89,4.26-12.06l9.6-1.74c29.01-57.16,99.89-76.4,153.19-40.49,10.65,7.17,19.97-27.43,63.33-35.45,25.87-4.78,52.03,5.71,65.5,27.99,1.73,2.85,4.04,6.37,6.13,7.09,7.82,2.72,34.04-18.7,74.08-14.98,26.35,2.45,50.4,16.04,61.81,39.99,1.9,3.98,7.12,6.9,10.83,5.24,2.48-1.11,3.46-6.5,3.24-9.48ZM624.64,122.09c-1.26-2.55-7.26-4.37-9.68-3.29s-4.2,7.07-2.97,9.58c10.35,21.16,16.74,41.17,20.33,64.44.55,3.55,4.28,6.84,7.52,6.87,18.08.15-9.66-66.36-15.21-77.6ZM424.26,207.85c6.88-28.96,16.66-52.79,31.21-77.58,1.3-2.21-.68-7.93-2.84-9.1s-8.28.11-9.61,2.38c-15.44,26.26-26.11,52.22-32.76,82.31-.57,2.58,3.52,7.64,5.87,7.86s7.36-2.61,8.14-5.87ZM770.72,214.87c-10.88-32.81-26.03-60.03-47.37-85.78-1.85-2.24-7.52-2.85-9.68-1.43-1.86,1.22-3.27,7.68-1.51,9.84,19.16,23.56,36.34,52.79,45.58,83.6,1,3.33,7.34,5.11,9.86,4,2.15-.95,4.31-6.66,3.13-10.23ZM249.87,223.72c11.54-28.33,26.86-50.88,48.25-71.32,2.51-2.4,2.3-8.73.03-10.44s-7.98-1.68-10.05.32c-22.72,21.93-39.3,46.3-51.16,75.54-1.23,3.03.17,8.05,2.37,9.4,2.82,1.73,9.09.1,10.56-3.5ZM579.45,328.53c1.85.81,6.63-.6,7.04-2.43,2.06-9.17-12.42-14.06-21.57-16.68-2.17-.62-7.61,3.08-7.46,5.28.13,1.83,2.39,5.27,4.25,6.08l17.75,7.75ZM432.2,332.04l15.66-6.36c2.52-1.02,5.33-4.12,5.4-6.92.23-8.55-18.6-3.63-29.09,5.09-1.85,1.54-1.27,8.62.79,9.14,1.65.42,5.1-.09,7.23-.96ZM587.78,362.66l-11.5-5.02,7.44-4.53c2.42-1.47,4.57-7.09,3.46-9.89-4.4-11.04-40.26,11.4-35.56,21.05.84,1.73,3.85,3.04,6.5,3.84l25.36,7.62c3.57,1.07,9.07-1.27,9.4-4.95.21-2.4-2.5-6.99-5.08-8.12ZM431.07,383.17l29.6-16.18c2.08-1.14,5.23-5.6,4.73-7.88-1.95-8.87-44.39-21.2-42.82-6.52.26,2.42,3.79,6.41,6.55,6.92l10.35,1.9-15.95,10.54c-2.27,1.5-3.11,7.92-1.52,9.89,1.33,1.65,7.09,2.41,9.07,1.33ZM351.81,419.49l-.16-20.06c-.02-2.72-4.86-7.07-7.35-6.98s-6.81,4.06-6.84,6.85l-.2,20.87c-.03,3.04,4.11,7.65,7,7.71,3.4.06,7.57-4.54,7.54-8.4ZM374.7,421.03l-.56-24.82c-.06-2.75-5.67-5.99-8.04-5.51s-5.99,4.75-6,7.32l-.12,19.69c-.02,2.78,3.61,8.11,6.23,8.04,2.3-.06,6.45-2.68,8.5-4.73ZM399.74,391.77c-2-1.5-9.19-.04-10.02,2.41-1.82,5.35-1.84,15.54.91,19.92,1.36,2.17,9.11,2.44,10.38.24,3.15-5.44,3.55-18.97-1.26-22.57ZM606.55,418.86l4.01-15.76c.64-2.52-2.84-7.74-5.2-8.45s-8.02,2.2-8.64,4.68l-4.18,16.73c-.59,2.35,3,7.6,5.38,7.94s7.98-2.56,8.63-5.14ZM633.21,396.75c-1.19-1.91-6.89-2.77-8.77-1.31-5.57,4.35-8.81,16.63-6.09,22.05,1.11,2.22,9.19,3,10.22.89,3.23-6.56,8.43-15.55,4.63-21.64ZM663.53,418.32l3.29-13.15c.69-2.76-2.58-8.32-5.1-8.78s-7.81,2.31-8.54,4.79l-3.86,13.06c-.89,3.01,2.03,8.96,4.74,9.48,3.07.59,8.79-2.7,9.47-5.4ZM513.3,442.59c33.32-3.81,47.62-42.06,34.75-41.57-9.74.37-9.62,28.9-38.35,29.97-30.97,1.16-30.3-26.93-41.7-24.67-12,2.38,9.01,40.42,45.3,36.26ZM793.92,531.62c46.27-2.99,88.29-12.34,129.85-29.41,3.51-1.44,5.4-7.3,3.8-10.04-1.21-2.08-6.37-4.17-8.99-3.11-40.73,16.55-81.59,25.79-125.67,28.35-3.45.2-7.45,4.25-7.43,6.79.02,3.23,3.66,7.72,8.46,7.41ZM741.97,538.79c3.8-.54,6.51-5.52,6.28-8.05-.2-2.17-4.62-6.36-7.72-5.93-216.02,30.5-434.92,20.08-646.91-31.37-5.21-1.26-9.39,3.31-9.29,7.17.07,2.55,2.97,5.93,7.12,6.93,213.21,51.35,433.39,62.22,650.53,31.25ZM255.3,599.32c.72-3.4-2.37-8.55-5.2-9.17-2.58-.57-7.86,2.23-8.55,5.47-9.31,44.32-5.52,88.09,11.08,130,1.4,3.53,7.55,5.17,10.57,3.68,10.92-5.38-24.73-50.98-7.91-129.97ZM757.35,728.9c26.6-31.02,42.89-65.83,49.43-105.55.69-4.2-3.37-8.48-6.88-8.42-2.4.04-6.64,3.44-7.12,6.31-6.27,37.14-21.42,69.55-45.74,98.06-1.97,2.31-1.4,8.52.6,10.19,1.72,1.43,7.88,1.54,9.71-.59ZM407.16,722.56c-5.08-32.48-6.99-61.45-6-93.35.09-2.96-4.26-7.19-6.75-7.01-2.66.19-7.17,4.2-7.25,7.07-.95,33.87.76,64.38,6.44,97.64.45,2.63,6.08,5.62,8.6,5.31,2.84-.35,5.63-5.33,4.95-9.67ZM610.26,729.1c9-31.64,14.68-61.19,18.08-93.92.31-2.96-3.96-7.64-6.52-7.83s-7.43,3.57-7.71,6.56c-3.03,31.96-8.59,60.81-18,91.66-.92,3.03,2.96,8.77,5.62,8.88s7.76-2.62,8.53-5.35Z"/>
    <path class="st7" d="M929,385.36c30.38,4.07,54.75,27.51,62.03,58.2,11.87,50.04-13.79,97.38-48.51,131.65-10.24,10.11-22.6,16.19-35.66,21.15,16.27,41.91,13.04,86.14-11.11,125.07-19.89,32.07-56.42,55.06-97.12,61.75-2.03,29.23-15.56,56.85-37.13,72.85-25.28,18.75-55.06,23.35-84.71,15.73l-28.59-7.35c-12.81,25.29-29.53,44.42-53.92,58.2-46.8,26.46-108.71,17.45-143-23.19-.45-2.83-.04-7.13,1.58-9,1.35-1.56,7.64-1.37,9.52.61,23.07,24.25,60.79,37.7,96.14,29.67,33.22-7.55,59.25-29.41,74.58-59.27,11.34-22.09,33.26-3.68,64.94-1.15,48.11,3.84,87.31-34.75,85.37-83.01-.16-3.86,3.41-8.17,7.2-8.46,39.97-3.11,75.29-26.38,94.18-57.63,22.16-36.67,22.56-79.2,5.33-116.2-7.3-15.68,18.84-8.08,39.02-27.23,35.03-33.23,65.72-87.09,42.3-134.84-11.55-23.55-36.39-37.82-62.31-32.52-4.94,1.01-9.64-1.95-10.17-6.06-1.52-11.91,25.06-9.62,30.01-8.95Z"/>
    <path class="st7" d="M696.88,71.63c.22,2.98-.77,8.37-3.24,9.48-3.71,1.66-8.93-1.26-10.83-5.24-11.41-23.95-35.46-37.54-61.81-39.99-40.05-3.72-66.26,17.7-74.08,14.98-2.09-.73-4.4-4.24-6.13-7.09-13.47-22.28-39.64-32.77-65.5-27.99-43.36,8.02-52.69,42.62-63.33,35.45-53.3-35.91-124.18-16.67-153.19,40.49l-9.6,1.74c-1.14-1.62-3.07-6.67-3.19-9.27C277.17,22.94,353.65-.7,414.07,35.23c16.58-17.49,36.33-30.36,60.43-34.18,30.95-4.9,60.59,7.52,78.46,33.49,25.87-11.05,52.19-16.87,79.03-11.95,29.17,5.35,53.84,22.97,64.88,49.04Z"/>
    <path class="st7" d="M922.37,369.54l-7.06-1.36c-9.76-1.88,20.14-44.24-11.86-97.16-34.33-56.79-75.3-44.32-76.77-81.33-1.83-46.02-31.54-86.21-81.92-82.5-4.61.34-6.56-8.59-4.44-11.65,29.92-11.03,66.41,9.12,84.03,37.13,26.24,41.71,6.33,62.1,29.85,74.08,57.52,29.28,94.35,92.92,73.56,155.91-.65,1.97-4.03,5.65-5.4,6.88Z"/>
    <path class="st7" d="M244.91,105.5c-.24,1.72,1.1,4.96,1.22,6.7.15,2.08-3.86,6.43-5.98,6.47-73.48,1.61-131.39,60.73-130.22,135.43-37.86,24.15-55.17,65.83-46.63,109.56.84,4.32-9.94,5.55-12.13,3.76-14.01-43.51,5.65-93.21,43.91-120.87,3.27-74.69,59.32-135.31,134.66-142.09,5.4-.49,10.65,0,15.17,1.04Z"/>
    <path class="st7" d="M241.76,809.64c-29.91,13.28-65.16,10.96-94.2-8.07-25.07-16.43-41.98-46.14-43.69-78.44-1.51-28.47-39.23-10.36-59.41-69.01-3.83-11.12-13.74-56.8-5.42-62.46l8.26.35c10.06.43-10.15,77,53.95,101.69,28.09,10.82,3.94,60.65,53.24,94.81,53.92,37.37,95.94-11.65,87.28,21.13Z"/>
    <path class="st13" d="M427.82,874.69c-24.36,25.17-93.83,48.84-129.42,19.84-19.37-15.78-35.57-27.64-43.65-53.62-1.38-4.42-4.5-10.66-1.4-15.46,17.98-9.78,13.22,38.23,55.99,58.43,35.59,16.81,77.61,8.57,106.7-17.73,2.75-2.49,8.59-2.6,10.8-.14,1.6,1.78,2.65,6.95.99,8.67Z"/>
    <path class="st13" d="M64.97,391.05c4.6-.26,9.46,2.62,10.17,5.29.6,2.26-2.14,7.29-4.32,8.24-29.66,12.98-49.45,38.82-53.63,70.92s10,60.16,34.79,77.04c2.4,1.63,3.79,7.23,3.04,9.45s-5.82,4.79-7.89,3.69c-26.01-13.79-58.06-67.63-43.49-103.17,12.9-31.47,28.74-59.37,61.32-71.45Z"/>
    <path class="st11" d="M741.97,538.79c-217.14,30.97-437.31,20.1-650.53-31.25-4.15-1-7.05-4.37-7.12-6.93-.1-3.86,4.08-8.43,9.29-7.17,212,51.44,430.89,61.87,646.91,31.37,3.1-.44,7.52,3.75,7.72,5.93.23,2.54-2.48,7.51-6.28,8.05Z"/>
    <path class="st11" d="M793.92,531.62c-4.8.31-8.44-4.18-8.46-7.41-.02-2.54,3.98-6.59,7.43-6.79,44.08-2.57,84.94-11.81,125.67-28.35,2.62-1.06,7.78,1.03,8.99,3.11,1.6,2.74-.29,8.6-3.8,10.04-41.56,17.06-83.58,26.42-129.85,29.41Z"/>
    <path class="st11" d="M255.3,599.32c-16.82,79,18.83,124.6,7.91,129.97-3.03,1.49-9.17-.15-10.57-3.68-16.6-41.91-20.39-85.68-11.08-130,.68-3.24,5.97-6.04,8.55-5.47,2.83.62,5.92,5.77,5.2,9.17Z"/>
    <path class="st11" d="M757.35,728.9c-1.83,2.13-7.99,2.02-9.71.59-2-1.67-2.57-7.88-.6-10.19,24.32-28.51,39.47-60.92,45.74-98.06.48-2.87,4.72-6.27,7.12-6.31,3.51-.05,7.57,4.22,6.88,8.42-6.54,39.72-22.83,74.53-49.43,105.55Z"/>
    <path class="st11" d="M770.72,214.87c1.18,3.57-.97,9.28-3.13,10.23-2.52,1.11-8.86-.67-9.86-4-9.24-30.81-26.42-60.04-45.58-83.6-1.76-2.16-.35-8.62,1.51-9.84,2.16-1.41,7.83-.8,9.68,1.43,21.34,25.75,36.49,52.97,47.37,85.78Z"/>
    <path class="st11" d="M407.16,722.56c.68,4.34-2.11,9.31-4.95,9.67-2.52.31-8.15-2.67-8.6-5.31-5.68-33.26-7.39-63.77-6.44-97.64.08-2.87,4.58-6.88,7.25-7.07,2.49-.18,6.84,4.05,6.75,7.01-.99,31.89.92,60.87,6,93.35Z"/>
    <path class="st11" d="M610.26,729.1c-.78,2.74-5.96,5.47-8.53,5.35s-6.54-5.85-5.62-8.88c9.4-30.85,14.97-59.7,18-91.66.28-2.99,5.08-6.75,7.71-6.56s6.83,4.87,6.52,7.83c-3.4,32.73-9.08,62.28-18.08,93.92Z"/>
    <path class="st11" d="M249.87,223.72c-1.47,3.6-7.73,5.24-10.56,3.5-2.21-1.35-3.6-6.37-2.37-9.4,11.86-29.23,28.44-53.61,51.16-75.54,2.07-2,7.77-2.05,10.05-.32s2.48,8.04-.03,10.44c-21.39,20.44-36.71,42.99-48.25,71.32Z"/>
    <path class="st11" d="M424.26,207.85c-.78,3.26-5.78,6.1-8.14,5.87s-6.44-5.28-5.87-7.86c6.66-30.09,17.32-56.05,32.76-82.31,1.33-2.27,7.45-3.55,9.61-2.38s4.14,6.89,2.84,9.1c-14.54,24.79-24.33,48.62-31.21,77.58Z"/>
    <path class="st4" d="M513.3,442.59c-36.29,4.15-57.3-33.88-45.3-36.26s10.73,25.83,41.7,24.67c28.73-1.07,28.61-29.6,38.35-29.97,12.87-.5-1.44,37.75-34.75,41.57Z"/>
    <path class="st11" d="M624.64,122.09c5.55,11.24,33.29,77.76,15.21,77.6-3.25-.03-6.97-3.32-7.52-6.87-3.6-23.28-9.98-43.29-20.33-64.44-1.23-2.51.62-8.53,2.97-9.58s8.42.74,9.68,3.29Z"/>
    <path class="st3" d="M431.07,383.17c-1.97,1.08-7.74.31-9.07-1.33-1.59-1.97-.75-8.39,1.52-9.89l15.95-10.54-10.35-1.9c-2.77-.51-6.29-4.5-6.55-6.92-1.57-14.68,40.87-2.35,42.82,6.52.5,2.28-2.65,6.74-4.73,7.88l-29.6,16.18Z"/>
    <path class="st2" d="M587.78,362.66c2.58,1.13,5.29,5.73,5.08,8.12-.33,3.68-5.83,6.02-9.4,4.95l-25.36-7.62c-2.65-.8-5.65-2.11-6.5-3.84-4.7-9.65,31.16-32.09,35.56-21.05,1.12,2.8-1.04,8.42-3.46,9.89l-7.44,4.53,11.5,5.02Z"/>
    <path class="st8" d="M374.7,421.03c-2.05,2.06-6.2,4.67-8.5,4.73-2.61.06-6.25-5.26-6.23-8.04l.12-19.69c.02-2.57,3.64-6.84,6-7.32s7.98,2.76,8.04,5.51l.56,24.82Z"/>
    <path class="st6" d="M351.81,419.49c.03,3.86-4.14,8.46-7.54,8.4-2.9-.05-7.03-4.67-7-7.71l.2-20.87c.03-2.79,4.36-6.76,6.84-6.85s7.33,4.25,7.35,6.98l.16,20.06Z"/>
    <path class="st6" d="M606.55,418.86c-.66,2.58-6.25,5.49-8.63,5.14s-5.97-5.6-5.38-7.94l4.18-16.73c.62-2.48,6.29-5.39,8.64-4.68s5.84,5.94,5.2,8.45l-4.01,15.76Z"/>
    <path class="st12" d="M663.53,418.32c-.68,2.7-6.4,5.99-9.47,5.4-2.71-.52-5.63-6.47-4.74-9.48l3.86-13.06c.73-2.48,6.04-5.23,8.54-4.79s5.8,6.01,5.1,8.78l-3.29,13.15Z"/>
    <path class="st9" d="M432.2,332.04c-2.14.87-5.58,1.37-7.23.96-2.06-.52-2.65-7.6-.79-9.14,10.49-8.72,29.32-13.65,29.09-5.09-.08,2.8-2.89,5.9-5.4,6.92l-15.66,6.36Z"/>
    <path class="st5" d="M579.45,328.53l-17.75-7.75c-1.86-.81-4.12-4.25-4.25-6.08-.16-2.2,5.29-5.9,7.46-5.28,9.16,2.62,23.64,7.5,21.57,16.68-.41,1.83-5.19,3.24-7.04,2.43Z"/>
    <path class="st1" d="M633.21,396.75c3.8,6.09-1.4,15.08-4.63,21.64-1.04,2.11-9.11,1.32-10.22-.89-2.72-5.42.51-17.71,6.09-22.05,1.88-1.47,7.58-.6,8.77,1.31Z"/>
    <path class="st6" d="M399.74,391.77c4.81,3.6,4.41,17.13,1.26,22.57-1.27,2.19-9.02,1.92-10.38-.24-2.75-4.38-2.73-14.57-.91-19.92.83-2.44,8.02-3.9,10.02-2.41Z"/>
  </g>
</svg>